<svg width="340" height="272" viewBox="0 0 340 272" fill="none" xmlns="http://www.w3.org/2000/svg">
<g clip-path="url(#clip0_586_762)">
<path d="M44.24 72.0205C42.0385 72.0205 39.8865 72.6749 38.0562 73.901C36.2259 75.127 34.7995 76.8697 33.9574 78.9084C33.1153 80.9471 32.8954 83.1904 33.3256 85.3544C33.7557 87.5184 34.8165 89.5059 36.3737 91.0656C37.931 92.6252 39.9148 93.6869 42.0741 94.1163C44.2335 94.5457 46.4714 94.3236 48.5048 93.478C50.5382 92.6325 52.2757 91.2014 53.4975 89.3659C54.7193 87.5304 55.3706 85.373 55.3689 83.1664C55.3689 81.702 55.081 80.2519 54.5216 78.8991C53.9622 77.5462 53.1423 76.3171 52.1088 75.282C51.0753 74.2469 49.8484 73.4261 48.4982 72.8665C47.148 72.3068 45.7011 72.0194 44.24 72.0205ZM44.24 89.2099C43.0474 89.2099 41.8817 88.8555 40.8901 88.1914C39.8986 87.5273 39.1257 86.5835 38.6694 85.4792C38.213 84.3749 38.0936 83.1597 38.3263 81.9874C38.5589 80.8151 39.1332 79.7382 39.9764 78.893C40.8197 78.0478 41.894 77.4722 43.0637 77.2391C44.2333 77.0059 45.4457 77.1256 46.5474 77.583C47.6492 78.0404 48.5909 78.815 49.2534 79.8088C49.916 80.8027 50.2696 81.9711 50.2696 83.1664C50.2696 84.7693 49.6343 86.3064 48.5036 87.4398C47.3728 88.5732 45.8391 89.2099 44.24 89.2099Z" fill="#003096"/>
<path d="M59.5981 22.2998C58.7715 22.2981 57.963 22.5422 57.2748 23.0013C56.5867 23.4604 56.0499 24.1137 55.7324 24.8787C55.4148 25.6437 55.3309 26.4859 55.4911 27.2987C55.6513 28.1115 56.0485 28.8584 56.6324 29.4449C57.2163 30.0313 57.9607 30.431 58.7713 30.5933C59.5819 30.7555 60.4224 30.6731 61.1862 30.3564C61.9501 30.0398 62.6031 29.5031 63.0625 28.8143C63.5219 28.1255 63.7672 27.3156 63.7672 26.4871C63.7672 25.378 63.3282 24.3143 62.5466 23.5293C61.765 22.7443 60.7046 22.3021 59.5981 22.2998ZM59.5981 28.7491C59.1493 28.7508 58.7102 28.6189 58.3363 28.37C57.9624 28.1212 57.6707 27.7666 57.4982 27.3514C57.3257 26.9361 57.2801 26.4789 57.3672 26.0376C57.4544 25.5963 57.6703 25.191 57.9876 24.8729C58.305 24.5548 58.7094 24.3384 59.1497 24.2511C59.5899 24.1637 60.0461 24.2094 60.4604 24.3823C60.8747 24.5553 61.2284 24.8476 61.4767 25.2224C61.725 25.5971 61.8566 26.0373 61.8549 26.4871C61.8549 26.7841 61.7965 27.0783 61.6831 27.3527C61.5697 27.6271 61.4035 27.8765 61.1939 28.0866C60.9844 28.2966 60.7356 28.4632 60.4618 28.5769C60.188 28.6906 59.8945 28.7491 59.5981 28.7491Z" fill="#E7E8FA"/>
<path d="M138.5 14.875H169.406" stroke="#003096" stroke-width="2" stroke-linecap="round" stroke-linejoin="round"/>
<ellipse cx="320.843" cy="49.5645" rx="0.86137" ry="0.863355" fill="#003096"/>
<path d="M320.843 53.873V85.8172C320.843 87.5437 320.159 89.1994 318.941 90.4202C317.723 91.641 316.071 92.3269 314.348 92.3269H306.923" stroke="#003096" stroke-width="2" stroke-linecap="round" stroke-linejoin="round"/>
<ellipse cx="304.77" cy="92.3096" rx="0.86137" ry="0.863355" fill="#003096"/>
<path d="M36.5134 106.563V153.021" stroke="#003096" stroke-width="2" stroke-linecap="round" stroke-linejoin="round"/>
<path d="M285.966 36.3037H54.0424C49.2186 36.3037 45.3081 40.2232 45.3081 45.0581V187.339C45.3081 192.174 49.2186 196.093 54.0424 196.093H285.966C290.79 196.093 294.701 192.174 294.701 187.339V45.0581C294.701 40.2232 290.79 36.3037 285.966 36.3037Z" fill="#E7E8FA"/>
<path d="M281.125 44.2295H58.8746C57.1287 44.2295 55.7134 45.6481 55.7134 47.398V174.406C55.7134 176.156 57.1287 177.575 58.8746 177.575H281.125C282.871 177.575 284.287 176.156 284.287 174.406V47.398C284.287 45.6481 282.871 44.2295 281.125 44.2295Z" fill="url(#paint0_linear_586_762)"/>
<path d="M45.3252 187.736C45.4249 189.985 46.3858 192.108 48.0078 193.665C49.6298 195.221 51.7881 196.091 54.0336 196.094H285.966C288.212 196.091 290.37 195.221 291.992 193.665C293.614 192.108 294.575 189.985 294.675 187.736H45.3252Z" fill="#003096"/>
<path d="M1.0404e-05 264.014H340V267.692C340 268.836 339.546 269.934 338.739 270.744C337.931 271.554 336.835 272.008 335.693 272.008H3.56608C3.09705 272.008 2.63263 271.916 2.19941 271.735C1.7662 271.555 1.37269 271.291 1.04144 270.958C0.710185 270.626 0.44769 270.231 0.268985 269.796C0.0902806 269.361 -0.00112252 268.896 1.0404e-05 268.425V264.014Z" fill="#003096"/>
<path d="M289.618 196.231H50.3815C48.876 196.232 47.3931 196.599 46.0606 197.301C44.7281 198.003 43.5859 199.02 42.7326 200.263L0.68911 261.726C0.29775 262.307 0.0712799 262.985 0.0338525 263.685C-0.00357499 264.386 0.149444 265.084 0.47659 265.704C0.803736 266.324 1.29274 266.844 1.89145 267.208C2.49016 267.572 3.17612 267.765 3.87618 267.769H336.124C336.824 267.765 337.51 267.572 338.109 267.208C338.707 266.844 339.196 266.324 339.523 265.704C339.851 265.084 340.004 264.386 339.966 263.685C339.929 262.985 339.702 262.307 339.311 261.726L297.267 200.263C296.414 199.02 295.272 198.003 293.939 197.301C292.607 196.599 291.124 196.232 289.618 196.231Z" fill="#E7E8FA"/>
<path d="M82.235 236.231H193.688C194.282 236.228 194.868 236.379 195.387 236.669C195.906 236.96 196.342 237.38 196.651 237.889L203.542 249.182C204.082 250.068 204.842 250.8 205.747 251.307C206.653 251.814 207.673 252.078 208.71 252.074H298.775C299.131 252.079 299.482 251.988 299.792 251.81C300.101 251.633 300.357 251.375 300.533 251.065C300.709 250.754 300.798 250.402 300.792 250.045C300.786 249.688 300.684 249.339 300.498 249.035L274.097 206.109C273.48 205.104 272.618 204.274 271.591 203.699C270.564 203.123 269.407 202.82 268.231 202.819H70.3567C69.2882 202.82 68.2382 203.099 67.3096 203.628C66.3809 204.158 65.6055 204.921 65.0593 205.841L38.3568 250.995C38.2933 251.103 38.2594 251.226 38.2586 251.352C38.2577 251.478 38.2898 251.602 38.3518 251.711C38.4138 251.82 38.5034 251.912 38.6116 251.975C38.7199 252.039 38.8429 252.073 38.9684 252.074H67.4367C68.4906 252.078 69.5271 251.805 70.443 251.282C71.3589 250.76 72.1221 250.006 72.6566 249.095L79.2289 237.958C79.5371 237.433 79.9765 236.998 80.5036 236.695C81.0307 236.392 81.6275 236.232 82.235 236.231Z" fill="url(#paint1_linear_586_762)"/>
<path d="M200.665 248.87L194.928 239.538C194.742 239.231 194.48 238.978 194.167 238.803C193.855 238.627 193.503 238.536 193.145 238.536H82.7346C82.3714 238.536 82.0144 238.631 81.6988 238.811C81.3831 238.991 81.1197 239.25 80.9344 239.564L75.413 248.896C75.2247 249.216 75.1241 249.58 75.1214 249.952C75.1187 250.323 75.214 250.688 75.3977 251.011C75.5813 251.334 75.8467 251.602 76.1671 251.788C76.4875 251.975 76.8513 252.073 77.2219 252.074H198.856C199.231 252.079 199.601 251.983 199.927 251.796C200.253 251.608 200.522 251.337 200.707 251.009C200.892 250.682 200.986 250.31 200.978 249.934C200.971 249.558 200.863 249.19 200.665 248.87Z" fill="url(#paint2_linear_586_762)"/>
<g opacity="0.27" style="mix-blend-mode:overlay">
<path d="M281.125 44.2295H124.356C126.201 62.371 132.163 79.8489 141.785 95.3258C151.406 110.803 164.433 123.868 179.868 133.523C195.302 143.177 212.736 149.164 230.835 151.027C248.933 152.889 267.217 150.576 284.287 144.266V47.398C284.287 46.5577 283.953 45.7517 283.361 45.1575C282.768 44.5633 281.964 44.2295 281.125 44.2295Z" fill="white"/>
</g>
<path d="M129.033 36.3037L132.229 43.5041C133.154 45.6149 134.672 47.4105 136.598 48.672C138.523 49.9336 140.773 50.6068 143.074 50.6095H196.926C199.222 50.6105 201.469 49.9437 203.393 48.6901C205.318 47.4366 206.839 45.65 207.771 43.5473L210.967 36.3469L129.033 36.3037Z" fill="#E7E8FA"/>
<path d="M285.966 36.3037H219.245C219.069 36.848 218.977 37.4154 218.969 37.9873V84.0732C218.969 84.8448 219.121 85.609 219.416 86.3218C219.711 87.0347 220.143 87.6822 220.688 88.2275C221.232 88.7728 221.879 89.205 222.591 89.4996C223.302 89.7941 224.065 89.9451 224.835 89.944H294.692V45.0495C294.692 42.73 293.773 40.5054 292.136 38.8653C290.5 37.2251 288.281 36.3037 285.966 36.3037Z" fill="#003096"/>
<path d="M241.115 102.031H180.836C178.377 102.031 176.383 104.03 176.383 106.495V141.512C176.383 143.978 178.377 145.976 180.836 145.976H241.115C243.574 145.976 245.568 143.978 245.568 141.512V106.495C245.568 104.03 243.574 102.031 241.115 102.031Z" fill="#003096"/>
<path d="M294.692 127.707H242.329C241.149 127.709 240.017 128.18 239.183 129.017C238.348 129.853 237.878 130.987 237.876 132.171V167.162C237.878 168.345 238.348 169.479 239.183 170.316C240.017 171.153 241.149 171.624 242.329 171.626H294.692V127.707Z" fill="#003096"/>
<path d="M155.607 37.4434H73.6128V159.574H155.607V37.4434Z" fill="#003096"/>
<path d="M159.095 23.751H70.1328V152.728H159.095V23.751Z" fill="#E7E8FA"/>
<path d="M156.649 149.205H72.5706V27.2988H156.649V149.205ZM73.1391 148.635H156.08V27.8341H73.1391V148.635Z" fill="#E56E6B"/>
<path d="M140.429 61.7988H86.9036V65.9861H140.429V61.7988Z" fill="#003096"/>
<path d="M140.429 90.6172H86.9036V94.8045H140.429V90.6172Z" fill="#003096"/>
<path d="M147.062 71.6836H80.2539V75.8709H147.062V71.6836Z" fill="#003096"/>
<path d="M147.062 80.3867H80.2539V84.574H147.062V80.3867Z" fill="#003096"/>
<path d="M115.718 56.2783C119.497 54.7188 121.299 50.3843 119.743 46.5969C118.187 42.8096 113.862 41.0035 110.084 42.563C106.305 44.1225 104.503 48.457 106.059 52.2444C107.615 56.0317 111.94 57.8377 115.718 56.2783Z" fill="url(#paint3_linear_586_762)"/>
<path d="M143.651 157.052L136.544 151.018L129.981 157.052V129.382H143.651V157.052Z" fill="url(#paint4_linear_586_762)"/>
<path d="M136.346 140.165C143.211 140.165 148.776 134.588 148.776 127.707C148.776 120.827 143.211 115.249 136.346 115.249C129.482 115.249 123.917 120.827 123.917 127.707C123.917 134.588 129.482 140.165 136.346 140.165Z" fill="url(#paint5_linear_586_762)"/>
<path d="M136.346 135.219C140.485 135.219 143.84 131.856 143.84 127.707C143.84 123.559 140.485 120.196 136.346 120.196C132.207 120.196 128.852 123.559 128.852 127.707C128.852 131.856 132.207 135.219 136.346 135.219Z" fill="url(#paint6_linear_586_762)"/>
<path d="M305.356 8.90918H222.027C217.94 8.90918 214.628 12.2295 214.628 16.3254V74.5414C214.628 78.6373 217.94 81.9577 222.027 81.9577H305.356C309.442 81.9577 312.755 78.6373 312.755 74.5414V16.3254C312.755 12.2295 309.442 8.90918 305.356 8.90918Z" fill="#003096"/>
<mask id="mask0_586_762" style="mask-type:luminance" maskUnits="userSpaceOnUse" x="214" y="8" width="99" height="74">
<path d="M305.364 8.90918H222.035C217.949 8.90918 214.636 12.2295 214.636 16.3254V74.5414C214.636 78.6373 217.949 81.9577 222.035 81.9577H305.364C309.451 81.9577 312.763 78.6373 312.763 74.5414V16.3254C312.763 12.2295 309.451 8.90918 305.364 8.90918Z" fill="white"/>
</mask>
<g mask="url(#mask0_586_762)">
<path d="M258.454 26.7286L246.697 17.3526L277.172 15.1855L295.889 38.522L280.049 35.3881L258.454 26.7286Z" fill="url(#paint7_linear_586_762)"/>
<path d="M261.366 50.9283C261.366 50.9283 265.001 60.6497 262.572 67.0213C261.667 73.0648 278.938 68.5408 281.659 60.9778C280.755 56.1171 277.422 52.7759 277.12 43.0632C276.819 33.3504 261.064 44.5654 261.366 50.9283Z" fill="url(#paint8_linear_586_762)"/>
<g opacity="0.32" style="mix-blend-mode:multiply">
<path d="M278.042 50.212C277.729 48.9272 277.499 47.6238 277.353 46.3096L267.765 41.8115C264.32 44.298 261.271 48.0967 261.409 50.9286C262.474 53.9514 263.143 57.1002 263.398 60.296C272.296 58.4829 276.319 53.4841 278.042 50.212Z" fill="#FFA26E"/>
</g>
<path d="M253.984 35.932C253.984 35.932 249.729 47.9499 253.846 52.8106C260.263 60.3909 270.255 56.264 274.243 51.6623C278.231 47.0607 278.102 28.0668 271.392 25.0624C264.682 22.0579 256.878 24.2335 253.984 35.932Z" fill="url(#paint9_linear_586_762)"/>
<path d="M272.736 46.2235C272.736 46.7716 272.573 47.3075 272.27 47.7632C271.966 48.219 271.534 48.5742 271.029 48.7839C270.523 48.9937 269.967 49.0486 269.431 48.9416C268.895 48.8347 268.402 48.5708 268.015 48.1832C267.629 47.7956 267.365 47.3018 267.259 46.7642C267.152 46.2266 267.207 45.6694 267.416 45.163C267.625 44.6566 267.98 44.2237 268.434 43.9192C268.889 43.6147 269.424 43.4521 269.971 43.4521C270.704 43.4521 271.407 43.7441 271.926 44.2639C272.444 44.7836 272.736 45.4885 272.736 46.2235Z" fill="#FE746A"/>
<path d="M276.491 45.8694C276.491 45.8694 279.764 41.1814 281.659 43.7715C283.554 46.3615 275.725 51.0495 275.518 48.8653C275.474 48.3261 275.537 47.7836 275.704 47.2692C275.871 46.7549 276.139 46.279 276.491 45.8694Z" fill="url(#paint10_linear_586_762)"/>
<path d="M277.241 47.5697C277.241 47.5697 278.869 44.5566 280.962 44.5566C281.547 44.0386 279.851 44.2372 278.937 44.9538C278.024 45.6704 276.62 46.9827 277.241 47.5697Z" fill="#FF7D5A"/>
<path d="M277.241 47.052C277.241 47.052 279.205 45.1267 280.204 45.7828C280.686 46.5685 276.776 48.4938 277.241 47.052Z" fill="#FF7D5A"/>
<path d="M304.692 107.064C303.788 92.3871 302.909 76.2683 299.249 71.7875C293.486 64.7339 281.16 59.1221 281.16 59.1221C281.16 59.1221 274.88 69.6118 265.38 68.5758C262.795 66.6678 263.131 64.5871 263.131 64.5871C262.212 65.5828 261.167 66.4536 260.022 67.1772C258.127 68.3945 252.269 71.494 250.349 74.8006C250.349 74.8006 246.903 79.9807 246.903 88.4761C246.903 90.8849 246.791 98.1285 246.619 107.056L304.692 107.064Z" fill="url(#paint11_linear_586_762)"/>
<path d="M249.97 74.1955C249.97 74.1955 254.931 89.425 263.088 96.8067C263.088 96.8067 292.048 83.4938 300.205 69.706C295.407 65.3892 280.85 58.3184 280.85 58.3184C280.85 58.3184 275.415 65.2252 266.611 66.8138C266.611 66.8138 264.027 65.8554 263.252 63.9302C258.373 66.7203 253.903 70.175 249.97 74.1955Z" fill="url(#paint12_linear_586_762)"/>
<path d="M288.99 62.5322C283.822 68.3167 274.906 77.1229 264.449 82.2944C261.633 77.7047 259.215 72.8809 257.222 67.8764C255.836 68.9038 254.328 70.1038 252.812 71.4593C254.32 75.448 257.825 83.6844 263.252 89.9955C263.252 89.9955 277.895 83.4427 294.098 65.459C292.435 64.423 290.669 63.4474 288.99 62.5322Z" fill="url(#paint13_linear_586_762)"/>
<path d="M280.049 55.832C280.049 55.832 271.289 63.654 267.576 64.8541L266.611 66.8139L271.409 71.83C271.409 71.83 280.652 63.2914 282.211 59.0782L280.049 55.832Z" fill="white"/>
<path d="M263.373 62.2041C263.373 62.2041 263.734 63.5337 265.896 64.8546L266.611 66.8144L263.614 70.7427C263.614 70.7427 261.331 67.1425 261.09 65.2172C260.849 63.2919 260.969 64.7337 260.969 64.7337L263.373 62.2041Z" fill="white"/>
<path d="M274.295 32.0205C274.295 32.0205 273.175 35.707 273.812 37.6323C274.266 38.8857 274.973 40.0319 275.888 40.9994C275.888 40.9994 275.251 46.4558 274.932 47.2501L276.371 47.4141L277.172 45.0054C277.172 45.0054 279.015 42.0527 281.694 43.7708L282.607 41.3188C282.826 41.9815 283.211 42.5763 283.727 43.0456C284.528 43.5204 283.727 39.8339 282.211 37.2697C280.695 34.7055 274.295 32.0205 274.295 32.0205Z" fill="url(#paint14_linear_586_762)"/>
<path d="M256.774 28.8957C256.774 28.8957 269.695 27.8683 282.452 37.7365L284.614 30.0958C284.614 30.0958 280.531 22.8781 265.414 20.7198C259.651 20.2363 259.651 20.7198 259.651 20.7198L256.774 28.8957Z" fill="url(#paint15_linear_586_762)"/>
<path d="M273.39 26.5219C272.339 25.3132 271.349 24.1736 270.513 23.0685C267.318 18.8553 270.315 16.1616 270.444 16.0321C270.742 15.8424 271.068 15.6997 271.409 15.6091C271.201 15.4156 270.942 15.2852 270.663 15.2333C270.384 15.1813 270.096 15.2098 269.833 15.3155C269.833 15.3155 266.017 18.7172 269.764 23.6728C270.625 24.8038 271.624 25.9521 272.684 27.178C275.836 30.7955 279.411 34.9051 278.955 38.7125L279.902 38.8333C280.402 34.5856 276.681 30.3034 273.39 26.5219Z" fill="url(#paint16_linear_586_762)"/>
<path d="M278.214 41.1816C278.214 41.1816 276.836 36.3381 279.075 35.3626C281.1 34.8445 281.659 40.888 281.435 40.8794C281.212 40.8708 280.617 42.6147 278.214 41.1816Z" fill="url(#paint17_linear_586_762)"/>
<path d="M265.655 39.4801C266.183 39.4801 266.611 39.0511 266.611 38.5218C266.611 37.9925 266.183 37.5635 265.655 37.5635C265.127 37.5635 264.699 37.9925 264.699 38.5218C264.699 39.0511 265.127 39.4801 265.655 39.4801Z" fill="url(#paint18_linear_586_762)"/>
<path d="M257.257 37.7965C257.785 37.7965 258.213 37.3675 258.213 36.8382C258.213 36.3089 257.785 35.8799 257.257 35.8799C256.729 35.8799 256.301 36.3089 256.301 36.8382C256.301 37.3675 256.729 37.7965 257.257 37.7965Z" fill="url(#paint19_linear_586_762)"/>
<path d="M257.248 46.0074C258.956 46.3424 260.682 46.5787 262.416 46.7154C262.582 46.7257 262.741 46.778 262.881 46.8675C263.02 46.9569 263.134 47.0805 263.213 47.2265C263.291 47.3726 263.331 47.5363 263.329 47.7021C263.327 47.868 263.283 48.0305 263.2 48.1744C262.691 48.8571 261.979 49.3609 261.167 49.6137C260.355 49.8665 259.484 49.8552 258.678 49.5817C258.062 49.4607 257.493 49.1681 257.036 48.7374C256.579 48.3067 256.253 47.7555 256.094 47.147C256.066 46.9896 256.076 46.8277 256.125 46.6753C256.173 46.5229 256.258 46.3846 256.371 46.2723C256.485 46.1601 256.624 46.0773 256.777 46.0311C256.93 45.985 257.092 45.9768 257.248 46.0074Z" fill="url(#paint20_linear_586_762)"/>
<path d="M262.425 46.7148C260.69 46.5793 258.965 46.3429 257.257 46.0068H257.171C257.119 46.4212 257.283 46.9997 258.299 47.4141C259.815 48.0185 261.684 47.8199 262.425 46.7148Z" fill="white"/>
<path d="M264.914 35.9325C265.397 35.7719 265.918 35.769 266.403 35.9241C266.887 36.0793 267.31 36.3845 267.61 36.7958C267.61 36.7958 268.05 36.8476 268.05 36.2433C268.05 35.6389 267.283 34.8619 266.129 34.6979C265.841 34.6218 265.537 34.6394 265.26 34.748C264.982 34.8566 264.747 35.0507 264.587 35.3022C264.556 35.3643 264.541 35.4327 264.542 35.5019C264.542 35.5711 264.559 35.6391 264.591 35.7005C264.623 35.7619 264.669 35.8149 264.725 35.8552C264.781 35.8955 264.846 35.922 264.914 35.9325Z" fill="url(#paint21_linear_586_762)"/>
<path d="M256.516 34.4816C256.999 34.3211 257.52 34.3182 258.004 34.4733C258.489 34.6284 258.912 34.9337 259.212 35.345C259.212 35.345 259.651 35.3968 259.651 34.7924C259.651 34.1881 258.885 33.4111 257.722 33.247C257.436 33.1716 257.133 33.1896 256.857 33.2982C256.581 33.4069 256.347 33.6006 256.189 33.8514C256.158 33.9134 256.143 33.9818 256.143 34.0511C256.144 34.1203 256.161 34.1883 256.193 34.2497C256.225 34.3111 256.271 34.3641 256.327 34.4044C256.383 34.4447 256.448 34.4712 256.516 34.4816Z" fill="url(#paint22_linear_586_762)"/>
<path d="M259.652 39.3857C259.652 39.3857 257.334 43.6421 257.653 43.9615C257.972 44.281 259.574 43.4003 259.574 43.4003C259.574 43.4003 259.333 44.4364 259.574 44.4364C259.815 44.4364 260.435 42.5197 260.375 42.278C260.315 42.0362 258.695 43.1413 258.695 43.1413L259.652 39.3857Z" fill="#FE746A"/>
</g>
<path d="M235.895 9.96268C235.6 8.1801 234.79 6.52333 233.565 5.19748C232.34 3.87163 230.755 2.93491 229.004 2.5033C215.829 -0.838339 202.031 -0.838339 188.856 2.5033C187.105 2.93491 185.519 3.87163 184.294 5.19748C183.069 6.52333 182.259 8.1801 181.965 9.96268C180.75 17.071 180.75 24.3346 181.965 31.443C182.259 33.2255 183.069 34.8823 184.294 36.2082C185.519 37.534 187.105 38.4707 188.856 38.9023C199.283 41.5494 210.13 42.0952 220.769 40.5082C221.389 42.4939 223.414 46.7848 229.616 49.1417L227.677 39.2045L229.004 38.9023C230.755 38.4707 232.34 37.534 233.565 36.2082C234.79 34.8823 235.6 33.2255 235.895 31.443C237.109 24.3346 237.109 17.071 235.895 9.96268Z" fill="url(#paint23_linear_586_762)"/>
<path d="M225.446 18.0351H192.826C192.577 18.0362 192.329 17.988 192.098 17.893C191.867 17.7981 191.658 17.6583 191.481 17.4819C191.304 17.3054 191.163 17.0956 191.068 16.8646C190.972 16.6336 190.923 16.3859 190.923 16.1357C190.923 15.8856 190.972 15.6379 191.068 15.4069C191.163 15.1759 191.304 14.9661 191.481 14.7896C191.658 14.6131 191.867 14.4734 192.098 14.3784C192.329 14.2835 192.577 14.2352 192.826 14.2363H225.464C225.713 14.2352 225.96 14.2835 226.191 14.3784C226.422 14.4734 226.632 14.6131 226.809 14.7896C226.986 14.9661 227.126 15.1759 227.222 15.4069C227.318 15.6379 227.367 15.8856 227.367 16.1357C227.367 16.3874 227.317 16.6365 227.22 16.8686C227.124 17.1008 226.982 17.3113 226.803 17.488C226.624 17.6647 226.412 17.8041 226.179 17.898C225.947 17.9919 225.697 18.0385 225.446 18.0351Z" fill="white"/>
<path d="M207.797 26.4353H192.826C192.323 26.4353 191.84 26.2355 191.483 25.8795C191.126 25.5236 190.925 25.0405 190.923 24.536C190.923 24.0299 191.123 23.5446 191.48 23.1868C191.837 22.829 192.321 22.6279 192.826 22.6279H207.814C208.319 22.6279 208.803 22.829 209.16 23.1868C209.517 23.5446 209.718 24.0299 209.718 24.536C209.717 24.7872 209.666 25.0358 209.569 25.2675C209.471 25.4991 209.329 25.7092 209.151 25.8857C208.973 26.0622 208.761 26.2016 208.529 26.2959C208.296 26.3902 208.048 26.4376 207.797 26.4353Z" fill="white"/>
<path d="M323.315 27.1002C323.324 27.6227 323.177 28.136 322.894 28.5747C322.61 29.0134 322.203 29.3576 321.724 29.5635C321.244 29.7695 320.715 29.8278 320.202 29.7311C319.69 29.6345 319.218 29.3871 318.846 29.0207C318.474 28.6542 318.22 28.1851 318.115 27.6732C318.01 27.1612 318.06 26.6296 318.257 26.1459C318.455 25.6622 318.791 25.2484 319.224 24.9571C319.657 24.6658 320.167 24.5102 320.688 24.5101C321.031 24.5044 321.372 24.5672 321.69 24.6948C322.009 24.8224 322.299 25.0122 322.543 25.2533C322.788 25.4944 322.982 25.7819 323.115 26.0989C323.247 26.416 323.315 26.7564 323.315 27.1002Z" fill="#003096"/>
<path d="M311.403 118.944H246.912C244.281 118.944 242.148 121.082 242.148 123.719V161.18C242.148 163.816 244.281 165.954 246.912 165.954H311.403C314.033 165.954 316.166 163.816 316.166 161.18V123.719C316.166 121.082 314.033 118.944 311.403 118.944Z" fill="#FF8895"/>
<mask id="mask1_586_762" style="mask-type:luminance" maskUnits="userSpaceOnUse" x="242" y="118" width="75" height="48">
<path d="M311.403 118.944H246.912C244.281 118.944 242.148 121.082 242.148 123.719V161.18C242.148 163.816 244.281 165.954 246.912 165.954H311.403C314.033 165.954 316.166 163.816 316.166 161.18V123.719C316.166 121.082 314.033 118.944 311.403 118.944Z" fill="white"/>
</mask>
<g mask="url(#mask1_586_762)">
<path d="M273.562 130.842C273.562 130.842 271.977 132.569 271.59 133.207C271.163 133.244 270.759 133.418 270.438 133.702C270.117 133.987 269.896 134.367 269.807 134.787C269.514 136.272 269.807 136.574 269.807 136.574C269.553 136.625 269.312 136.729 269.101 136.88C268.89 137.031 268.713 137.225 268.583 137.45C268.452 137.674 268.371 137.924 268.345 138.183C268.318 138.441 268.347 138.702 268.429 138.949C268.825 141.029 272.374 140.675 272.374 140.675L275.337 132.957L273.562 130.842Z" fill="#5A1D20"/>
<path d="M274.734 129.339L266.577 122.838L287.715 121.336L300.696 137.515L289.713 135.348L274.734 129.339Z" fill="url(#paint24_linear_586_762)"/>
<path d="M276.75 146.123C276.75 146.123 279.274 152.866 277.611 157.286C276.974 161.499 288.955 158.34 290.842 153.073C290.213 149.706 287.904 147.392 287.698 140.649C287.491 133.907 276.543 141.703 276.75 146.123Z" fill="url(#paint25_linear_586_762)"/>
<g opacity="0.32" style="mix-blend-mode:multiply">
<path d="M288.318 145.631C288.102 144.738 287.941 143.833 287.835 142.92L281.16 139.804C278.765 141.53 276.655 144.164 276.75 146.123C277.488 148.222 277.954 150.407 278.136 152.625C284.338 151.364 287.129 147.902 288.318 145.631Z" fill="#FFA26E"/>
</g>
<path d="M271.659 135.746C271.659 135.746 268.704 144.078 271.556 147.445C276.009 152.702 282.943 149.827 285.708 146.65C288.473 143.473 288.378 130.247 283.727 128.209C279.075 126.172 273.64 127.613 271.659 135.746Z" fill="url(#paint26_linear_586_762)"/>
<path d="M282.719 144.794C283.78 144.794 284.64 143.932 284.64 142.869C284.64 141.805 283.78 140.943 282.719 140.943C281.658 140.943 280.798 141.805 280.798 142.869C280.798 143.932 281.658 144.794 282.719 144.794Z" fill="#BD6356"/>
<path d="M287.241 142.618C287.241 142.618 289.515 139.363 290.85 141.159C292.185 142.954 286.742 146.209 286.595 144.69C286.561 144.319 286.601 143.945 286.711 143.589C286.822 143.233 287.002 142.903 287.241 142.618Z" fill="url(#paint27_linear_586_762)"/>
<path d="M287.784 143.801C287.784 143.801 288.921 141.712 290.368 141.712C290.773 141.349 289.601 141.479 288.964 141.979C288.326 142.48 287.336 143.387 287.784 143.801Z" fill="#5A1D20"/>
<path d="M287.741 143.438C287.741 143.438 289.102 142.1 289.791 142.575C290.161 143.101 287.439 144.431 287.741 143.438Z" fill="#5A1D20"/>
<path d="M306.803 185.06C306.174 174.898 305.562 163.701 303.03 160.593C299.033 155.697 290.488 151.804 290.488 151.804C290.488 151.804 286.13 159.082 279.54 158.365C277.74 157.044 277.981 155.602 277.981 155.602C277.344 156.292 276.62 156.895 275.828 157.398C274.51 158.262 270.436 160.403 269.118 162.682C267.474 165.571 266.646 168.854 266.723 172.179C266.723 173.854 266.646 178.87 266.525 185.069L306.803 185.06Z" fill="url(#paint28_linear_586_762)"/>
<path d="M268.851 162.26C268.851 162.26 272.296 172.827 277.947 177.947C277.947 177.947 298.034 168.709 303.693 159.152C300.368 156.147 290.264 151.252 290.264 151.252C287.709 154.25 284.24 156.322 280.393 157.149C279.407 156.772 278.582 156.064 278.059 155.146C274.677 157.081 271.579 159.475 268.851 162.26Z" fill="url(#paint29_linear_586_762)"/>
<path d="M295.915 154.213C292.332 158.227 286.147 164.34 278.895 167.923C276.94 164.738 275.263 161.39 273.881 157.917C272.821 158.694 271.801 159.523 270.823 160.403C271.866 163.166 274.269 168.881 278.059 173.259C278.059 173.259 288.232 168.709 299.455 156.242C298.301 155.499 297.052 154.809 295.915 154.213Z" fill="url(#paint30_linear_586_762)"/>
<path d="M289.713 149.524C289.713 149.524 283.641 154.946 281.057 155.784L280.393 157.148L283.718 160.601C283.718 160.601 290.127 154.679 291.212 151.761L289.713 149.524Z" fill="white"/>
<path d="M278.145 153.945C278.484 154.743 279.095 155.395 279.868 155.784L280.367 157.148L278.283 159.868C278.283 159.868 276.706 157.364 276.56 156.035C276.414 154.705 276.483 155.698 276.483 155.698L278.145 153.945Z" fill="white"/>
<path d="M273.562 130.841C280.027 130.768 286.319 132.934 291.376 136.971L292.874 131.679C292.874 131.679 290.041 126.671 279.558 125.169C275.561 124.832 275.561 125.169 275.561 125.169L273.562 130.841Z" fill="url(#paint31_linear_586_762)"/>
<path d="M280.393 137.515C280.395 137.649 280.357 137.78 280.284 137.892C280.211 138.004 280.107 138.091 279.984 138.144C279.862 138.196 279.727 138.211 279.596 138.186C279.465 138.161 279.344 138.097 279.249 138.003C279.155 137.909 279.09 137.79 279.063 137.659C279.036 137.528 279.049 137.392 279.1 137.268C279.15 137.145 279.237 137.039 279.347 136.965C279.458 136.89 279.588 136.851 279.721 136.851C279.809 136.849 279.896 136.866 279.978 136.899C280.059 136.932 280.133 136.98 280.196 137.042C280.258 137.104 280.308 137.178 280.342 137.259C280.376 137.34 280.393 137.427 280.393 137.515Z" fill="#5A1D20"/>
<path d="M274.562 136.35C274.56 136.481 274.52 136.609 274.446 136.717C274.372 136.825 274.268 136.909 274.146 136.958C274.025 137.007 273.892 137.019 273.764 136.992C273.636 136.966 273.518 136.902 273.427 136.809C273.335 136.715 273.272 136.597 273.247 136.468C273.223 136.339 273.236 136.206 273.287 136.085C273.337 135.964 273.422 135.861 273.531 135.788C273.64 135.716 273.768 135.677 273.899 135.677C273.986 135.677 274.073 135.694 274.154 135.728C274.235 135.762 274.309 135.812 274.371 135.875C274.432 135.937 274.481 136.011 274.514 136.093C274.547 136.175 274.563 136.262 274.562 136.35Z" fill="#5A1D20"/>
<path d="M273.898 142.713C275.086 142.943 276.285 143.107 277.49 143.205C277.605 143.212 277.715 143.249 277.812 143.311C277.908 143.372 277.988 143.457 278.043 143.558C278.098 143.659 278.126 143.772 278.126 143.887C278.126 144.002 278.097 144.115 278.042 144.215C277.687 144.69 277.193 145.04 276.628 145.215C276.063 145.39 275.457 145.382 274.898 145.191C274.465 145.105 274.065 144.896 273.746 144.591C273.427 144.285 273.202 143.894 273.097 143.464C273.085 143.358 273.097 143.25 273.134 143.149C273.17 143.049 273.23 142.958 273.308 142.885C273.386 142.812 273.48 142.758 273.583 142.728C273.685 142.698 273.793 142.693 273.898 142.713Z" fill="#5A1D20"/>
<path d="M277.49 143.205C276.285 143.108 275.086 142.943 273.898 142.713H273.838C273.838 142.998 273.916 143.395 274.622 143.688C275.673 144.12 276.974 143.965 277.49 143.205Z" fill="white"/>
<path d="M279.213 135.72C279.545 135.605 279.904 135.598 280.24 135.701C280.576 135.803 280.871 136.009 281.082 136.29C281.082 136.29 281.392 136.29 281.392 135.91C281.392 135.53 280.858 134.952 280.057 134.839C279.856 134.788 279.644 134.801 279.451 134.877C279.258 134.953 279.093 135.088 278.981 135.262C278.954 135.306 278.939 135.356 278.937 135.408C278.935 135.459 278.947 135.51 278.97 135.556C278.993 135.602 279.028 135.641 279.07 135.67C279.113 135.698 279.162 135.716 279.213 135.72Z" fill="#5A1D20"/>
<path d="M273.39 134.718C273.722 134.603 274.081 134.597 274.417 134.699C274.753 134.801 275.048 135.008 275.259 135.288C275.259 135.288 275.561 135.288 275.561 134.908C275.561 134.528 275.027 133.95 274.226 133.838C274.026 133.787 273.815 133.801 273.623 133.876C273.432 133.952 273.269 134.087 273.158 134.261C273.131 134.305 273.116 134.355 273.114 134.406C273.112 134.458 273.124 134.509 273.147 134.554C273.17 134.6 273.205 134.639 273.247 134.668C273.29 134.697 273.339 134.714 273.39 134.718Z" fill="#5A1D20"/>
<path d="M275.561 138.129C275.561 138.129 273.959 141.073 274.174 141.297C274.39 141.522 275.509 140.909 275.509 140.909C275.509 140.909 275.346 141.634 275.509 141.634C275.816 141.188 276.005 140.671 276.061 140.132C276.009 139.959 274.898 140.745 274.898 140.745L275.561 138.129Z" fill="#924843"/>
<path d="M285.114 133.009C285.114 133.009 286.492 134.2 285.975 135.089C285.688 135.475 285.532 135.943 285.532 136.423C285.532 136.904 285.688 137.372 285.975 137.757C286.664 138.552 285.484 139.242 285.777 140.434C286.07 141.625 286.767 141.815 286.767 141.815L287.215 142.618C287.215 142.618 288.938 139.838 290.42 140.891C290.42 140.891 291.41 141.288 290.618 142.972C290.084 143.575 289.449 144.077 288.74 144.457L288.146 144.854L288.645 146.434C288.645 146.434 291.505 148.61 293.279 146.727C295.054 144.845 293.477 143.758 293.477 143.758C293.97 143.622 294.411 143.342 294.745 142.955C295.08 142.568 295.292 142.09 295.355 141.582C295.387 141.102 295.294 140.623 295.086 140.19C294.877 139.757 294.561 139.386 294.167 139.113C294.167 139.113 294.468 138.612 293.779 137.628C293.09 136.644 291.35 136.937 291.35 136.937C289.524 135.262 287.411 133.932 285.114 133.009Z" fill="#5A1D20"/>
<path d="M285.096 129.176C284.364 128.312 283.675 127.544 283.098 126.775C280.884 123.849 282.96 121.967 283.055 121.889C283.26 121.758 283.483 121.659 283.718 121.595C283.572 121.463 283.393 121.374 283.199 121.339C283.006 121.304 282.807 121.324 282.624 121.397C282.624 121.397 279.98 123.754 282.572 127.19C283.167 127.975 283.864 128.77 284.597 129.616C286.785 132.137 289.265 134.986 288.947 137.628L289.61 137.705C289.954 134.787 287.37 131.817 285.096 129.176Z" fill="url(#paint32_linear_586_762)"/>
<path d="M288.438 139.363C288.438 139.363 287.482 136.004 289.059 135.331C290.463 134.968 290.85 139.164 290.695 139.155C290.54 139.147 290.101 140.399 288.438 139.363Z" fill="url(#paint33_linear_586_762)"/>
</g>
<path d="M301.212 108.454C301.414 107.239 301.967 106.11 302.803 105.208C303.639 104.305 304.722 103.669 305.916 103.378C314.879 101.107 324.266 101.107 333.23 103.378C334.424 103.669 335.506 104.305 336.342 105.208C337.178 106.11 337.731 107.239 337.933 108.454C338.76 113.291 338.76 118.234 337.933 123.071C337.732 124.285 337.179 125.413 336.342 126.314C335.506 127.216 334.423 127.85 333.23 128.139C326.134 129.92 318.756 130.272 311.523 129.175C311.092 130.53 309.714 133.44 305.493 135.046L306.811 128.286L305.95 128.078C304.756 127.79 303.674 127.155 302.837 126.254C302.001 125.353 301.448 124.225 301.247 123.01C300.415 118.195 300.404 113.273 301.212 108.454Z" fill="url(#paint34_linear_586_762)"/>
<path d="M320.791 107.997L321.808 111.122C321.893 111.375 322.055 111.594 322.272 111.749C322.488 111.904 322.748 111.987 323.014 111.986H326.287C326.555 111.985 326.816 112.069 327.034 112.226C327.251 112.383 327.413 112.605 327.496 112.86C327.58 113.116 327.58 113.391 327.497 113.646C327.415 113.902 327.253 114.125 327.036 114.282L324.383 116.225C324.167 116.384 324.006 116.607 323.922 116.862C323.839 117.118 323.837 117.393 323.918 117.649L324.935 120.775C325.016 121.029 325.015 121.303 324.932 121.557C324.849 121.81 324.688 122.032 324.472 122.188C324.256 122.345 323.997 122.43 323.73 122.43C323.464 122.431 323.204 122.347 322.988 122.191L320.309 120.257C320.091 120.101 319.831 120.018 319.564 120.018C319.297 120.018 319.036 120.101 318.819 120.257L316.166 122.191C315.95 122.35 315.689 122.437 315.42 122.439C315.152 122.44 314.89 122.356 314.672 122.198C314.455 122.041 314.293 121.818 314.21 121.562C314.127 121.306 314.127 121.03 314.21 120.775L315.227 117.649C315.31 117.394 315.31 117.119 315.228 116.863C315.146 116.607 314.986 116.384 314.77 116.225L312.117 114.291C311.901 114.134 311.74 113.912 311.657 113.657C311.574 113.402 311.574 113.128 311.656 112.873C311.738 112.618 311.899 112.396 312.115 112.238C312.331 112.08 312.591 111.995 312.858 111.994H316.14C316.406 111.996 316.666 111.913 316.882 111.758C317.099 111.603 317.261 111.384 317.346 111.131L318.354 108.006C318.428 107.739 318.586 107.504 318.806 107.336C319.025 107.168 319.293 107.077 319.569 107.076C319.845 107.075 320.114 107.165 320.335 107.331C320.555 107.497 320.716 107.731 320.791 107.997Z" fill="url(#paint35_linear_586_762)"/>
<path d="M324.702 168.509C324.702 169.03 324.548 169.539 324.259 169.972C323.971 170.405 323.56 170.743 323.08 170.942C322.6 171.141 322.072 171.193 321.562 171.092C321.053 170.99 320.585 170.739 320.217 170.371C319.85 170.003 319.6 169.534 319.498 169.023C319.397 168.512 319.449 167.983 319.648 167.502C319.847 167.02 320.183 166.609 320.615 166.32C321.047 166.03 321.555 165.876 322.075 165.876C322.771 165.878 323.438 166.156 323.93 166.65C324.422 167.143 324.7 167.812 324.702 168.509Z" fill="#FF8895"/>
<path d="M245.206 88.209H176.744C173.952 88.209 171.688 90.478 171.688 93.2769V133.043C171.688 135.842 173.952 138.111 176.744 138.111H245.206C247.999 138.111 250.262 135.842 250.262 133.043V93.2769C250.262 90.478 247.999 88.209 245.206 88.209Z" fill="#A4E3C2"/>
<mask id="mask2_586_762" style="mask-type:luminance" maskUnits="userSpaceOnUse" x="171" y="88" width="80" height="51">
<path d="M245.206 88.2002H176.744C173.952 88.2002 171.688 90.4692 171.688 93.2681V133.034C171.688 135.833 173.952 138.102 176.744 138.102H245.206C247.999 138.102 250.262 135.833 250.262 133.034V93.2681C250.262 90.4692 247.999 88.2002 245.206 88.2002Z" fill="white"/>
</mask>
<g mask="url(#mask2_586_762)">
<path d="M215.058 101.858C215.058 101.858 223.146 108.143 221.381 116.034C219.615 123.925 215.808 121.758 213.775 125.298C211.742 128.838 209.149 132.507 203.438 132.378C197.727 132.248 194.609 126.93 196.651 117.537C197.888 111.913 201.12 106.93 205.747 103.516C207.023 102.455 208.552 101.744 210.184 101.453C211.816 101.163 213.496 101.302 215.058 101.858Z" fill="url(#paint36_linear_586_762)"/>
<path d="M209.83 121.145C209.576 121.763 209.454 122.427 209.472 123.095C209.49 123.762 209.647 124.419 209.933 125.022C208.358 125.382 206.714 125.295 205.186 124.772C203.657 124.249 202.303 123.31 201.276 122.061C201.749 119.736 201.749 117.34 201.276 115.016L209.83 121.145Z" fill="url(#paint37_linear_586_762)"/>
<path d="M213.852 100.313L222.268 93.5962L200.458 92.0508L187.064 108.748L198.399 106.503L213.852 100.313Z" fill="url(#paint38_linear_586_762)"/>
<path d="M217.022 106.909C217.022 106.909 220.071 115.542 217.125 118.996C212.534 124.418 205.385 121.456 202.525 118.176C199.665 114.895 199.769 101.288 204.567 99.1387C209.365 96.9889 214.981 98.5171 217.022 106.909Z" fill="url(#paint39_linear_586_762)"/>
<path d="M203.636 114.256C203.635 114.649 203.75 115.034 203.966 115.362C204.183 115.69 204.492 115.945 204.854 116.097C205.215 116.249 205.614 116.289 205.999 116.214C206.384 116.138 206.738 115.95 207.015 115.672C207.293 115.395 207.483 115.041 207.56 114.656C207.637 114.27 207.598 113.87 207.449 113.507C207.299 113.144 207.045 112.833 206.719 112.615C206.393 112.396 206.01 112.279 205.618 112.279C205.094 112.279 204.591 112.487 204.22 112.858C203.849 113.228 203.639 113.731 203.636 114.256Z" fill="#FE746A"/>
<path d="M200.949 114.006C200.949 114.006 198.598 110.647 197.228 112.504C195.858 114.36 201.466 117.684 201.621 116.147C201.655 115.763 201.613 115.377 201.498 115.009C201.383 114.642 201.196 114.301 200.949 114.006Z" fill="url(#paint40_linear_586_762)"/>
<path d="M200.389 115.224C200.389 115.224 199.218 113.065 197.719 113.065C197.297 112.694 198.52 112.832 199.166 113.35C199.812 113.868 200.854 114.8 200.389 115.224Z" fill="#FF7D5A"/>
<path d="M200.432 114.852C200.432 114.852 199.028 113.47 198.313 113.988C197.994 114.498 200.742 115.879 200.432 114.852Z" fill="#FF7D5A"/>
<path d="M181.379 156.475C182.025 145.985 182.654 134.433 185.272 131.221C189.389 126.179 198.193 122.156 198.193 122.156C198.193 122.156 202.689 129.667 209.485 128.925C211.337 127.561 211.096 126.076 211.096 126.076C211.753 126.789 212.5 127.413 213.318 127.932C214.679 128.795 218.883 131.032 220.209 133.389C221.906 136.363 222.761 139.745 222.681 143.17C222.681 144.897 222.759 150.077 222.879 156.475H181.379Z" fill="url(#paint41_linear_586_762)"/>
<path d="M220.537 132.948C220.537 132.948 216.988 143.852 211.148 149.127C211.148 149.127 190.423 139.63 184.583 129.736C188.028 126.637 198.434 121.586 198.434 121.586C201.076 124.668 204.657 126.792 208.624 127.629C209.643 127.248 210.495 126.517 211.027 125.566C214.524 127.572 217.724 130.056 220.537 132.948Z" fill="url(#paint42_linear_586_762)"/>
<path d="M192.611 124.6C196.306 128.744 202.689 135.046 210.174 138.741C212.193 135.444 213.922 131.978 215.343 128.381C216.342 129.115 217.418 129.97 218.504 130.971C217.427 133.829 214.912 139.726 211.027 144.241C211.027 144.241 200.536 139.553 188.959 126.68C190.147 125.972 191.405 125.256 192.611 124.6Z" fill="url(#paint43_linear_586_762)"/>
<path d="M208.701 109.439C209.082 109.439 209.39 109.13 209.39 108.748C209.39 108.367 209.082 108.058 208.701 108.058C208.321 108.058 208.012 108.367 208.012 108.748C208.012 109.13 208.321 109.439 208.701 109.439Z" fill="url(#paint44_linear_586_762)"/>
<path d="M214.025 107.539C214.025 107.723 214.097 107.898 214.226 108.028C214.356 108.157 214.531 108.23 214.714 108.23C214.897 108.23 215.072 108.157 215.201 108.028C215.33 107.898 215.403 107.723 215.403 107.539C215.403 107.356 215.33 107.18 215.201 107.051C215.072 106.921 214.897 106.849 214.714 106.849C214.531 106.849 214.356 106.921 214.226 107.051C214.097 107.18 214.025 107.356 214.025 107.539Z" fill="url(#paint45_linear_586_762)"/>
<path d="M214.714 114.101C213.487 114.343 212.247 114.513 211.001 114.61C210.883 114.618 210.769 114.656 210.669 114.72C210.57 114.784 210.488 114.873 210.432 114.977C210.376 115.082 210.348 115.199 210.349 115.317C210.351 115.436 210.383 115.552 210.441 115.655C210.806 116.144 211.316 116.505 211.898 116.685C212.48 116.865 213.104 116.855 213.68 116.657C214.121 116.575 214.531 116.369 214.86 116.064C215.19 115.758 215.426 115.365 215.541 114.93C215.565 114.816 215.56 114.698 215.527 114.586C215.494 114.475 215.433 114.373 215.351 114.291C215.269 114.208 215.168 114.148 215.056 114.115C214.945 114.082 214.827 114.077 214.714 114.101Z" fill="url(#paint46_linear_586_762)"/>
<path d="M211.01 114.61C212.253 114.512 213.49 114.342 214.714 114.101H214.783C214.783 114.394 214.696 114.809 213.973 115.111C212.879 115.56 211.544 115.361 211.01 114.61Z" fill="white"/>
<path d="M209.192 106.883C208.849 106.767 208.478 106.761 208.131 106.868C207.785 106.975 207.481 107.189 207.263 107.479C207.263 107.479 206.953 107.479 206.953 107.082C206.953 106.685 207.504 106.098 208.331 105.977C208.537 105.924 208.755 105.938 208.954 106.017C209.152 106.096 209.32 106.236 209.433 106.417C209.433 106.417 209.666 106.771 209.192 106.883Z" fill="url(#paint47_linear_586_762)"/>
<path d="M215.222 105.864C214.88 105.746 214.509 105.74 214.163 105.845C213.816 105.95 213.512 106.163 213.293 106.451C213.293 106.451 212.982 106.494 212.982 106.063C212.982 105.631 213.534 105.07 214.361 104.958C214.566 104.904 214.784 104.917 214.982 104.994C215.18 105.072 215.348 105.21 215.463 105.389C215.463 105.389 215.679 105.735 215.222 105.864Z" fill="url(#paint48_linear_586_762)"/>
<path d="M213 109.37C213 109.37 214.653 112.409 214.429 112.642C214.205 112.875 213.051 112.245 213.051 112.245C213.051 112.245 213.224 112.988 213.051 112.988C212.879 112.988 212.422 111.606 212.483 111.434C212.543 111.261 213.68 112.072 213.68 112.072L213 109.37Z" fill="#FE746A"/>
<path d="M209.528 123.494C209.528 123.494 204.438 124.548 201.483 120.257L198.038 121.448C197.65 121.794 198.813 130.367 202.827 130.738C203.884 130.903 204.966 130.753 205.939 130.306C206.911 129.86 207.731 129.136 208.297 128.226C208.297 128.226 211.69 131.152 212.81 129.521C213.93 127.889 212.405 126.067 212.405 126.067L209.528 123.494Z" fill="white"/>
<path d="M209.192 101.85C208.175 102.245 207.265 102.877 206.539 103.693C205.813 104.51 205.29 105.488 205.015 106.546C203.895 110.319 207.159 112.469 204.61 115.629C202.06 118.789 201.044 118.901 200.742 122.674C200.441 126.447 198.158 129.581 193.713 129.417C189.269 129.252 184.54 123.692 186.581 118.694C188.623 113.695 192.085 113.384 194.334 111.243C195.591 110.178 196.493 108.753 196.918 107.159C196.918 107.159 199.037 102.765 209.192 101.85Z" fill="url(#paint49_linear_586_762)"/>
<path d="M215.058 101.859C208.388 101.781 201.895 104.013 196.677 108.178L195.135 102.713C195.135 102.713 198.055 97.5332 208.874 96.005C213 95.6597 213 96.005 213 96.005L215.058 101.859Z" fill="url(#paint50_linear_586_762)"/>
<path d="M203.163 100.158C203.912 99.2945 204.627 98.4829 205.221 97.6886C207.504 94.6669 205.368 92.7243 205.273 92.6466C205.06 92.5114 204.828 92.4095 204.584 92.3444C204.733 92.2059 204.918 92.1128 205.118 92.0761C205.318 92.0394 205.524 92.0606 205.712 92.1372C205.712 92.1372 208.443 94.5719 205.764 98.1117C205.152 98.9232 204.429 99.7434 203.671 100.624C201.414 103.214 198.856 106.158 199.192 108.878L198.503 108.964C198.15 105.925 200.811 102.86 203.163 100.158Z" fill="url(#paint51_linear_586_762)"/>
<path d="M199.717 110.648C199.717 110.648 200.708 107.194 199.08 106.486C197.633 106.115 197.228 110.441 197.357 110.432C197.486 110.423 197.994 111.675 199.717 110.648Z" fill="url(#paint52_linear_586_762)"/>
</g>
<path d="M227.763 91.8693C227.965 90.6543 228.518 89.5255 229.354 88.6229C230.19 87.7204 231.273 87.084 232.467 86.7927C241.43 84.5222 250.817 84.5222 259.781 86.7927C260.974 87.086 262.055 87.7231 262.89 88.6252C263.726 89.5274 264.28 90.6552 264.484 91.8693C265.311 96.7062 265.311 101.649 264.484 106.486C264.282 107.7 263.728 108.827 262.892 109.728C262.056 110.629 260.974 111.264 259.781 111.554C252.687 113.361 245.305 113.733 238.065 112.65C237.643 114.006 236.265 116.915 232.036 118.521L233.362 111.761L232.458 111.554C231.264 111.265 230.182 110.631 229.345 109.729C228.509 108.828 227.956 107.7 227.755 106.486C226.931 101.648 226.934 96.7057 227.763 91.8693Z" fill="url(#paint53_linear_586_762)"/>
<path d="M249.815 92.9571C248.976 92.9525 248.162 93.2359 247.506 93.76C246.95 94.2069 246.49 94.7619 246.154 95.3917C245.818 94.7619 245.357 94.2069 244.801 93.76C244.145 93.2371 243.331 92.9539 242.493 92.9571C241.921 92.9688 241.357 93.0963 240.835 93.3319C240.314 93.5675 239.845 93.9063 239.457 94.328C239.069 94.7498 238.771 95.2457 238.579 95.786C238.387 96.3264 238.306 96.9 238.341 97.4724C238.341 100.252 240.564 102.152 243.94 105.027L245.835 106.659C245.923 106.736 246.036 106.779 246.154 106.779C246.271 106.779 246.384 106.736 246.473 106.659L248.368 105.027C251.735 102.152 253.966 100.252 253.966 97.4724C254.001 96.9 253.921 96.3264 253.729 95.786C253.537 95.2457 253.238 94.7498 252.85 94.328C252.463 93.9063 251.994 93.5675 251.472 93.3319C250.951 93.0963 250.387 92.9688 249.815 92.9571Z" fill="white"/>
<path d="M178.674 80.0754C178.674 80.5877 178.523 81.0884 178.239 81.5144C177.955 81.9403 177.551 82.2723 177.079 82.4683C176.607 82.6644 176.087 82.7156 175.586 82.6157C175.085 82.5158 174.624 82.2691 174.263 81.9069C173.901 81.5446 173.655 81.0831 173.556 80.5807C173.456 80.0783 173.507 79.5575 173.703 79.0842C173.898 78.611 174.229 78.2065 174.654 77.9219C175.079 77.6373 175.579 77.4854 176.09 77.4854C176.775 77.4854 177.433 77.7582 177.917 78.244C178.402 78.7297 178.674 79.3885 178.674 80.0754Z" fill="#A4E3C2"/>
</g>
<defs>
<linearGradient id="paint0_linear_586_762" x1="55.7134" y1="110.906" x2="284.287" y2="110.906" gradientUnits="userSpaceOnUse">
<stop stop-color="#6060E7"/>
<stop offset="1" stop-color="#8182EE"/>
</linearGradient>
<linearGradient id="paint1_linear_586_762" x1="-22.921" y1="393.215" x2="296.505" y2="138.267" gradientUnits="userSpaceOnUse">
<stop stop-color="#003096"/>
<stop offset="1" stop-color="#6164A1"/>
</linearGradient>
<linearGradient id="paint2_linear_586_762" x1="-31.0093" y1="383.079" x2="288.416" y2="128.122" gradientUnits="userSpaceOnUse">
<stop stop-color="#434A5B"/>
<stop offset="1" stop-color="#6164A1"/>
</linearGradient>
<linearGradient id="paint3_linear_586_762" x1="102.864" y1="24.8959" x2="125.348" y2="79.6481" gradientUnits="userSpaceOnUse">
<stop stop-color="#FF8D02"/>
<stop offset="1" stop-color="#FFC757"/>
</linearGradient>
<linearGradient id="paint4_linear_586_762" x1="132.444" y1="116.932" x2="140.076" y2="162.581" gradientUnits="userSpaceOnUse">
<stop stop-color="#FF8D02"/>
<stop offset="1" stop-color="#FFC757"/>
</linearGradient>
<linearGradient id="paint5_linear_586_762" x1="119.498" y1="86.5079" x2="157.262" y2="178.455" gradientUnits="userSpaceOnUse">
<stop stop-color="#FF3843"/>
<stop offset="1" stop-color="#FF8457"/>
</linearGradient>
<linearGradient id="paint6_linear_586_762" x1="139.034" y1="135.814" x2="132.175" y2="115.276" gradientUnits="userSpaceOnUse">
<stop stop-color="#FF8D02"/>
<stop offset="1" stop-color="#FFC757"/>
</linearGradient>
<linearGradient id="paint7_linear_586_762" x1="257.576" y1="45.4116" x2="277.089" y2="20.6683" gradientUnits="userSpaceOnUse">
<stop stop-color="#434A5B"/>
<stop offset="1" stop-color="#6164A1"/>
</linearGradient>
<linearGradient id="paint8_linear_586_762" x1="275.914" y1="66.1234" x2="268.013" y2="51.5652" gradientUnits="userSpaceOnUse">
<stop stop-color="#FFB58E"/>
<stop offset="0.33" stop-color="#FEB38B"/>
<stop offset="0.59" stop-color="#FCAD81"/>
<stop offset="0.83" stop-color="#F9A370"/>
<stop offset="1" stop-color="#F5985F"/>
</linearGradient>
<linearGradient id="paint9_linear_586_762" x1="261.857" y1="28.6798" x2="267.238" y2="56.3198" gradientUnits="userSpaceOnUse">
<stop stop-color="#FFB58E"/>
<stop offset="0.33" stop-color="#FEB38B"/>
<stop offset="0.59" stop-color="#FCAD81"/>
<stop offset="0.83" stop-color="#F9A370"/>
<stop offset="1" stop-color="#F5985F"/>
</linearGradient>
<linearGradient id="paint10_linear_586_762" x1="275.518" y1="29.906" x2="279.697" y2="51.3568" gradientUnits="userSpaceOnUse">
<stop stop-color="#FFB58E"/>
<stop offset="0.33" stop-color="#FEB38B"/>
<stop offset="0.59" stop-color="#FCAD81"/>
<stop offset="0.83" stop-color="#F9A370"/>
<stop offset="1" stop-color="#F5985F"/>
</linearGradient>
<linearGradient id="paint11_linear_586_762" x1="320.74" y1="150.327" x2="264.401" y2="78.8895" gradientUnits="userSpaceOnUse">
<stop stop-color="#434A5B"/>
<stop offset="1" stop-color="#6164A1"/>
</linearGradient>
<linearGradient id="paint12_linear_586_762" x1="249.97" y1="77.5625" x2="300.205" y2="77.5625" gradientUnits="userSpaceOnUse">
<stop stop-color="#FF8D02"/>
<stop offset="1" stop-color="#FFC757"/>
</linearGradient>
<linearGradient id="paint13_linear_586_762" x1="252.812" y1="76.2596" x2="294.098" y2="76.2596" gradientUnits="userSpaceOnUse">
<stop stop-color="#9A2802"/>
<stop offset="1" stop-color="#FF5057"/>
</linearGradient>
<linearGradient id="paint14_linear_586_762" x1="275.88" y1="29.5081" x2="281.667" y2="53.797" gradientUnits="userSpaceOnUse">
<stop stop-color="#B62C01"/>
<stop offset="1" stop-color="#7C0C0A"/>
</linearGradient>
<linearGradient id="paint15_linear_586_762" x1="270.918" y1="27.9547" x2="268.028" y2="47.4387" gradientUnits="userSpaceOnUse">
<stop stop-color="#434A5B"/>
<stop offset="1" stop-color="#6164A1"/>
</linearGradient>
<linearGradient id="paint16_linear_586_762" x1="275.897" y1="15.9889" x2="272.661" y2="37.7692" gradientUnits="userSpaceOnUse">
<stop stop-color="#434A5B"/>
<stop offset="1" stop-color="#6164A1"/>
</linearGradient>
<linearGradient id="paint17_linear_586_762" x1="277.786" y1="38.4281" x2="281.614" y2="38.6103" gradientUnits="userSpaceOnUse">
<stop stop-color="#FF8D02"/>
<stop offset="1" stop-color="#FFC757"/>
</linearGradient>
<linearGradient id="paint18_linear_586_762" x1="268.713" y1="27.4968" x2="264.215" y2="43.6102" gradientUnits="userSpaceOnUse">
<stop stop-color="#434A5B"/>
<stop offset="1" stop-color="#6164A1"/>
</linearGradient>
<linearGradient id="paint19_linear_586_762" x1="260.487" y1="25.2002" x2="255.989" y2="41.3137" gradientUnits="userSpaceOnUse">
<stop stop-color="#434A5B"/>
<stop offset="1" stop-color="#6164A1"/>
</linearGradient>
<linearGradient id="paint20_linear_586_762" x1="261.667" y1="53.3891" x2="257.688" y2="41.1262" gradientUnits="userSpaceOnUse">
<stop stop-color="#9A2802"/>
<stop offset="1" stop-color="#FF5057"/>
</linearGradient>
<linearGradient id="paint21_linear_586_762" x1="266.206" y1="32.2114" x2="266.371" y2="39.3859" gradientUnits="userSpaceOnUse">
<stop stop-color="#434A5B"/>
<stop offset="1" stop-color="#6164A1"/>
</linearGradient>
<linearGradient id="paint22_linear_586_762" x1="257.8" y1="30.7692" x2="257.973" y2="37.9437" gradientUnits="userSpaceOnUse">
<stop stop-color="#434A5B"/>
<stop offset="1" stop-color="#6164A1"/>
</linearGradient>
<linearGradient id="paint23_linear_586_762" x1="223.62" y1="61.4877" x2="199.897" y2="-4.10966" gradientUnits="userSpaceOnUse">
<stop stop-color="#FF8D02"/>
<stop offset="1" stop-color="#FFC757"/>
</linearGradient>
<linearGradient id="paint24_linear_586_762" x1="274.123" y1="142.298" x2="287.659" y2="125.139" gradientUnits="userSpaceOnUse">
<stop stop-color="#434A5B"/>
<stop offset="1" stop-color="#6164A1"/>
</linearGradient>
<linearGradient id="paint25_linear_586_762" x1="286.845" y1="156.665" x2="281.364" y2="146.565" gradientUnits="userSpaceOnUse">
<stop stop-color="#B6614A"/>
<stop offset="0.32" stop-color="#B35F47"/>
<stop offset="0.57" stop-color="#A9593D"/>
<stop offset="0.8" stop-color="#984E2D"/>
<stop offset="1" stop-color="#834119"/>
</linearGradient>
<linearGradient id="paint26_linear_586_762" x1="277.094" y1="130.696" x2="280.823" y2="149.859" gradientUnits="userSpaceOnUse">
<stop stop-color="#B6614A"/>
<stop offset="0.32" stop-color="#B35F47"/>
<stop offset="0.57" stop-color="#A9593D"/>
<stop offset="0.8" stop-color="#984E2D"/>
<stop offset="1" stop-color="#834119"/>
</linearGradient>
<linearGradient id="paint27_linear_586_762" x1="286.569" y1="131.541" x2="289.468" y2="146.423" gradientUnits="userSpaceOnUse">
<stop stop-color="#B6614A"/>
<stop offset="0.32" stop-color="#B35F47"/>
<stop offset="0.57" stop-color="#A9593D"/>
<stop offset="0.8" stop-color="#984E2D"/>
<stop offset="1" stop-color="#834119"/>
</linearGradient>
<linearGradient id="paint28_linear_586_762" x1="317.932" y1="215.07" x2="278.852" y2="165.515" gradientUnits="userSpaceOnUse">
<stop stop-color="#434A5B"/>
<stop offset="1" stop-color="#6164A1"/>
</linearGradient>
<linearGradient id="paint29_linear_586_762" x1="268.851" y1="164.599" x2="303.693" y2="164.599" gradientUnits="userSpaceOnUse">
<stop stop-color="#FF8D02"/>
<stop offset="1" stop-color="#FFC757"/>
</linearGradient>
<linearGradient id="paint30_linear_586_762" x1="270.823" y1="163.693" x2="299.455" y2="163.693" gradientUnits="userSpaceOnUse">
<stop stop-color="#9A2802"/>
<stop offset="1" stop-color="#FF5057"/>
</linearGradient>
<linearGradient id="paint31_linear_586_762" x1="283.382" y1="130.194" x2="281.375" y2="143.704" gradientUnits="userSpaceOnUse">
<stop stop-color="#434A5B"/>
<stop offset="1" stop-color="#6164A1"/>
</linearGradient>
<linearGradient id="paint32_linear_586_762" x1="286.828" y1="121.889" x2="284.587" y2="136.996" gradientUnits="userSpaceOnUse">
<stop stop-color="#434A5B"/>
<stop offset="1" stop-color="#6164A1"/>
</linearGradient>
<linearGradient id="paint33_linear_586_762" x1="288.149" y1="137.441" x2="290.799" y2="137.567" gradientUnits="userSpaceOnUse">
<stop stop-color="#FF8D02"/>
<stop offset="1" stop-color="#FFC757"/>
</linearGradient>
<linearGradient id="paint34_linear_586_762" x1="309.585" y1="143.472" x2="325.724" y2="98.8516" gradientUnits="userSpaceOnUse">
<stop stop-color="#6060E7"/>
<stop offset="1" stop-color="#8182EE"/>
</linearGradient>
<linearGradient id="paint35_linear_586_762" x1="311.618" y1="114.774" x2="327.562" y2="114.774" gradientUnits="userSpaceOnUse">
<stop stop-color="#FF8D02"/>
<stop offset="1" stop-color="#FFC757"/>
</linearGradient>
<linearGradient id="paint36_linear_586_762" x1="213.714" y1="96.9628" x2="201.499" y2="148.242" gradientUnits="userSpaceOnUse">
<stop stop-color="#C56B01"/>
<stop offset="1" stop-color="#B32C0A"/>
</linearGradient>
<linearGradient id="paint37_linear_586_762" x1="209.933" y1="120.135" x2="201.276" y2="120.135" gradientUnits="userSpaceOnUse">
<stop stop-color="#FFB58E"/>
<stop offset="0.33" stop-color="#FEB38B"/>
<stop offset="0.59" stop-color="#FCAD81"/>
<stop offset="0.83" stop-color="#F9A370"/>
<stop offset="1" stop-color="#F5985F"/>
</linearGradient>
<linearGradient id="paint38_linear_586_762" x1="214.481" y1="113.669" x2="200.522" y2="95.9671" gradientUnits="userSpaceOnUse">
<stop stop-color="#434A5B"/>
<stop offset="1" stop-color="#6164A1"/>
</linearGradient>
<linearGradient id="paint39_linear_586_762" x1="211.423" y1="101.703" x2="207.564" y2="121.479" gradientUnits="userSpaceOnUse">
<stop stop-color="#FFB58E"/>
<stop offset="0.33" stop-color="#FEB38B"/>
<stop offset="0.59" stop-color="#FCAD81"/>
<stop offset="0.83" stop-color="#F9A370"/>
<stop offset="1" stop-color="#F5985F"/>
</linearGradient>
<linearGradient id="paint40_linear_586_762" x1="201.638" y1="102.575" x2="198.653" y2="117.932" gradientUnits="userSpaceOnUse">
<stop stop-color="#FFB58E"/>
<stop offset="0.33" stop-color="#FEB38B"/>
<stop offset="0.59" stop-color="#FCAD81"/>
<stop offset="0.83" stop-color="#F9A370"/>
<stop offset="1" stop-color="#F5985F"/>
</linearGradient>
<linearGradient id="paint41_linear_586_762" x1="169.888" y1="187.435" x2="210.211" y2="136.311" gradientUnits="userSpaceOnUse">
<stop stop-color="#434A5B"/>
<stop offset="1" stop-color="#6164A1"/>
</linearGradient>
<linearGradient id="paint42_linear_586_762" x1="220.537" y1="135.356" x2="184.583" y2="135.356" gradientUnits="userSpaceOnUse">
<stop stop-color="#FF8D02"/>
<stop offset="1" stop-color="#FFC757"/>
</linearGradient>
<linearGradient id="paint43_linear_586_762" x1="218.504" y1="134.425" x2="188.959" y2="134.425" gradientUnits="userSpaceOnUse">
<stop stop-color="#9A2802"/>
<stop offset="1" stop-color="#FF5057"/>
</linearGradient>
<linearGradient id="paint44_linear_586_762" x1="206.513" y1="100.857" x2="209.731" y2="112.379" gradientUnits="userSpaceOnUse">
<stop stop-color="#434A5B"/>
<stop offset="1" stop-color="#6164A1"/>
</linearGradient>
<linearGradient id="paint45_linear_586_762" x1="212.397" y1="99.2079" x2="215.615" y2="110.739" gradientUnits="userSpaceOnUse">
<stop stop-color="#434A5B"/>
<stop offset="1" stop-color="#6164A1"/>
</linearGradient>
<linearGradient id="paint46_linear_586_762" x1="211.552" y1="119.385" x2="214.398" y2="110.608" gradientUnits="userSpaceOnUse">
<stop stop-color="#9A2802"/>
<stop offset="1" stop-color="#FF5057"/>
</linearGradient>
<linearGradient id="paint47_linear_586_762" x1="208.305" y1="104.233" x2="208.192" y2="109.361" gradientUnits="userSpaceOnUse">
<stop stop-color="#434A5B"/>
<stop offset="1" stop-color="#6164A1"/>
</linearGradient>
<linearGradient id="paint48_linear_586_762" x1="214.318" y1="103.196" x2="214.196" y2="108.325" gradientUnits="userSpaceOnUse">
<stop stop-color="#434A5B"/>
<stop offset="1" stop-color="#6164A1"/>
</linearGradient>
<linearGradient id="paint49_linear_586_762" x1="201.311" y1="95.7543" x2="189.9" y2="143.693" gradientUnits="userSpaceOnUse">
<stop stop-color="#C56B01"/>
<stop offset="1" stop-color="#B32C0A"/>
</linearGradient>
<linearGradient id="paint50_linear_586_762" x1="204.929" y1="101.185" x2="207.005" y2="115.127" gradientUnits="userSpaceOnUse">
<stop stop-color="#434A5B"/>
<stop offset="1" stop-color="#6164A1"/>
</linearGradient>
<linearGradient id="paint51_linear_586_762" x1="201.371" y1="92.6207" x2="203.69" y2="108.203" gradientUnits="userSpaceOnUse">
<stop stop-color="#434A5B"/>
<stop offset="1" stop-color="#6164A1"/>
</linearGradient>
<linearGradient id="paint52_linear_586_762" x1="200.181" y1="109.491" x2="197.442" y2="109.628" gradientUnits="userSpaceOnUse">
<stop stop-color="#FF8D02"/>
<stop offset="1" stop-color="#FFC757"/>
</linearGradient>
<linearGradient id="paint53_linear_586_762" x1="236.136" y1="126.921" x2="252.275" y2="82.3011" gradientUnits="userSpaceOnUse">
<stop stop-color="#FF3843"/>
<stop offset="1" stop-color="#FF8457"/>
</linearGradient>
<clipPath id="clip0_586_762">
<rect width="340" height="272" fill="white"/>
</clipPath>
</defs>
</svg>
