<svg width="287" height="313" viewBox="0 0 287 313" fill="none" xmlns="http://www.w3.org/2000/svg">
<g clip-path="url(#clip0_586_1208)">
<path d="M207.22 308.089H125.3C124.467 308.09 123.641 307.927 122.871 307.609C122.1 307.291 121.4 306.825 120.81 306.236C120.221 305.647 119.753 304.948 119.434 304.178C119.114 303.408 118.95 302.583 118.95 301.749V285.749C118.95 284.916 119.114 284.091 119.434 283.321C119.753 282.551 120.221 281.851 120.81 281.263C121.4 280.674 122.1 280.207 122.871 279.889C123.641 279.571 124.467 279.408 125.3 279.409H207.18L206.44 281.409C203.221 290.066 203.5 299.636 207.22 308.089Z" fill="#DDF1FA"/>
<path d="M16.41 275.149C13.3612 275.094 10.4017 276.18 8.11292 278.195C5.82413 280.21 4.37138 283.008 4.04 286.04C3.77 289.13 3.63 292.5 3.63 296.04C3.63 297.78 3.63 299.479 3.73 301.129C3.92022 304.277 5.31792 307.23 7.63176 309.372C9.9456 311.515 12.997 312.682 16.15 312.629H216.08V308.099H125.65C123.885 308.1 122.193 307.399 120.944 306.152C119.695 304.906 118.993 303.214 118.99 301.45V286.069C118.993 284.305 119.695 282.613 120.944 281.367C122.193 280.12 123.885 279.419 125.65 279.419H216.08V275.149H16.41Z" fill="#003096"/>
<path d="M148.98 293.31H138.61V294.45H148.98V293.31Z" fill="#008EF8"/>
<path d="M157.61 299.55H147.24V300.69H157.61V299.55Z" fill="#008EF8"/>
<path d="M181.05 299.55H170.68V300.69H181.05V299.55Z" fill="#008EF8"/>
<path d="M181.83 294.14H165.97V295.28H181.83V294.14Z" fill="#008EF8"/>
<path d="M156.92 284.55H141.06V285.69H156.92V284.55Z" fill="#008EF8"/>
<path d="M101.22 285.119H11.86V300.119H101.22V285.119Z" fill="#008EF8"/>
<path d="M193.89 270.87H127.1C125.315 270.87 123.603 270.161 122.341 268.899C121.079 267.637 120.37 265.925 120.37 264.14V253.69C120.37 252.806 120.544 251.931 120.882 251.115C121.22 250.298 121.716 249.556 122.341 248.931C122.966 248.306 123.708 247.81 124.525 247.472C125.341 247.134 126.216 246.96 127.1 246.96H193.89L193.56 247.8C190.686 255.244 190.804 263.511 193.89 270.87Z" fill="#DDF1FA"/>
<path d="M8.55 242.31C3.82 242.31 0 247.56 0 254.03V263.78C0 270.25 3.82 275.49 8.55 275.49H202.43V270.86H127.22C125.403 270.86 123.661 270.138 122.376 268.853C121.092 267.569 120.37 265.826 120.37 264.01V253.81C120.37 252.91 120.547 252.019 120.891 251.188C121.236 250.357 121.74 249.602 122.376 248.966C123.012 248.33 123.768 247.825 124.599 247.481C125.43 247.137 126.32 246.96 127.22 246.96H202.43V242.31H8.55Z" fill="#FFCD52"/>
<path d="M28.3 275.509C23.58 275.509 19.75 270.269 19.75 263.799V254.039C19.75 247.569 23.58 242.329 28.3 242.329H35.67C30.95 242.329 27.12 247.569 27.12 254.039V263.799C27.12 270.269 30.95 275.509 35.67 275.509H28.3Z" fill="#FF9A78"/>
<path d="M96.3 275.509C91.58 275.509 87.75 270.269 87.75 263.799V254.039C87.75 247.569 91.58 242.329 96.3 242.329H103.67C98.94 242.329 95.12 247.569 95.12 254.039V263.799C95.12 270.269 98.94 275.509 103.67 275.509H96.3Z" fill="#FF9A78"/>
<path d="M165.18 258.83H131.46V259.97H165.18V258.83Z" fill="#008EF8"/>
<path d="M154.61 254H140.2V255.14H154.61V254Z" fill="#008EF8"/>
<path d="M176.45 254.72H165.97V255.86H176.45V254.72Z" fill="#008EF8"/>
<path d="M105.51 237.67H9.92004C12.6748 232.714 14.1205 227.139 14.1205 221.47C14.1205 215.8 12.6748 210.225 9.92004 205.27H105.51C107.295 205.27 109.007 205.979 110.269 207.241C111.531 208.503 112.24 210.215 112.24 212V230.94C112.24 232.724 111.531 234.436 110.269 235.698C109.007 236.96 107.295 237.67 105.51 237.67Z" fill="#DDF1FA"/>
<path d="M78.3999 218.56H43.9399V219.7H78.3999V218.56Z" fill="#008EF8"/>
<path d="M89.5299 231.189H55.0699V232.329H89.5299V231.189Z" fill="#008EF8"/>
<path d="M36.8 222.97H27.16V224.11H36.8V222.97Z" fill="#008EF8"/>
<path d="M89.53 209.06H79.89V210.2H89.53V209.06Z" fill="#008EF8"/>
<path d="M21.89 216.359H17.86V217.499H21.89V216.359Z" fill="#008EF8"/>
<path d="M97.18 222.97H93.15V224.11H97.18V222.97Z" fill="#008EF8"/>
<path d="M201.3 200.63H3.14001V205.31H105.3C107.148 205.323 108.916 206.066 110.217 207.378C111.519 208.689 112.25 210.462 112.25 212.31V230.81C112.237 232.649 111.5 234.409 110.2 235.71C108.899 237.01 107.139 237.747 105.3 237.76H3.14001V242.31H201.3C206.13 242.31 210.04 235.72 210.04 227.6V215.31C210 207.22 206.09 200.63 201.3 200.63Z" fill="#912039"/>
<path d="M70.82 219.13C68.16 219.13 66.01 225.34 66.01 232.99V252.36L57.39 247.36L49.62 252.36V232.99C49.62 225.34 51.77 219.13 54.42 219.13H70.82Z" fill="#912039"/>
<path d="M206.04 100.31L201.75 98.5404L236.98 12.6304C237.08 12.3333 237.24 12.0595 237.449 11.8257C237.658 11.5919 237.912 11.4029 238.196 11.2701C238.48 11.1373 238.788 11.0635 239.101 11.053C239.415 11.0426 239.727 11.0959 240.019 11.2095C240.312 11.3232 240.578 11.4949 240.802 11.7143C241.026 11.9337 241.203 12.1963 241.323 12.4861C241.442 12.7759 241.502 13.087 241.498 13.4006C241.494 13.7141 241.427 14.0236 241.3 14.3104L206.04 100.31Z" fill="#912039"/>
<path d="M246.581 83.3855C261.077 68.8892 261.077 45.3862 246.581 30.8899C232.084 16.3936 208.581 16.3936 194.085 30.8899C179.589 45.3862 179.589 68.8892 194.085 83.3855C208.581 97.8818 232.084 97.8818 246.581 83.3855Z" fill="#008EF8"/>
<path d="M220.3 103.481C214.368 103.492 208.49 102.355 202.99 100.131C202.444 99.8742 202.017 99.417 201.798 98.8541C201.58 98.2912 201.586 97.6657 201.816 97.1075C202.047 96.5493 202.483 96.1011 203.035 95.8559C203.587 95.6108 204.212 95.5874 204.78 95.7908C209.711 97.7836 214.982 98.8024 220.3 98.7908C229.852 98.81 239.12 95.5455 246.552 89.5444C253.983 83.5432 259.126 75.1701 261.118 65.8283C263.11 56.4865 261.831 46.7438 257.495 38.2329C253.159 29.722 246.029 22.9603 237.3 19.0808L239.21 14.8008C248.918 19.119 256.847 26.6419 261.669 36.1094C266.491 45.5769 267.913 56.4139 265.697 66.805C263.482 77.1962 257.762 86.5103 249.498 93.1872C241.233 99.8641 230.925 103.498 220.3 103.481Z" fill="#912039"/>
<path d="M207.14 29.1704L199.72 36.5903C199.285 37.0247 198.989 37.5781 198.869 38.1807C198.748 38.7833 198.809 39.408 199.043 39.9761C199.277 40.5442 199.675 41.0302 200.185 41.3726C200.695 41.7151 201.296 41.8987 201.91 41.9003H202.3C202.671 41.8977 203.039 41.9688 203.382 42.1096C203.726 42.2503 204.038 42.458 204.3 42.7204C204.83 43.251 205.128 43.9703 205.128 44.7204C205.128 45.4704 204.83 46.1897 204.3 46.7204L203.68 47.3303C203.246 47.7651 202.901 48.2811 202.666 48.8491C202.431 49.417 202.31 50.0257 202.31 50.6404V51.1503C202.306 52.0673 202.665 52.9484 203.31 53.6004C203.543 53.8302 203.729 54.1042 203.855 54.4063C203.982 54.7085 204.047 55.0328 204.047 55.3604C204.047 55.6879 203.982 56.0122 203.855 56.3144C203.729 56.6165 203.543 56.8905 203.31 57.1203L202.49 57.9403C201.165 59.2672 200.421 61.0653 200.42 62.9404V75.3103C200.419 75.5904 200.473 75.868 200.58 76.1271C200.686 76.3862 200.842 76.6218 201.04 76.8203L201.51 77.2903C201.911 77.6813 202.45 77.9001 203.01 77.9001C203.57 77.9001 204.109 77.6813 204.51 77.2903L210.76 71.0403C211.51 70.2878 212.402 69.6909 213.383 69.2842C214.365 68.8775 215.417 68.6688 216.48 68.6703H217.12C218.756 68.6688 220.324 68.0178 221.48 66.8604L223.48 64.8604C224.574 63.7686 226.055 63.1538 227.6 63.1503H236.3C236.959 63.1515 237.613 63.0222 238.222 62.77C238.831 62.5177 239.384 62.1474 239.85 61.6803L241.52 60.0103C241.76 59.7619 241.922 59.4485 241.987 59.1089C242.051 58.7694 242.014 58.4184 241.881 58.0994C241.748 57.7804 241.525 57.5073 241.239 57.3138C240.952 57.1203 240.616 57.0148 240.27 57.0103H236.73C236.235 57.0103 235.746 56.9128 235.289 56.7232C234.832 56.5336 234.417 56.2558 234.068 55.9055C233.718 55.5553 233.442 55.1397 233.253 54.6823C233.065 54.225 232.969 53.735 232.97 53.2404V45.1004C232.967 44.3356 232.662 43.6031 232.12 43.0633C231.578 42.5235 230.845 42.2203 230.08 42.2204H228.98C228.131 42.2204 227.317 41.8832 226.717 41.2831C226.117 40.683 225.78 39.869 225.78 39.0203V37.8703C225.78 37.0747 225.464 36.3116 224.901 35.749C224.339 35.1864 223.576 34.8703 222.78 34.8703H222.02C219.957 34.8697 217.979 34.0495 216.52 32.5903L214.52 30.5903L212.62 29.0304C211.853 28.3669 210.867 28.0135 209.853 28.0394C208.839 28.0653 207.872 28.4686 207.14 29.1704Z" fill="#F46534"/>
<path d="M227.9 20.79C227.574 21.2228 227.34 21.7171 227.211 22.2431C227.082 22.7691 227.061 23.3158 227.15 23.85L228.8 34.22C228.898 34.8272 229.173 35.3919 229.591 35.8426C230.01 36.2933 230.552 36.6098 231.151 36.7522C231.749 36.8945 232.376 36.8563 232.953 36.6423C233.529 36.4284 234.029 36.0482 234.39 35.55L234.61 35.25C234.824 34.9492 235.097 34.6942 235.411 34.5002C235.725 34.3061 236.075 34.1769 236.44 34.12C237.176 34.0046 237.927 34.1848 238.53 34.6213C239.134 35.0578 239.54 35.7152 239.66 36.45L239.79 37.31C239.99 38.5375 240.665 39.6369 241.67 40.37L242.08 40.67C242.828 41.2009 243.753 41.4196 244.66 41.28C244.983 41.2287 245.313 41.2416 245.631 41.3178C245.949 41.3941 246.249 41.5323 246.514 41.7245C246.779 41.9168 247.003 42.1593 247.174 42.4382C247.345 42.7171 247.459 43.0269 247.51 43.35L247.69 44.5C247.99 46.3519 249.011 48.0096 250.53 49.11L257.33 54.04C256.659 46.0677 253.432 38.5251 248.129 32.5342C242.827 26.5434 235.732 22.4244 227.9 20.79Z" fill="#FFCD52"/>
<path d="M236.4 125.52H224.67C224.685 125.257 224.685 124.993 224.67 124.73V112.92C224.67 109.63 222.82 106.92 220.53 106.92H220.06C217.77 106.92 215.91 109.59 215.91 112.92V124.73C215.911 124.994 215.928 125.258 215.96 125.52H204.3C202.45 125.52 200.94 127.69 200.94 130.36C200.94 133.03 202.45 135.21 204.3 135.21H236.4C238.26 135.21 239.77 133.04 239.77 130.36C239.77 127.68 238.3 125.52 236.4 125.52Z" fill="#912039"/>
<path d="M221.6 101.83H218.61V109.7H221.6V101.83Z" fill="#912039"/>
<path d="M264.79 5.68001C269.066 5.6853 273.166 7.3864 276.19 10.4102C279.214 13.434 280.915 17.5337 280.92 21.81V131.74C280.915 136.016 279.214 140.116 276.19 143.14C273.166 146.164 269.066 147.865 264.79 147.87H185.09C180.814 147.865 176.714 146.164 173.69 143.14C170.666 140.116 168.965 136.016 168.96 131.74V21.81C168.965 17.5337 170.666 13.434 173.69 10.4102C176.714 7.3864 180.814 5.6853 185.09 5.68001H264.79ZM264.79 9.17097e-06H185.09C179.309 0.00531032 173.767 2.30548 169.681 6.39507C165.595 10.4847 163.3 16.0291 163.3 21.81V131.74C163.299 134.605 163.862 137.441 164.958 140.088C166.053 142.735 167.66 145.139 169.685 147.165C171.711 149.19 174.115 150.797 176.762 151.893C179.409 152.988 182.246 153.551 185.11 153.55H264.81C267.675 153.551 270.511 152.988 273.158 151.893C275.805 150.797 278.209 149.19 280.235 147.165C282.26 145.139 283.867 142.735 284.963 140.088C286.058 137.441 286.621 134.605 286.62 131.74V21.81C286.62 18.9442 286.055 16.1065 284.958 13.4591C283.861 10.8116 282.252 8.40644 280.225 6.38093C278.198 4.35542 275.791 2.74933 273.143 1.65445C270.494 0.559573 267.656 -0.00261881 264.79 9.17097e-06Z" fill="#B16DE2"/>
<path d="M211.14 71.6298L211.31 81.6898L218.52 88.3498L229.44 78.6998L220.65 70.2998L211.14 71.6298Z" fill="#FFA187"/>
<path d="M219.94 66.7L229.11 59.06C229.538 58.726 230.076 58.5669 230.617 58.6148C231.157 58.6627 231.659 58.9142 232.021 59.3182C232.383 59.7222 232.578 60.2487 232.567 60.7911C232.556 61.3336 232.339 61.8515 231.96 62.24L223.36 70.52C223.121 70.7722 222.833 70.9733 222.514 71.1111C222.195 71.249 221.852 71.3207 221.504 71.322C221.157 71.3233 220.813 71.2542 220.493 71.1187C220.173 70.9833 219.884 70.7843 219.643 70.5339C219.402 70.2836 219.214 69.9869 219.091 69.662C218.968 69.337 218.912 68.9905 218.927 68.6434C218.942 68.2962 219.027 67.9556 219.177 67.6423C219.327 67.3289 219.539 67.0491 219.8 66.82L219.94 66.7Z" fill="#FFA187"/>
<path d="M213.3 74.3103C212.863 74.2781 212.445 74.1224 212.093 73.8613C211.741 73.6002 211.471 73.2445 211.314 72.8357C211.157 72.4269 211.119 71.9819 211.205 71.5524C211.291 71.123 211.497 70.7269 211.8 70.4103L216.01 66.0303C216.261 65.7601 216.575 65.5558 216.924 65.4355C217.273 65.3152 217.646 65.2825 218.01 65.3403C218.37 65.3865 218.714 65.5164 219.014 65.7196C219.315 65.9228 219.563 66.1936 219.74 66.5103C220.139 67.2578 220.659 67.9337 221.28 68.5103C221.829 68.7573 222.258 69.2113 222.473 69.7733C222.689 70.3353 222.673 70.9597 222.43 71.5103C222.175 72.0695 221.709 72.5047 221.133 72.7204C220.557 72.936 219.92 72.9144 219.36 72.6603C218.626 72.3027 217.973 71.7991 217.44 71.1803L215.18 73.5403C214.947 73.804 214.656 74.0106 214.33 74.1441C214.004 74.2776 213.651 74.3344 213.3 74.3103Z" fill="#FFA187"/>
<path d="M215.11 74.2198C214.965 74.2163 214.826 74.1594 214.72 74.0598C214.667 74.0077 214.625 73.9455 214.596 73.8768C214.567 73.8081 214.552 73.7343 214.552 73.6598C214.552 73.5853 214.567 73.5116 214.596 73.4429C214.625 73.3742 214.667 73.312 214.72 73.2598L216.98 70.8898C217.099 70.7906 217.246 70.7312 217.4 70.7198C217.478 70.7193 217.555 70.7361 217.626 70.769C217.697 70.8018 217.76 70.8499 217.81 70.9098C218.291 71.4703 218.879 71.9292 219.54 72.2598C219.973 72.435 220.457 72.435 220.89 72.2598C221.211 72.1386 221.49 71.925 221.69 71.6459C221.89 71.3668 222.003 71.0347 222.015 70.6915C222.026 70.3483 221.936 70.0092 221.756 69.7171C221.575 69.425 221.312 69.1928 221 69.0498C220.259 68.4184 219.644 67.6514 219.19 66.7898C219.118 66.6583 219.101 66.5038 219.142 66.3597C219.183 66.2156 219.28 66.0935 219.41 66.0198C219.475 65.9815 219.546 65.9567 219.621 65.947C219.695 65.9373 219.77 65.9429 219.843 65.9636C219.915 65.9842 219.982 66.0193 220.04 66.0668C220.098 66.1143 220.146 66.1732 220.18 66.2398C220.545 66.9024 220.999 67.5115 221.53 68.0498C222.22 68.3747 222.752 68.9602 223.01 69.6776C223.268 70.3949 223.23 71.1853 222.905 71.8748C222.58 72.5644 221.995 73.0966 221.277 73.3545C220.56 73.6124 219.77 73.5747 219.08 73.2498C218.455 72.9582 217.886 72.5588 217.4 72.0698L215.54 73.9998C215.49 74.0668 215.425 74.1214 215.351 74.1596C215.276 74.1977 215.194 74.2183 215.11 74.2198Z" fill="#912336"/>
<path d="M227.63 70.7505L222.78 75.5105C222.45 75.8596 221.998 76.0668 221.518 76.0884C221.038 76.1099 220.569 75.9441 220.209 75.626C219.85 75.3078 219.628 74.8623 219.591 74.3836C219.553 73.9048 219.704 73.4304 220.01 73.0605L224.18 67.6805C224.366 67.4402 224.597 67.2388 224.861 67.0879C225.124 66.937 225.415 66.8394 225.717 66.8009C226.018 66.7624 226.324 66.7836 226.617 66.8633C226.91 66.943 227.185 67.0797 227.425 67.2655C227.665 67.4513 227.867 67.6826 228.018 67.9463C228.169 68.2099 228.266 68.5007 228.305 68.802C228.343 69.1034 228.322 69.4093 228.242 69.7025C228.163 69.9956 228.026 70.2702 227.84 70.5105C227.775 70.595 227.705 70.6752 227.63 70.7505Z" fill="#FFA187"/>
<path d="M232.3 77.3097L226.93 80.3097C226.72 80.4309 226.487 80.5091 226.246 80.54C226.005 80.5709 225.761 80.5538 225.526 80.4896C225.292 80.4255 225.073 80.3156 224.881 80.1663C224.69 80.017 224.529 79.8312 224.41 79.6197C224.19 79.2335 224.115 78.7811 224.199 78.3445C224.283 77.9079 224.522 77.5159 224.87 77.2397L229.74 73.4097C230.224 73.0291 230.839 72.8564 231.451 72.9295C232.062 73.0027 232.619 73.3157 233 73.7997C233.381 74.2837 233.553 74.8991 233.48 75.5105C233.407 76.1218 233.094 76.6791 232.61 77.0597C232.513 77.15 232.409 77.2336 232.3 77.3097Z" fill="#FFA187"/>
<path d="M230.72 73.3098L224.94 78.4498C224.59 78.7794 224.126 78.9601 223.646 78.9534C223.165 78.9468 222.706 78.7535 222.365 78.4143C222.025 78.0751 221.83 77.6167 221.821 77.1362C221.813 76.6557 221.992 76.1907 222.32 75.8398L227.45 70.0498C227.867 69.6274 228.43 69.3808 229.023 69.3607C229.616 69.3406 230.194 69.5486 230.639 69.9418C231.083 70.335 231.36 70.8836 231.412 71.4747C231.465 72.0659 231.288 72.6546 230.92 73.1198C230.861 73.1907 230.794 73.2544 230.72 73.3098Z" fill="#FFA187"/>
<path d="M221.48 76.6103C221.162 76.6097 220.846 76.5458 220.553 76.4222C220.259 76.2986 219.993 76.1178 219.77 75.8903C219.362 75.4707 219.119 74.9181 219.086 74.3339C219.053 73.7497 219.232 73.1732 219.59 72.7103L223.75 67.3303C223.847 67.2276 223.978 67.1645 224.119 67.1532C224.26 67.1419 224.4 67.1832 224.512 67.269C224.624 67.3549 224.7 67.4792 224.725 67.618C224.751 67.7568 224.724 67.9001 224.65 68.0203L220.48 73.4003C220.292 73.6475 220.199 73.9538 220.217 74.2638C220.236 74.5738 220.364 74.8669 220.58 75.0903C220.698 75.212 220.84 75.3085 220.996 75.3738C221.152 75.4391 221.321 75.4719 221.49 75.4703C221.659 75.483 221.829 75.4573 221.986 75.3949C222.144 75.3326 222.286 75.2352 222.4 75.1103L227.25 70.3403C227.311 70.2874 227.365 70.2269 227.41 70.1603C227.504 70.0431 227.641 69.9672 227.79 69.9485C227.939 69.9299 228.09 69.9699 228.21 70.0603C228.269 70.1062 228.319 70.1634 228.356 70.2284C228.393 70.2935 228.417 70.3653 228.426 70.4395C228.435 70.5138 228.43 70.5892 228.41 70.6614C228.39 70.7336 228.356 70.8012 228.31 70.8603C228.229 70.9616 228.142 71.0584 228.05 71.1503L223.2 75.9203C222.973 76.1431 222.704 76.3188 222.409 76.4372C222.114 76.5556 221.798 76.6144 221.48 76.6103Z" fill="#912336"/>
<path d="M226.02 81.1603C225.804 81.1633 225.589 81.1363 225.38 81.0803C225.072 80.9971 224.783 80.8535 224.531 80.6578C224.278 80.4621 224.067 80.2182 223.91 79.9403C223.836 79.8076 223.817 79.651 223.859 79.5047C223.9 79.3584 223.997 79.2345 224.13 79.1603C224.263 79.086 224.419 79.0675 224.566 79.1087C224.712 79.15 224.836 79.2477 224.91 79.3803C225.08 79.6746 225.359 79.8901 225.686 79.98C226.014 80.0698 226.364 80.0268 226.66 79.8603L232.05 76.8003C232.115 76.7627 232.187 76.7383 232.261 76.7285C232.336 76.7187 232.411 76.7237 232.484 76.7432C232.556 76.7627 232.624 76.7964 232.684 76.8422C232.743 76.888 232.793 76.9451 232.83 77.0102C232.867 77.0751 232.891 77.1466 232.9 77.2207C232.909 77.2947 232.903 77.3698 232.882 77.4415C232.862 77.5133 232.827 77.5802 232.78 77.6383C232.734 77.6965 232.676 77.7448 232.61 77.7803L227.22 80.8502C226.855 81.0577 226.44 81.1647 226.02 81.1603Z" fill="#912336"/>
<path d="M223.71 79.4901C223.249 79.4857 222.798 79.3495 222.412 79.0975C222.025 78.8455 221.718 78.4883 221.528 78.0679C221.338 77.6474 221.272 77.1814 221.338 76.7247C221.404 76.268 221.599 75.8396 221.9 75.4901C222.007 75.385 222.15 75.3262 222.3 75.3262C222.45 75.3262 222.593 75.385 222.7 75.4901C222.757 75.5388 222.803 75.5984 222.836 75.6653C222.869 75.7322 222.889 75.805 222.894 75.8795C222.898 75.9541 222.888 76.0288 222.863 76.0993C222.839 76.1698 222.8 76.2347 222.75 76.2901C222.547 76.5372 222.444 76.8507 222.459 77.1699C222.474 77.4891 222.607 77.7913 222.833 78.0179C223.058 78.2445 223.36 78.3793 223.679 78.3964C223.998 78.4134 224.312 78.3114 224.56 78.1101C224.668 78.0044 224.814 77.9453 224.965 77.9453C225.116 77.9453 225.262 78.0044 225.37 78.1101C225.467 78.2259 225.516 78.3744 225.506 78.5251C225.497 78.6757 225.43 78.8171 225.32 78.9201C224.869 79.2963 224.298 79.4985 223.71 79.4901Z" fill="#912336"/>
<path d="M224.94 79.0302C224.824 79.0314 224.709 78.9968 224.613 78.9311C224.517 78.8654 224.443 78.7717 224.401 78.6627C224.36 78.5537 224.353 78.4346 224.381 78.3215C224.41 78.2084 224.472 78.1068 224.56 78.0302L230.16 73.0302C230.216 72.9798 230.282 72.9411 230.353 72.9163C230.425 72.8916 230.5 72.8812 230.576 72.8858C230.651 72.8905 230.725 72.9101 230.792 72.9434C230.86 72.9768 230.921 73.0233 230.97 73.0802C231.066 73.1944 231.115 73.3412 231.106 73.4902C231.096 73.6392 231.03 73.7789 230.92 73.8802L225.32 78.8802C225.215 78.9739 225.081 79.0271 224.94 79.0302Z" fill="#912336"/>
<path d="M139.05 102.1C139.05 108.1 131.65 112.9 122.54 112.9C113.43 112.9 106.03 108.07 106.03 102.1C106.03 96.1298 113.42 91.2998 122.54 91.2998C131.66 91.2998 139.05 96.1398 139.05 102.1Z" fill="#EDBCB0"/>
<path d="M144.12 123.459C144.12 123.459 130.73 140.539 131.18 168.089L81.11 166.949L88.9 109.359L144.12 123.459Z" fill="#0071A8"/>
<path d="M141.15 101.14C141.15 110.94 133.15 118.58 123.15 118.58C113.15 118.58 105.15 110.76 105.15 101.14C105.15 97.7895 105.41 95.8995 107.08 93.2595C108.99 92.6773 110.948 92.2624 112.93 92.0195C112.147 92.8221 111.502 93.7477 111.02 94.7595C110.342 95.8914 110.025 97.2029 110.11 98.5195C110.11 101.967 111.48 105.274 113.918 107.712C116.355 110.15 119.662 111.52 123.11 111.52C126.558 111.52 129.864 110.15 132.302 107.712C134.74 105.274 136.11 101.967 136.11 98.5195C136.11 96.9595 135.2 95.3095 134.67 93.9195C136.622 94.5841 138.512 95.4173 140.32 96.4095L140.41 96.4695C140.553 96.6245 140.653 96.8141 140.7 97.0195C141.025 98.368 141.176 99.7526 141.15 101.14Z" fill="#6CBDE6"/>
<path d="M143.15 125.4C143.031 125.397 142.916 125.359 142.82 125.29C142.745 125.239 142.684 125.17 142.642 125.09C142.6 125.01 142.579 124.921 142.58 124.83C142.579 124.712 142.614 124.597 142.68 124.5L147.95 116.96C148.037 116.837 148.168 116.754 148.316 116.727C148.464 116.701 148.616 116.735 148.74 116.82C148.816 116.871 148.878 116.939 148.922 117.019C148.966 117.099 148.989 117.189 148.99 117.28C148.989 117.399 148.95 117.514 148.88 117.61L143.61 125.15C143.559 125.226 143.491 125.289 143.411 125.332C143.331 125.376 143.241 125.399 143.15 125.4Z" fill="#006192"/>
<path d="M85.0999 138.009C85.0208 138.007 84.9428 137.99 84.8706 137.957C84.7984 137.924 84.7336 137.878 84.6799 137.819C84.6267 137.767 84.5844 137.705 84.5556 137.636C84.5267 137.568 84.5118 137.494 84.5118 137.419C84.5118 137.345 84.5267 137.271 84.5556 137.202C84.5844 137.134 84.6267 137.072 84.6799 137.019L99.8799 123.309C99.9883 123.204 100.134 123.145 100.285 123.145C100.436 123.145 100.582 123.204 100.69 123.309C100.78 123.419 100.829 123.557 100.83 123.699C100.831 123.779 100.814 123.858 100.781 123.93C100.748 124.003 100.7 124.067 100.64 124.119L85.4799 137.779C85.4361 137.842 85.3796 137.895 85.3142 137.934C85.2487 137.974 85.1758 138 85.0999 138.009Z" fill="#006192"/>
<path d="M208.04 80.9092L177.6 109.649L149.93 100.869C147.051 99.9847 144.293 98.7452 141.72 97.1792C141.33 96.9392 140.92 96.6992 140.51 96.4692L140.42 96.4092C138.612 95.4169 136.722 94.5838 134.77 93.9192C129.972 92.3101 124.941 91.5026 119.88 91.5292C117.824 91.5307 115.77 91.661 113.73 91.9192C111.499 92.1968 109.293 92.6448 107.13 93.2592C100.73 95.0692 96.7999 98.0092 92.2699 102.129L60.1699 127.129L59.5399 127.629C58.2785 128.612 57.2689 129.881 56.5943 131.331C55.9197 132.781 55.5994 134.371 55.6599 135.969L57.7499 188.769L73.3599 189.309L78.4499 142.599L83.4499 138.689L95.5099 129.289L99.6699 126.039C105.918 129.234 112.853 130.851 119.87 130.749C129.59 130.749 138.26 127.939 143.97 123.539L177.04 134.039L177.87 134.299C179.907 134.945 182.093 134.949 184.132 134.31C186.172 133.671 187.965 132.421 189.27 130.729L219.61 91.3592L208.04 80.9092Z" fill="#008EF8"/>
<path d="M131.4 92.9996L136.85 75.7796L123.65 71.5996L117.23 91.8796C110.72 93.3296 106.03 97.3496 106.03 102.1C106.03 108.1 113.42 112.9 122.54 112.9C131.66 112.9 139.05 108.07 139.05 102.1C139.05 98.3096 135.99 94.9196 131.4 92.9996Z" fill="#FFA187"/>
<path d="M144.12 123.459C144.12 123.459 130.73 140.539 131.18 168.089L81.11 166.949L88.9 109.359L144.12 123.459Z" fill="#008EF8"/>
<path d="M141.15 101.14C141.15 110.94 133.15 118.58 123.15 118.58C113.15 118.58 105.15 110.76 105.15 101.14C105.15 97.7895 105.41 95.8995 107.08 93.2595C108.99 92.6773 110.948 92.2624 112.93 92.0195C112.147 92.8221 111.502 93.7477 111.02 94.7595C110.342 95.8914 110.025 97.2029 110.11 98.5195C110.11 101.967 111.48 105.274 113.918 107.712C116.355 110.15 119.662 111.52 123.11 111.52C126.558 111.52 129.864 110.15 132.302 107.712C134.74 105.274 136.11 101.967 136.11 98.5195C136.11 96.9595 135.2 95.3095 134.67 93.9195C136.622 94.5841 138.512 95.4173 140.32 96.4095L140.41 96.4695C140.553 96.6245 140.653 96.8141 140.7 97.0195C141.025 98.368 141.176 99.7526 141.15 101.14Z" fill="#003096"/>
<path d="M143.15 125.399C143.031 125.397 142.916 125.358 142.82 125.289C142.697 125.203 142.614 125.071 142.587 124.923C142.561 124.775 142.594 124.623 142.68 124.499L147.95 116.959C147.989 116.89 148.042 116.83 148.106 116.782C148.169 116.735 148.242 116.701 148.32 116.683C148.397 116.666 148.478 116.664 148.556 116.68C148.634 116.695 148.708 116.726 148.773 116.772C148.838 116.817 148.893 116.876 148.934 116.944C148.975 117.012 149.002 117.088 149.012 117.167C149.022 117.246 149.015 117.326 148.993 117.402C148.97 117.478 148.932 117.549 148.88 117.609L143.61 125.149C143.559 125.225 143.491 125.288 143.411 125.331C143.331 125.375 143.241 125.398 143.15 125.399Z" fill="#003096"/>
<path d="M85.0999 138.009C85.0208 138.007 84.9428 137.99 84.8706 137.957C84.7984 137.924 84.7336 137.878 84.6799 137.819C84.6267 137.767 84.5844 137.705 84.5556 137.636C84.5267 137.568 84.5118 137.494 84.5118 137.419C84.5118 137.345 84.5267 137.271 84.5556 137.202C84.5844 137.134 84.6267 137.072 84.6799 137.019L99.8799 123.309C99.9883 123.204 100.134 123.145 100.285 123.145C100.436 123.145 100.582 123.204 100.69 123.309C100.778 123.417 100.827 123.551 100.83 123.689C100.831 123.77 100.814 123.851 100.781 123.925C100.749 123.999 100.7 124.065 100.64 124.119L85.4799 137.779C85.4361 137.842 85.3796 137.895 85.3142 137.934C85.2487 137.974 85.1758 138 85.0999 138.009Z" fill="#003096"/>
<path d="M176.3 115.729H176.18C176.106 115.714 176.037 115.684 175.975 115.641C175.913 115.598 175.861 115.544 175.821 115.48C175.781 115.417 175.754 115.346 175.742 115.272C175.729 115.198 175.732 115.122 175.75 115.049L177.01 109.549C177.025 109.476 177.055 109.406 177.098 109.344C177.141 109.283 177.195 109.23 177.259 109.19C177.322 109.15 177.393 109.123 177.467 109.111C177.541 109.099 177.617 109.102 177.69 109.119C177.836 109.155 177.962 109.246 178.042 109.373C178.122 109.499 178.15 109.652 178.12 109.799L176.9 115.309C176.863 115.438 176.784 115.549 176.675 115.626C176.565 115.702 176.433 115.739 176.3 115.729Z" fill="#003096"/>
<path d="M219.99 91.0593C218.99 92.2793 215.45 91.0093 212.11 88.2293C208.77 85.4493 206.91 82.2293 207.93 80.9793C208.95 79.7293 212.48 80.9793 215.81 83.8093C219.14 86.6393 221.02 89.8293 219.99 91.0593Z" fill="#008EF8"/>
<path d="M73.4047 189.242C73.42 188.535 69.9276 187.886 65.6043 187.793C61.2809 187.699 57.7637 188.196 57.7484 188.903C57.7331 189.61 61.2255 190.258 65.5489 190.352C69.8722 190.446 73.3894 189.949 73.4047 189.242Z" fill="#008EF8"/>
<path d="M169.613 271.079L168.127 272.417C165.55 274.739 165.344 278.71 167.665 281.287L190.846 307.014C193.168 309.59 197.139 309.797 199.715 307.475L201.201 306.137C203.778 303.815 203.985 299.844 201.663 297.267L178.482 271.54C176.16 268.964 172.189 268.757 169.613 271.079Z" fill="#ADCEE0"/>
<path d="M173.22 259.931L173.11 260.631C172.433 265.213 171.085 269.671 169.11 273.861C168.783 274.548 168.67 275.318 168.786 276.071C168.902 276.823 169.241 277.523 169.76 278.081L192.76 302.711C193.868 303.902 195.296 304.747 196.874 305.145C198.451 305.542 200.11 305.475 201.65 304.951C202.495 304.665 203.261 304.187 203.89 303.554C204.518 302.922 204.99 302.151 205.27 301.305C205.549 300.458 205.628 299.558 205.499 298.676C205.371 297.793 205.039 296.953 204.53 296.221C200.878 290.981 197.857 285.329 195.53 279.381C190.29 265.721 189.84 259.931 189.84 259.931H173.22Z" fill="#003096"/>
<path d="M214.675 255.001L214.933 256.984C215.38 260.424 218.531 262.849 221.97 262.402L256.311 257.936C259.75 257.488 262.176 254.338 261.729 250.898L261.471 248.915C261.023 245.476 257.873 243.05 254.433 243.497L220.092 247.964C216.653 248.411 214.228 251.562 214.675 255.001Z" fill="#ADCEE0"/>
<path d="M207.3 245.95L207.82 246.43C211.213 249.591 214.127 253.229 216.47 257.23C216.855 257.886 217.427 258.412 218.113 258.74C218.799 259.068 219.568 259.183 220.32 259.07L253.62 254.01C255.227 253.766 256.73 253.063 257.948 251.987C259.167 250.91 260.049 249.505 260.49 247.94C260.73 247.081 260.767 246.178 260.599 245.301C260.43 244.425 260.06 243.6 259.518 242.891C258.976 242.183 258.277 241.609 257.475 241.217C256.674 240.825 255.792 240.624 254.9 240.63C248.522 240.673 242.162 239.965 235.95 238.52C221.72 235.13 216.68 232.23 216.68 232.23L207.3 245.95Z" fill="#003096"/>
<path d="M196.63 196.621C196.63 196.531 196.63 196.381 196.63 196.291C196.75 188.691 190.99 182.411 183.76 182.291C176.53 182.171 170.56 188.221 170.44 195.831L169.44 257.391C169.42 258.719 169.592 260.042 169.95 261.321C169.358 261.696 168.86 262.204 168.498 262.805C168.135 263.405 167.917 264.082 167.86 264.781C167.86 268.351 173.86 271.261 181.32 271.261C188.78 271.261 194.78 268.351 194.78 264.781C194.734 263.738 194.281 262.755 193.52 262.041C193.946 260.782 194.189 259.469 194.24 258.141L196.63 196.621Z" fill="#904679"/>
<path d="M226.56 233.11C226.13 232.655 225.605 232.3 225.023 232.07C224.441 231.84 223.815 231.742 223.19 231.78C222.887 231.02 222.512 230.29 222.07 229.6L187.14 174.71C186.014 172.969 184.488 171.522 182.69 170.491C180.891 169.459 178.872 168.873 176.8 168.78H176.67C176.67 168.78 123.44 165.48 117.31 165.48C95.25 165.48 82.04 173.27 82.02 182.89C82.02 199.4 95.25 200.65 117.31 200.65C124.31 200.65 150.57 197.76 168.76 194.65H168.97L201.51 243.46C202.458 244.89 203.695 246.106 205.14 247.03C205.028 247.6 205.036 248.187 205.164 248.753C205.291 249.32 205.535 249.854 205.88 250.32C208.18 253.07 214.66 251.43 220.37 246.68C226.08 241.93 228.85 235.86 226.56 233.11Z" fill="#B16DE2"/>
<path d="M83.11 166.99L82.02 182.88L131.12 170.7L130.82 168.07L83.11 166.99Z" fill="#B16DE2"/>
<path d="M93.23 171.36C93.12 171.359 93.0127 171.326 92.9206 171.266C92.8285 171.206 92.7555 171.121 92.71 171.02C92.6487 170.884 92.6438 170.728 92.6962 170.588C92.7486 170.448 92.8541 170.334 92.99 170.27C100.67 166.81 110.99 164.9 121.99 164.9C123.2 164.9 126.31 165.03 131.23 165.28C131.304 165.284 131.377 165.303 131.445 165.335C131.512 165.368 131.572 165.413 131.621 165.469C131.671 165.525 131.708 165.59 131.732 165.661C131.756 165.731 131.765 165.806 131.76 165.88C131.757 165.954 131.74 166.027 131.709 166.094C131.677 166.161 131.633 166.222 131.578 166.271C131.523 166.321 131.458 166.358 131.388 166.382C131.318 166.406 131.244 166.416 131.17 166.41C126.27 166.16 123.17 166.04 121.99 166.04C111.14 166.04 100.99 167.91 93.48 171.31C93.4013 171.345 93.316 171.362 93.23 171.36Z" fill="#904679"/>
<path d="M168.97 195.25C168.875 195.252 168.782 195.228 168.7 195.18C168.612 195.131 168.538 195.058 168.487 194.97C168.436 194.882 168.409 194.782 168.41 194.68V187.68C168.399 187.6 168.406 187.518 168.429 187.44C168.453 187.363 168.493 187.291 168.546 187.23C168.6 187.169 168.666 187.12 168.74 187.086C168.814 187.053 168.894 187.035 168.975 187.035C169.056 187.035 169.137 187.053 169.21 187.086C169.284 187.12 169.35 187.169 169.404 187.23C169.457 187.291 169.497 187.363 169.521 187.44C169.544 187.518 169.551 187.6 169.54 187.68V193.68L174.32 190.68C174.453 190.602 174.611 190.58 174.76 190.618C174.909 190.657 175.037 190.753 175.115 190.885C175.193 191.018 175.216 191.176 175.177 191.325C175.139 191.475 175.043 191.602 174.91 191.68L169.3 195.17C169.2 195.228 169.085 195.256 168.97 195.25Z" fill="#904679"/>
<path d="M150.71 63.9897C149.71 69.7997 145.81 73.9897 142.03 73.3197C138.25 72.6497 136.03 67.4197 137.03 61.5997C138.03 55.7797 141.93 51.5997 145.71 52.2697C149.49 52.9397 151.72 58.1697 150.71 63.9897Z" fill="#573E28"/>
<path d="M119.1 67.4293C118.3 79.3093 124.17 89.3693 132.3 89.9493C140.43 90.5293 147.73 81.3893 148.58 69.5393C149.43 57.6893 143.51 47.5993 135.36 47.0193C127.21 46.4393 119.94 55.5793 119.1 67.4293Z" fill="#EDBCB0"/>
<path d="M153.09 52.5798C152.71 57.9198 146.09 61.7998 138.2 61.2398C130.31 60.6798 124.31 55.8998 124.7 50.5498C125.09 45.1998 131.7 41.3298 139.58 41.8898C147.46 42.4498 153.47 47.2298 153.09 52.5798Z" fill="#573E28"/>
<path d="M128.96 59.5991C127.96 65.4091 124.06 69.5991 120.28 68.9291C116.5 68.2591 114.28 63.0291 115.28 57.2091C116.28 51.3891 120.17 47.2091 123.96 47.8791C127.75 48.5491 129.97 53.7791 128.96 59.5991Z" fill="#573E28"/>
<path d="M113.69 67.3099C113.397 68.4597 113.451 69.6705 113.846 70.7895C114.241 71.9084 114.958 72.8852 115.908 73.5962C116.858 74.3073 117.997 74.7208 119.182 74.7844C120.367 74.8479 121.544 74.5588 122.565 73.9535C123.585 73.3481 124.403 72.4538 124.916 71.3836C125.428 70.3133 125.611 69.1152 125.443 67.9407C125.274 66.7661 124.761 65.668 123.969 64.785C123.176 63.902 122.14 63.2738 120.99 62.9799C120.226 62.7847 119.432 62.7418 118.651 62.8538C117.871 62.9658 117.121 63.2304 116.443 63.6325C115.765 64.0346 115.173 64.5663 114.701 65.1973C114.228 65.8283 113.885 66.5462 113.69 67.3099Z" fill="#EDBCB0"/>
<path d="M117.42 70.8193C117.278 70.821 117.142 70.7671 117.04 70.6693C116.963 70.6007 116.906 70.5121 116.876 70.4133C116.846 70.3144 116.844 70.2092 116.87 70.1093L117.87 66.3793C117.893 66.2825 117.941 66.1935 118.009 66.1214C118.078 66.0494 118.164 65.9969 118.26 65.9693C118.354 65.9431 118.452 65.9413 118.547 65.9641C118.641 65.9868 118.728 66.0334 118.8 66.0993L121.57 68.5993C121.642 68.6652 121.696 68.7487 121.725 68.8417C121.755 68.9346 121.76 69.0338 121.74 69.1293C121.72 69.2282 121.675 69.3201 121.608 69.3956C121.541 69.4711 121.456 69.5276 121.36 69.5593L117.64 70.7893C117.569 70.8136 117.495 70.8238 117.42 70.8193ZM118.7 67.5693L118.23 69.3893L120.04 68.7893L118.7 67.5693Z" fill="#CC8068"/>
<path d="M124.73 48.5896C124.398 46.15 124.592 43.6676 125.3 41.3096C125.174 43.6615 125.549 46.0133 126.4 48.2096L124.73 48.5896Z" fill="#572902"/>
<path d="M127.3 48.6095C125.239 47.2441 122.911 46.3338 120.47 45.9395C122.648 46.8461 124.605 48.2102 126.21 49.9395L127.3 48.6095Z" fill="#573E28"/>
<path d="M121.09 79.6796C122.95 85.9396 126.91 90.5396 131.85 91.5796L136.85 75.7796L123.65 71.5996L121.09 79.6796Z" fill="#EF485D"/>
<path d="M150.71 63.9897C149.71 69.7997 145.81 73.9897 142.03 73.3197C138.25 72.6497 136.03 67.4197 137.03 61.5997C138.03 55.7797 141.93 51.5997 145.71 52.2697C149.49 52.9397 151.72 58.1697 150.71 63.9897Z" fill="#572902"/>
<path d="M119.1 67.4293C118.3 79.3093 124.17 89.3693 132.3 89.9493C140.43 90.5293 147.73 81.3893 148.58 69.5393C149.43 57.6893 143.51 47.5993 135.36 47.0193C127.21 46.4393 119.94 55.5793 119.1 67.4293Z" fill="#FFA187"/>
<path d="M141.22 78.3993C140.884 78.3947 140.549 78.3579 140.22 78.2893C138.825 77.9593 137.525 77.3126 136.42 76.3993C136.351 76.3573 136.292 76.3012 136.247 76.2347C136.202 76.1683 136.171 76.093 136.157 76.0138C136.143 75.9347 136.145 75.8534 136.165 75.7754C136.184 75.6973 136.22 75.6243 136.27 75.5611C136.32 75.4978 136.382 75.4459 136.453 75.4085C136.525 75.3712 136.603 75.3494 136.683 75.3445C136.764 75.3396 136.844 75.3518 136.919 75.3802C136.995 75.4086 137.063 75.4526 137.12 75.5093C138.088 76.3108 139.227 76.8788 140.45 77.1693C141.36 77.3593 142.06 77.2393 142.37 76.8393C142.68 76.4393 142.64 75.7293 142.25 74.8893C141.675 73.7707 140.854 72.7964 139.85 72.0393C139.732 71.9451 139.656 71.8079 139.64 71.6579C139.623 71.508 139.666 71.3574 139.76 71.2393C139.856 71.1237 139.993 71.0497 140.142 71.0329C140.291 71.0162 140.441 71.0579 140.56 71.1493C141.706 72.0169 142.642 73.1311 143.3 74.4093C143.596 74.8777 143.753 75.4203 143.753 75.9743C143.753 76.5283 143.596 77.071 143.3 77.5393C143.047 77.8378 142.726 78.0716 142.364 78.2212C142.002 78.3707 141.61 78.4318 141.22 78.3993Z" fill="#912336"/>
<path d="M153.09 52.5798C152.71 57.9198 146.09 61.7998 138.2 61.2398C130.31 60.6798 124.31 55.8998 124.7 50.5498C125.09 45.1998 131.7 41.3298 139.58 41.8898C147.46 42.4498 153.47 47.2298 153.09 52.5798Z" fill="#572902"/>
<path d="M128.96 59.5991C127.96 65.4091 124.06 69.5991 120.28 68.9291C116.5 68.2591 114.28 63.0291 115.28 57.2091C116.28 51.3891 120.17 47.2091 123.96 47.8791C127.75 48.5491 129.97 53.7791 128.96 59.5991Z" fill="#572902"/>
<path d="M124.73 48.5896C124.398 46.15 124.592 43.6676 125.3 41.3096C125.174 43.6615 125.549 46.0133 126.4 48.2096L124.73 48.5896Z" fill="#572902"/>
<path d="M127.3 48.6095C125.239 47.2441 122.911 46.3338 120.47 45.9395C122.648 46.8461 124.605 48.2102 126.21 49.9395L127.3 48.6095Z" fill="#572902"/>
<path d="M113.69 67.3099C113.397 68.4597 113.451 69.6705 113.846 70.7895C114.241 71.9084 114.958 72.8852 115.908 73.5962C116.858 74.3073 117.997 74.7208 119.182 74.7844C120.367 74.8479 121.544 74.5588 122.565 73.9535C123.585 73.3481 124.403 72.4538 124.916 71.3836C125.428 70.3133 125.611 69.1152 125.443 67.9407C125.274 66.7661 124.761 65.668 123.969 64.785C123.176 63.902 122.14 63.2738 120.99 62.9799C120.226 62.7847 119.432 62.7418 118.651 62.8538C117.871 62.9658 117.121 63.2304 116.443 63.6325C115.765 64.0346 115.173 64.5663 114.701 65.1973C114.228 65.8283 113.885 66.5462 113.69 67.3099Z" fill="#FFA187"/>
<path d="M117.42 70.8198C117.3 70.8196 117.184 70.7818 117.087 70.7119C116.99 70.6419 116.918 70.5432 116.88 70.4298C116.835 70.2865 116.848 70.1314 116.915 69.9971C116.982 69.8629 117.098 69.7599 117.24 69.7098L120.04 68.7898L118.04 66.9398C117.935 66.8331 117.876 66.6894 117.876 66.5398C117.876 66.3901 117.935 66.2464 118.04 66.1398C118.092 66.0866 118.154 66.0443 118.223 66.0154C118.292 65.9865 118.365 65.9717 118.44 65.9717C118.514 65.9717 118.588 65.9865 118.657 66.0154C118.726 66.0443 118.788 66.0866 118.84 66.1398L121.61 68.6398C121.682 68.7056 121.736 68.7892 121.766 68.8822C121.795 68.9751 121.8 69.0743 121.78 69.1698C121.76 69.2686 121.715 69.3605 121.648 69.4361C121.581 69.5116 121.496 69.5681 121.4 69.5998L117.68 70.8298C117.594 70.8465 117.505 70.8431 117.42 70.8198Z" fill="#912336"/>
<path d="M47.09 189.31H46.98C46.7284 189.261 46.469 189.269 46.2212 189.335C45.9735 189.401 45.7439 189.522 45.55 189.69L37.83 196.14C37.4733 196.457 37.2419 196.892 37.1777 197.365C37.1135 197.838 37.2207 198.319 37.48 198.72C37.5807 198.895 37.716 199.048 37.8777 199.17C38.0394 199.291 38.224 199.378 38.4205 199.426C38.617 199.473 38.8211 199.481 39.0204 199.447C39.2197 199.413 39.4101 199.339 39.58 199.23L47.09 194.32L52.84 195.52V200.52H64.58C67.97 200.52 70.71 197.37 70.71 193.52V190.84L47.09 189.31Z" fill="#FFA187"/>
<path d="M52.84 200.39H45.43C44.9252 200.329 44.4602 200.085 44.1229 199.705C43.7856 199.324 43.5994 198.833 43.5994 198.325C43.5994 197.816 43.7856 197.325 44.1229 196.945C44.4602 196.564 44.9252 196.321 45.43 196.26H52.84C53.3448 196.321 53.8098 196.564 54.1471 196.945C54.4844 197.325 54.6707 197.816 54.6707 198.325C54.6707 198.833 54.4844 199.324 54.1471 199.705C53.8098 200.085 53.3448 200.329 52.84 200.39Z" fill="#FFA187"/>
<path d="M47.09 189.31H46.98C46.7284 189.261 46.469 189.269 46.2212 189.335C45.9735 189.401 45.7439 189.522 45.55 189.69L37.83 196.14C37.4733 196.457 37.2419 196.892 37.1777 197.365C37.1135 197.838 37.2207 198.319 37.48 198.72C37.5807 198.895 37.716 199.048 37.8777 199.17C38.0394 199.291 38.224 199.378 38.4205 199.426C38.617 199.473 38.8211 199.481 39.0204 199.447C39.2197 199.413 39.4101 199.339 39.58 199.23L47.09 194.32L52.84 195.52V200.52H64.58C67.97 200.52 70.71 197.37 70.71 193.52V190.84L47.09 189.31Z" fill="#FFA187"/>
<path d="M82.2999 196.529L83.1199 201.029H102.48C103.673 201.027 104.816 200.552 105.659 199.708C106.502 198.865 106.977 197.722 106.98 196.529H82.2999Z" fill="#008EF8"/>
<path d="M6.29998 152.81C6.24299 152.493 6.25604 152.168 6.33821 151.857C6.42038 151.547 6.56967 151.258 6.77558 151.011C6.9815 150.764 7.23902 150.565 7.53004 150.428C7.82105 150.292 8.13849 150.22 8.45999 150.22H71.83C72.4406 150.221 73.0316 150.436 73.5008 150.826C73.9701 151.217 74.2881 151.759 74.4 152.36L82.4 196.53L83.22 201.03H14.3V196.53L6.29998 152.81Z" fill="#003096"/>
<path d="M38.18 173.31C38.4899 174.609 39.215 175.772 40.2454 176.622C41.2759 177.472 42.5554 177.963 43.89 178.02C44.4753 178.046 45.0585 177.932 45.5913 177.688C46.124 177.444 46.591 177.077 46.9536 176.617C47.3161 176.156 47.5639 175.616 47.6763 175.041C47.7887 174.466 47.7625 173.873 47.6 173.31C47.2901 172.01 46.565 170.848 45.5345 169.998C44.5041 169.148 43.2245 168.657 41.89 168.6C41.3053 168.576 40.7232 168.691 40.1917 168.936C39.6601 169.18 39.1941 169.548 38.832 170.007C38.4699 170.467 38.222 171.006 38.1086 171.58C37.9953 172.154 38.0197 172.747 38.18 173.31Z" fill="white"/>
</g>
<defs>
<clipPath id="clip0_586_1208">
<rect width="286.61" height="312.61" fill="white"/>
</clipPath>
</defs>
</svg>
