<svg width="346" height="314" viewBox="0 0 346 314" fill="none" xmlns="http://www.w3.org/2000/svg">
<g clip-path="url(#clip0_586_762)">
<path d="M45.0206 83.1416C42.7803 83.1416 40.5903 83.8971 38.7277 85.3124C36.8651 86.7278 35.4135 88.7395 34.5566 91.0931C33.6996 93.4466 33.4759 96.0362 33.9136 98.5344C34.3513 101.033 35.4308 103.327 37.0155 105.127C38.6003 106.928 40.6191 108.154 42.8165 108.649C45.014 109.145 47.2914 108.889 49.3607 107.912C51.43 106.936 53.1981 105.284 54.4415 103.165C55.6849 101.046 56.3476 98.5558 56.3459 96.0086C56.3459 94.318 56.0529 92.644 55.4836 91.0823C54.9144 89.5205 54.08 88.1017 53.0283 86.9067C51.9765 85.7118 50.7279 84.7642 49.3539 84.1182C47.9799 83.4721 46.5075 83.1403 45.0206 83.1416ZM45.0206 102.985C43.807 102.985 42.6207 102.576 41.6116 101.809C40.6026 101.043 39.8161 99.9532 39.3517 98.6784C38.8873 97.4036 38.7658 96.0008 39.0025 94.6475C39.2393 93.2941 39.8237 92.051 40.6818 91.0753C41.5399 90.0996 42.6333 89.4352 43.8235 89.166C45.0138 88.8968 46.2475 89.0349 47.3688 89.563C48.49 90.091 49.4483 90.9852 50.1225 92.1326C50.7967 93.2799 51.1566 94.6287 51.1566 96.0086C51.1566 97.8589 50.5101 99.6334 49.3594 100.942C48.2087 102.25 46.648 102.985 45.0206 102.985Z" fill="#003096"/>
<path d="M60.65 25.7442C59.8088 25.7422 58.986 26.024 58.2857 26.554C57.5854 27.0839 57.0392 27.8381 56.716 28.7212C56.3929 29.6043 56.3075 30.5766 56.4705 31.5149C56.6336 32.4532 57.0378 33.3155 57.632 33.9925C58.2262 34.6695 58.9837 35.1309 59.8086 35.3182C60.6336 35.5055 61.4888 35.4104 62.2662 35.0448C63.0435 34.6792 63.708 34.0597 64.1755 33.2646C64.6431 32.4694 64.8926 31.5345 64.8926 30.578C64.8926 29.2977 64.4459 28.0697 63.6505 27.1635C62.8551 26.2572 61.776 25.7468 60.65 25.7442ZM60.65 33.1893C60.1933 33.1912 59.7464 33.0389 59.3659 32.7517C58.9855 32.4644 58.6886 32.0551 58.5131 31.5757C58.3375 31.0964 58.2911 30.5685 58.3798 30.0591C58.4684 29.5497 58.6882 29.0817 59.0111 28.7145C59.3341 28.3474 59.7457 28.0975 60.1937 27.9967C60.6417 27.8959 61.1059 27.9486 61.5276 28.1482C61.9492 28.3479 62.3091 28.6854 62.5618 29.118C62.8144 29.5506 62.9484 30.0587 62.9466 30.578C62.9466 30.9209 62.8872 31.2605 62.7718 31.5773C62.6564 31.8941 62.4872 32.182 62.274 32.4244C62.0607 32.6669 61.8075 32.8593 61.5289 32.9905C61.2503 33.1217 60.9516 33.1893 60.65 33.1893Z" fill="#E7E8FA"/>
<path d="M140.944 17.1729H172.395" stroke="#003096" stroke-width="2" stroke-linecap="round" stroke-linejoin="round"/>
<ellipse cx="326.505" cy="57.2183" rx="0.876571" ry="0.996667" fill="#003096"/>
<path d="M326.505 62.1924V99.0691C326.505 101.062 325.809 102.974 324.569 104.383C323.33 105.792 321.649 106.584 319.896 106.584H312.34" stroke="#003096" stroke-width="2" stroke-linecap="round" stroke-linejoin="round"/>
<ellipse cx="310.148" cy="106.564" rx="0.876571" ry="0.996667" fill="#003096"/>
<path d="M37.158 123.019V176.649" stroke="#003096" stroke-width="2" stroke-linecap="round" stroke-linejoin="round"/>
<path d="M291.013 41.9102H54.9961C50.0872 41.9102 46.1077 46.4349 46.1077 52.0164V216.267C46.1077 221.849 50.0872 226.373 54.9961 226.373H291.013C295.922 226.373 299.901 221.849 299.901 216.267V52.0164C299.901 46.4349 295.922 41.9102 291.013 41.9102Z" fill="#E7E8FA"/>
<path d="M286.086 51.0596H59.9135C58.1368 51.0596 56.6965 52.6972 56.6965 54.7173V201.337C56.6965 203.357 58.1368 204.995 59.9135 204.995H286.086C287.863 204.995 289.303 203.357 289.303 201.337V54.7173C289.303 52.6972 287.863 51.0596 286.086 51.0596Z" fill="url(#paint0_linear_586_762)"/>
<path d="M46.1252 216.726C46.2268 219.321 47.2045 221.773 48.8551 223.57C50.5058 225.367 52.7021 226.371 54.9874 226.373H291.013C293.298 226.371 295.494 225.367 297.145 223.57C298.796 221.773 299.773 219.321 299.875 216.726H46.1252Z" fill="#003096"/>
<path d="M1.05876e-05 304.781H346V309.027C346 310.349 345.538 311.616 344.716 312.551C343.894 313.485 342.78 314.01 341.617 314.01H3.62901C3.15171 314.01 2.67909 313.903 2.23823 313.695C1.79736 313.487 1.39692 313.183 1.05982 312.798C0.722718 312.414 0.45559 311.958 0.273732 311.456C0.0918738 310.955 -0.00114233 310.417 1.05876e-05 309.874V304.781Z" fill="#003096"/>
<path d="M294.729 226.532H51.2706C49.7385 226.532 48.2294 226.956 46.8734 227.767C45.5174 228.578 44.3551 229.751 43.4867 231.187L0.701259 302.139C0.302993 302.811 0.0725263 303.593 0.0344384 304.402C-0.00364956 305.211 0.15207 306.016 0.484989 306.732C0.817908 307.448 1.31554 308.048 1.92482 308.468C2.53409 308.888 3.23216 309.112 3.94457 309.116H342.055C342.768 309.112 343.466 308.888 344.075 308.468C344.684 308.048 345.182 307.448 345.515 306.732C345.848 306.016 346.004 305.211 345.966 304.402C345.927 303.593 345.697 302.811 345.299 302.139L302.513 231.187C301.645 229.751 300.483 228.578 299.127 227.767C297.771 226.956 296.262 226.532 294.729 226.532Z" fill="#E7E8FA"/>
<path d="M83.6861 272.708H197.106C197.711 272.704 198.307 272.878 198.835 273.213C199.363 273.549 199.806 274.034 200.121 274.621L207.134 287.658C207.684 288.681 208.457 289.527 209.378 290.111C210.3 290.696 211.338 291.001 212.393 290.997H304.047C304.41 291.002 304.767 290.897 305.082 290.692C305.397 290.488 305.657 290.19 305.836 289.832C306.015 289.473 306.107 289.067 306.1 288.655C306.094 288.242 305.99 287.84 305.8 287.488L278.934 237.934C278.306 236.774 277.429 235.816 276.384 235.152C275.339 234.487 274.161 234.138 272.964 234.137H71.5982C70.5109 234.137 69.4423 234.459 68.4973 235.071C67.5522 235.682 66.7632 236.562 66.2073 237.625L39.0336 289.751C38.969 289.876 38.9345 290.018 38.9336 290.164C38.9327 290.309 38.9655 290.452 39.0285 290.578C39.0916 290.704 39.1828 290.809 39.2929 290.883C39.4031 290.956 39.5283 290.996 39.656 290.997H68.6267C69.6992 291.001 70.754 290.686 71.686 290.083C72.6181 289.48 73.3948 288.609 73.9387 287.558L80.6269 274.701C80.9406 274.095 81.3877 273.593 81.9242 273.243C82.4606 272.894 83.0679 272.709 83.6861 272.708Z" fill="url(#paint1_linear_586_762)"/>
<path d="M204.206 287.299L198.368 276.525C198.178 276.172 197.912 275.879 197.594 275.677C197.276 275.474 196.918 275.368 196.553 275.369H84.1947C83.825 275.369 83.4618 275.478 83.1405 275.686C82.8193 275.894 82.5513 276.194 82.3626 276.555L76.7438 287.329C76.5522 287.698 76.4498 288.119 76.4471 288.547C76.4443 288.976 76.5413 289.398 76.7282 289.77C76.9151 290.143 77.1852 290.452 77.5112 290.668C77.8372 290.883 78.2075 290.997 78.5846 290.997H202.365C202.747 291.003 203.124 290.892 203.455 290.676C203.787 290.46 204.061 290.146 204.249 289.768C204.437 289.39 204.533 288.961 204.525 288.527C204.518 288.093 204.407 287.669 204.206 287.299Z" fill="url(#paint2_linear_586_762)"/>
<g opacity="0.27" style="mix-blend-mode:overlay">
<path d="M286.086 51.0596H126.551C128.429 72.0023 134.496 92.1791 144.287 110.046C154.078 127.912 167.335 142.995 183.042 154.141C198.749 165.286 216.49 172.198 234.908 174.347C253.326 176.497 271.932 173.828 289.303 166.543V54.7173C289.303 53.7472 288.965 52.8169 288.361 52.1309C287.758 51.4449 286.94 51.0596 286.086 51.0596Z" fill="white"/>
</g>
<path d="M131.31 41.9102L134.562 50.2224C135.504 52.6591 137.049 54.7319 139.008 56.1883C140.968 57.6447 143.257 58.4218 145.598 58.4249H200.402C202.738 58.426 205.024 57.6563 206.983 56.2092C208.942 54.762 210.489 52.6997 211.438 50.2722L214.69 41.96L131.31 41.9102Z" fill="#E7E8FA"/>
<path d="M291.013 41.9102H223.114C222.935 42.5385 222.841 43.1936 222.833 43.8537V97.0558C222.833 97.9466 222.987 98.8287 223.288 99.6516C223.588 100.475 224.028 101.222 224.582 101.852C225.136 102.481 225.795 102.98 226.519 103.32C227.243 103.66 228.019 103.834 228.802 103.833H299.892V52.0064C299.892 49.3287 298.957 46.7607 297.292 44.8673C295.626 42.9739 293.368 41.9102 291.013 41.9102Z" fill="#003096"/>
<path d="M245.37 117.786H184.027C181.524 117.786 179.495 120.093 179.495 122.939V163.364C179.495 166.21 181.524 168.516 184.027 168.516H245.37C247.873 168.516 249.902 166.21 249.902 163.364V122.939C249.902 120.093 247.873 117.786 245.37 117.786Z" fill="#003096"/>
<path d="M299.892 147.427H246.606C245.404 147.429 244.253 147.973 243.404 148.939C242.554 149.905 242.076 151.214 242.074 152.58V192.974C242.076 194.34 242.554 195.649 243.404 196.615C244.253 197.581 245.404 198.125 246.606 198.127H299.892V147.427Z" fill="#003096"/>
<path d="M158.353 43.2256H74.9119V184.214H158.353V43.2256Z" fill="#003096"/>
<path d="M161.903 27.418H71.3704V176.31H161.903V27.418Z" fill="#E7E8FA"/>
<path d="M159.413 172.244H73.8511V31.5146H159.413V172.244ZM74.4296 171.586H158.835V32.1326H74.4296V171.586Z" fill="#E56E6B"/>
<path d="M142.907 71.3418H88.4373V76.1756H142.907V71.3418Z" fill="#003096"/>
<path d="M142.907 104.61H88.4373V109.444H142.907V104.61Z" fill="#003096"/>
<path d="M149.657 82.7529H81.6702V87.5868H149.657V82.7529Z" fill="#003096"/>
<path d="M149.657 92.7998H81.6702V97.6336H149.657V92.7998Z" fill="#003096"/>
<path d="M117.76 64.9688C121.606 63.1685 123.439 58.1648 121.856 53.7926C120.272 49.4204 115.872 47.3355 112.026 49.1358C108.181 50.9361 106.347 55.9399 107.931 60.312C109.514 64.6842 113.915 66.7691 117.76 64.9688Z" fill="url(#paint3_linear_586_762)"/>
<path d="M146.186 181.304L138.954 174.337L132.274 181.304V149.36H146.186V181.304Z" fill="url(#paint4_linear_586_762)"/>
<path d="M138.752 161.809C145.738 161.809 151.401 155.37 151.401 147.427C151.401 139.484 145.738 133.045 138.752 133.045C131.767 133.045 126.104 139.484 126.104 147.427C126.104 155.37 131.767 161.809 138.752 161.809Z" fill="url(#paint5_linear_586_762)"/>
<path d="M138.752 156.098C142.964 156.098 146.379 152.216 146.379 147.427C146.379 142.638 142.964 138.756 138.752 138.756C134.541 138.756 131.126 142.638 131.126 147.427C131.126 152.216 134.541 156.098 138.752 156.098Z" fill="url(#paint6_linear_586_762)"/>
<path d="M310.744 10.2861H225.945C221.786 10.2861 218.415 14.1192 218.415 18.8475V86.0528C218.415 90.7811 221.786 94.6142 225.945 94.6142H310.744C314.903 94.6142 318.274 90.7811 318.274 86.0528V18.8475C318.274 14.1192 314.903 10.2861 310.744 10.2861Z" fill="#003096"/>
<mask id="mask0_586_762" style="mask-type:luminance" maskUnits="userSpaceOnUse" x="218" y="10" width="101" height="85">
<path d="M310.753 10.2861H225.954C221.795 10.2861 218.424 14.1192 218.424 18.8475V86.0528C218.424 90.7811 221.795 94.6142 225.954 94.6142H310.753C314.912 94.6142 318.283 90.7811 318.283 86.0528V18.8475C318.283 14.1192 314.912 10.2861 310.753 10.2861Z" fill="white"/>
</mask>
<g mask="url(#mask0_586_762)">
<path d="M263.015 30.8577L251.05 20.0339L282.063 17.5322L301.111 44.4721L284.991 40.8542L263.015 30.8577Z" fill="url(#paint7_linear_586_762)"/>
<path d="M265.978 58.7944C265.978 58.7944 269.677 70.0169 267.205 77.3723C266.285 84.349 283.86 79.1264 286.63 70.3956C285.709 64.7844 282.317 60.9273 282.01 49.7148C281.703 38.5023 265.671 51.449 265.978 58.7944Z" fill="url(#paint8_linear_586_762)"/>
<g opacity="0.32" style="mix-blend-mode:multiply">
<path d="M282.948 57.9671C282.63 56.484 282.396 54.9793 282.247 53.4622L272.491 48.2695C268.984 51.1399 265.881 55.5253 266.022 58.7943C267.106 62.2839 267.787 65.919 268.047 69.6082C277.102 67.5152 281.195 61.7445 282.948 57.9671Z" fill="#FFA26E"/>
</g>
<path d="M258.466 41.4819C258.466 41.4819 254.135 55.3555 258.325 60.9667C264.856 69.7175 275.024 64.9534 279.083 59.6411C283.141 54.3289 283.01 32.4022 276.181 28.9338C269.353 25.4654 261.411 27.977 258.466 41.4819Z" fill="url(#paint9_linear_586_762)"/>
<path d="M277.548 53.3624C277.548 53.9951 277.383 54.6137 277.074 55.1398C276.765 55.6659 276.326 56.076 275.811 56.3181C275.297 56.5603 274.732 56.6236 274.186 56.5002C273.64 56.3768 273.139 56.0721 272.745 55.6246C272.352 55.1772 272.084 54.6071 271.975 53.9865C271.866 53.3659 271.922 52.7227 272.135 52.1381C272.348 51.5535 272.709 51.0538 273.171 50.7023C273.634 50.3507 274.178 50.1631 274.735 50.1631C275.481 50.1631 276.197 50.5002 276.724 51.1001C277.252 51.7001 277.548 52.5139 277.548 53.3624Z" fill="#FE746A"/>
<path d="M281.37 52.9535C281.37 52.9535 284.701 47.5416 286.63 50.5316C288.558 53.5216 280.59 58.9335 280.38 56.4119C280.335 55.7896 280.399 55.1632 280.569 54.5695C280.739 53.9757 281.012 53.4264 281.37 52.9535Z" fill="url(#paint10_linear_586_762)"/>
<path d="M282.133 54.9168C282.133 54.9168 283.79 51.4385 285.92 51.4385C286.516 50.8405 284.789 51.0697 283.86 51.8969C282.931 52.7242 281.502 54.2391 282.133 54.9168Z" fill="#FF7D5A"/>
<path d="M282.133 54.3188C282.133 54.3188 284.132 52.0962 285.148 52.8537C285.639 53.7607 281.66 55.9832 282.133 54.3188Z" fill="#FF7D5A"/>
<path d="M310.069 123.598C309.149 106.655 308.255 88.0467 304.529 82.874C298.665 74.7313 286.121 68.2529 286.121 68.2529C286.121 68.2529 279.731 80.3624 270.063 79.1664C267.433 76.9638 267.775 74.5618 267.775 74.5618C266.839 75.7113 265.775 76.7165 264.61 77.5518C262.682 78.9571 256.721 82.5352 254.766 86.3524C254.766 86.3524 251.26 92.3324 251.26 102.14C251.26 104.92 251.146 113.282 250.971 123.588L310.069 123.598Z" fill="url(#paint11_linear_586_762)"/>
<path d="M254.381 85.6549C254.381 85.6549 259.43 103.236 267.731 111.758C267.731 111.758 297.201 96.389 305.502 80.4722C300.62 75.4889 285.806 67.3262 285.806 67.3262C285.806 67.3262 280.275 75.2995 271.316 77.1334C271.316 77.1334 268.687 76.0271 267.898 73.8045C262.932 77.0255 258.383 81.0136 254.381 85.6549Z" fill="url(#paint12_linear_586_762)"/>
<path d="M294.089 72.1895C288.83 78.8671 279.757 89.0331 269.116 95.0032C266.25 89.7047 263.789 84.1361 261.761 78.3588C260.35 79.5449 258.816 80.9302 257.273 82.495C258.807 87.0996 262.375 96.6078 267.897 103.893C267.897 103.893 282.799 96.3287 299.287 75.5682C297.596 74.3722 295.799 73.2459 294.089 72.1895Z" fill="url(#paint13_linear_586_762)"/>
<path d="M284.991 64.4551C284.991 64.4551 276.076 73.4849 272.298 74.8702L271.316 77.1327L276.199 82.9233C276.199 82.9233 285.604 73.0663 287.191 68.2025L284.991 64.4551Z" fill="white"/>
<path d="M268.02 71.8105C268.02 71.8105 268.388 73.3454 270.589 74.8703L271.316 77.1328L268.266 81.6676C268.266 81.6676 265.943 77.5115 265.697 75.2889C265.452 73.0664 265.575 74.7308 265.575 74.7308L268.02 71.8105Z" fill="white"/>
<path d="M279.135 36.9668C279.135 36.9668 277.996 41.2226 278.644 43.4451C279.106 44.8921 279.825 46.2152 280.757 47.3321C280.757 47.3321 280.108 53.6311 279.784 54.548L281.248 54.7374L282.063 51.9567C282.063 51.9567 283.939 48.5481 286.665 50.5314L287.594 47.7009C287.816 48.4659 288.209 49.1526 288.734 49.6942C289.549 50.2424 288.734 45.9866 287.191 43.0265C285.648 40.0664 279.135 36.9668 279.135 36.9668Z" fill="url(#paint14_linear_586_762)"/>
<path d="M261.306 33.3594C261.306 33.3594 274.454 32.1733 287.436 43.5652L289.636 34.7447C289.636 34.7447 285.481 26.4126 270.098 23.9209C264.233 23.3628 264.233 23.9209 264.233 23.9209L261.306 33.3594Z" fill="url(#paint15_linear_586_762)"/>
<path d="M278.215 30.6185C277.145 29.2231 276.137 27.9075 275.287 26.6318C272.035 21.7681 275.085 18.6585 275.217 18.509C275.52 18.29 275.851 18.1252 276.199 18.0206C275.987 17.7972 275.724 17.6468 275.44 17.5868C275.156 17.5268 274.863 17.5597 274.594 17.6817C274.594 17.6817 270.711 21.6086 274.524 27.3295C275.401 28.6351 276.418 29.9607 277.496 31.376C280.704 35.552 284.342 40.2961 283.877 44.6914L284.842 44.831C285.35 39.9274 281.563 34.9839 278.215 30.6185Z" fill="url(#paint16_linear_586_762)"/>
<path d="M283.123 47.542C283.123 47.542 281.721 41.9507 284 40.8244C286.06 40.2264 286.63 47.2031 286.402 47.1931C286.174 47.1832 285.569 49.1965 283.123 47.542Z" fill="url(#paint17_linear_586_762)"/>
<path d="M270.343 45.5788C270.88 45.5788 271.316 45.0835 271.316 44.4725C271.316 43.8615 270.88 43.3662 270.343 43.3662C269.806 43.3662 269.37 43.8615 269.37 44.4725C269.37 45.0835 269.806 45.5788 270.343 45.5788Z" fill="url(#paint18_linear_586_762)"/>
<path d="M261.796 43.6345C262.334 43.6345 262.769 43.1392 262.769 42.5282C262.769 41.9172 262.334 41.4219 261.796 41.4219C261.259 41.4219 260.823 41.9172 260.823 42.5282C260.823 43.1392 261.259 43.6345 261.796 43.6345Z" fill="url(#paint19_linear_586_762)"/>
<path d="M261.788 53.1137C263.526 53.5004 265.282 53.7733 267.047 53.931C267.215 53.9429 267.378 54.0033 267.52 54.1066C267.662 54.2098 267.778 54.3525 267.858 54.5211C267.938 54.6897 267.978 54.8787 267.976 55.0701C267.974 55.2616 267.929 55.4492 267.845 55.6153C267.327 56.4035 266.602 56.9851 265.776 57.2769C264.949 57.5687 264.063 57.5557 263.243 57.2399C262.617 57.1003 262.037 56.7624 261.572 56.2652C261.107 55.768 260.775 55.1317 260.613 54.4293C260.585 54.2476 260.595 54.0607 260.645 53.8847C260.694 53.7088 260.78 53.5491 260.896 53.4195C261.011 53.29 261.153 53.1944 261.309 53.1411C261.464 53.0878 261.629 53.0784 261.788 53.1137Z" fill="url(#paint20_linear_586_762)"/>
<path d="M267.056 53.9306C265.29 53.7741 263.534 53.5012 261.797 53.1133H261.709C261.656 53.5917 261.823 54.2595 262.857 54.7379C264.4 55.4355 266.302 55.2063 267.056 53.9306Z" fill="white"/>
<path d="M269.589 41.4818C270.081 41.2965 270.611 41.2931 271.104 41.4722C271.597 41.6513 272.027 42.0036 272.333 42.4785C272.333 42.4785 272.78 42.5383 272.78 41.8406C272.78 41.143 272 40.246 270.825 40.0566C270.532 39.9688 270.223 39.9891 269.941 40.1145C269.659 40.2399 269.419 40.4639 269.256 40.7543C269.225 40.8259 269.209 40.9049 269.21 40.9848C269.211 41.0647 269.228 41.1432 269.26 41.2141C269.293 41.285 269.34 41.3461 269.397 41.3927C269.454 41.4392 269.52 41.4697 269.589 41.4818Z" fill="url(#paint21_linear_586_762)"/>
<path d="M261.043 39.8073C261.534 39.6219 262.064 39.6186 262.557 39.7977C263.05 39.9768 263.481 40.3291 263.786 40.804C263.786 40.804 264.233 40.8637 264.233 40.1661C264.233 39.4684 263.453 38.5714 262.27 38.382C261.978 38.295 261.67 38.3157 261.39 38.4411C261.109 38.5665 260.871 38.7902 260.71 39.0797C260.678 39.1513 260.663 39.2303 260.663 39.3102C260.664 39.3901 260.681 39.4687 260.714 39.5396C260.746 39.6104 260.793 39.6716 260.85 39.7181C260.907 39.7646 260.973 39.7952 261.043 39.8073Z" fill="url(#paint22_linear_586_762)"/>
<path d="M264.233 45.4688C264.233 45.4688 261.875 50.3823 262.2 50.7511C262.524 51.1199 264.155 50.1032 264.155 50.1032C264.155 50.1032 263.909 51.2993 264.155 51.2993C264.4 51.2993 265.031 49.0867 264.97 48.8076C264.908 48.5285 263.26 49.8043 263.26 49.8043L264.233 45.4688Z" fill="#FE746A"/>
</g>
<path d="M240.058 11.5015C239.757 9.44365 238.933 7.53106 237.687 6.00049C236.44 4.46991 234.826 3.38855 233.045 2.89029C219.637 -0.967336 205.596 -0.967336 192.188 2.89029C190.407 3.38855 188.793 4.46991 187.546 6.00049C186.3 7.53106 185.476 9.44365 185.175 11.5015C183.94 19.7075 183.94 28.0926 185.175 36.2986C185.476 38.3564 186.3 40.269 187.546 41.7996C188.793 43.3302 190.407 44.4115 192.188 44.9098C202.799 47.9655 213.838 48.5956 224.665 46.7636C225.296 49.0559 227.356 54.0094 233.667 56.7303L231.695 45.2586L233.045 44.9098C234.826 44.4115 236.44 43.3302 237.687 41.7996C238.933 40.269 239.757 38.3564 240.058 36.2986C241.294 28.0926 241.294 19.7075 240.058 11.5015Z" fill="url(#paint23_linear_586_762)"/>
<path d="M229.425 20.8209H196.229C195.975 20.8222 195.724 20.7665 195.489 20.6569C195.254 20.5473 195.04 20.386 194.86 20.1822C194.68 19.9785 194.537 19.7363 194.44 19.4696C194.342 19.203 194.292 18.917 194.292 18.6282C194.292 18.3394 194.342 18.0535 194.44 17.7868C194.537 17.5201 194.68 17.278 194.86 17.0742C195.04 16.8705 195.254 16.7092 195.489 16.5996C195.724 16.49 195.975 16.4343 196.229 16.4356H229.442C229.696 16.4343 229.948 16.49 230.183 16.5996C230.418 16.7092 230.632 16.8705 230.812 17.0742C230.992 17.278 231.135 17.5201 231.232 17.7868C231.33 18.0535 231.38 18.3394 231.38 18.6282C231.38 18.9187 231.329 19.2063 231.23 19.4743C231.132 19.7423 230.987 19.9853 230.806 20.1894C230.624 20.3934 230.408 20.5542 230.171 20.6627C229.934 20.7711 229.68 20.8249 229.425 20.8209Z" fill="white"/>
<path d="M211.464 30.5184H196.229C195.717 30.5184 195.226 30.2877 194.862 29.8767C194.499 29.4658 194.294 28.9081 194.292 28.3257C194.292 27.7415 194.496 27.1813 194.859 26.7682C195.223 26.3551 195.715 26.123 196.229 26.123H211.482C211.995 26.123 212.488 26.3551 212.851 26.7682C213.215 27.1813 213.419 27.7415 213.419 28.3257C213.418 28.6158 213.366 28.9028 213.267 29.1702C213.168 29.4376 213.024 29.6801 212.842 29.8838C212.66 30.0876 212.445 30.2485 212.209 30.3574C211.972 30.4663 211.719 30.521 211.464 30.5184Z" fill="white"/>
<path d="M329.021 31.2853C329.029 31.8886 328.88 32.4811 328.592 32.9875C328.303 33.494 327.889 33.8913 327.401 34.1291C326.913 34.3668 326.375 34.4342 325.853 34.3225C325.332 34.2109 324.851 33.9254 324.473 33.5024C324.095 33.0793 323.836 32.5378 323.729 31.9468C323.622 31.3558 323.672 30.7421 323.873 30.1837C324.074 29.6253 324.417 29.1476 324.857 28.8113C325.298 28.475 325.817 28.2954 326.347 28.2953C326.696 28.2887 327.043 28.3612 327.367 28.5085C327.691 28.6558 327.986 28.875 328.235 29.1533C328.484 29.4316 328.682 29.7634 328.817 30.1295C328.951 30.4955 329.021 30.8885 329.021 31.2853Z" fill="#003096"/>
<path d="M316.898 137.311H251.269C248.592 137.311 246.422 139.778 246.422 142.822V186.067C246.422 189.111 248.592 191.579 251.269 191.579H316.898C319.575 191.579 321.745 189.111 321.745 186.067V142.822C321.745 139.778 319.575 137.311 316.898 137.311Z" fill="#FF8895"/>
<mask id="mask1_586_762" style="mask-type:luminance" maskUnits="userSpaceOnUse" x="246" y="137" width="76" height="55">
<path d="M316.898 137.311H251.269C248.592 137.311 246.422 139.778 246.422 142.822V186.068C246.422 189.111 248.592 191.579 251.269 191.579H316.898C319.575 191.579 321.745 189.111 321.745 186.068V142.822C321.745 139.778 319.575 137.311 316.898 137.311Z" fill="white"/>
</mask>
<g mask="url(#mask1_586_762)">
<path d="M278.39 151.044C278.39 151.044 276.777 153.037 276.383 153.775C275.948 153.817 275.537 154.018 275.211 154.346C274.884 154.675 274.659 155.114 274.568 155.599C274.27 157.313 274.568 157.662 274.568 157.662C274.309 157.72 274.064 157.84 273.85 158.014C273.635 158.189 273.455 158.413 273.322 158.672C273.19 158.931 273.107 159.22 273.08 159.518C273.053 159.817 273.082 160.118 273.166 160.403C273.569 162.805 277.18 162.396 277.18 162.396L280.196 153.486L278.39 151.044Z" fill="#5A1D20"/>
<path d="M279.582 149.31L271.281 141.805L292.792 140.071L306.002 158.749L294.826 156.247L279.582 149.31Z" fill="url(#paint24_linear_586_762)"/>
<path d="M281.633 168.685C281.633 168.685 284.202 176.469 282.51 181.572C281.861 186.436 294.054 182.788 295.974 176.708C295.334 172.821 292.985 170.15 292.775 162.366C292.564 154.582 281.423 163.582 281.633 168.685Z" fill="url(#paint25_linear_586_762)"/>
<g opacity="0.32" style="mix-blend-mode:multiply">
<path d="M293.406 168.117C293.187 167.086 293.023 166.041 292.915 164.988L286.122 161.39C283.685 163.383 281.537 166.423 281.633 168.685C282.385 171.108 282.859 173.63 283.045 176.19C289.356 174.735 292.196 170.738 293.406 168.117Z" fill="#FFA26E"/>
</g>
<path d="M276.453 156.706C276.453 156.706 273.446 166.324 276.348 170.211C280.88 176.28 287.936 172.961 290.75 169.294C293.564 165.626 293.467 150.357 288.734 148.005C284 145.653 278.469 147.317 276.453 156.706Z" fill="url(#paint26_linear_586_762)"/>
<path d="M287.708 167.15C288.788 167.15 289.663 166.155 289.663 164.928C289.663 163.7 288.788 162.705 287.708 162.705C286.629 162.705 285.753 163.7 285.753 164.928C285.753 166.155 286.629 167.15 287.708 167.15Z" fill="#BD6356"/>
<path d="M292.31 164.638C292.31 164.638 294.624 160.881 295.983 162.954C297.342 165.027 291.802 168.784 291.653 167.03C291.618 166.602 291.658 166.17 291.771 165.76C291.884 165.349 292.067 164.968 292.31 164.638Z" fill="url(#paint27_linear_586_762)"/>
<path d="M292.862 166.004C292.862 166.004 294.019 163.592 295.492 163.592C295.904 163.174 294.712 163.323 294.063 163.901C293.415 164.479 292.407 165.526 292.862 166.004Z" fill="#5A1D20"/>
<path d="M292.818 165.586C292.818 165.586 294.203 164.041 294.905 164.589C295.282 165.197 292.512 166.732 292.818 165.586Z" fill="#5A1D20"/>
<path d="M312.217 213.635C311.577 201.904 310.955 188.977 308.378 185.389C304.31 179.738 295.615 175.243 295.615 175.243C295.615 175.243 291.179 183.645 284.474 182.818C282.641 181.293 282.887 179.628 282.887 179.628C282.238 180.424 281.502 181.121 280.695 181.702C279.354 182.698 275.208 185.17 273.867 187.801C272.194 191.136 271.352 194.926 271.43 198.765C271.43 200.698 271.351 206.489 271.229 213.645L312.217 213.635Z" fill="url(#paint28_linear_586_762)"/>
<path d="M273.595 187.313C273.595 187.313 277.101 199.512 282.852 205.422C282.852 205.422 303.293 194.758 309.052 183.725C305.669 180.257 295.387 174.605 295.387 174.605C292.786 178.067 289.256 180.459 285.341 181.413C284.338 180.978 283.498 180.161 282.966 179.1C279.525 181.334 276.371 184.098 273.595 187.313Z" fill="url(#paint29_linear_586_762)"/>
<path d="M301.137 178.024C297.491 182.659 291.197 189.715 283.816 193.851C281.827 190.175 280.12 186.31 278.714 182.3C277.635 183.197 276.597 184.155 275.603 185.171C276.663 188.36 279.109 194.958 282.966 200.011C282.966 200.011 293.318 194.758 304.74 180.367C303.565 179.509 302.294 178.712 301.137 178.024Z" fill="url(#paint30_linear_586_762)"/>
<path d="M294.826 172.612C294.826 172.612 288.646 178.871 286.016 179.838L285.341 181.413L288.725 185.4C288.725 185.4 295.247 178.562 296.351 175.194L294.826 172.612Z" fill="white"/>
<path d="M283.053 177.715C283.399 178.636 284.02 179.388 284.807 179.838L285.315 181.412L283.194 184.552C283.194 184.552 281.59 181.662 281.441 180.127C281.292 178.592 281.362 179.738 281.362 179.738L283.053 177.715Z" fill="white"/>
<path d="M278.39 151.044C284.969 150.96 291.372 153.459 296.518 158.12L298.043 152.011C298.043 152.011 295.159 146.23 284.491 144.496C280.424 144.107 280.424 144.496 280.424 144.496L278.39 151.044Z" fill="url(#paint31_linear_586_762)"/>
<path d="M285.341 158.748C285.343 158.902 285.304 159.053 285.23 159.183C285.156 159.312 285.05 159.413 284.925 159.473C284.801 159.534 284.663 159.55 284.53 159.522C284.396 159.493 284.274 159.419 284.177 159.311C284.081 159.203 284.015 159.064 283.988 158.913C283.961 158.762 283.974 158.605 284.025 158.463C284.077 158.32 284.164 158.198 284.277 158.112C284.389 158.026 284.522 157.981 284.658 157.981C284.747 157.979 284.836 157.998 284.919 158.036C285.001 158.074 285.077 158.13 285.14 158.202C285.204 158.273 285.255 158.358 285.289 158.452C285.324 158.546 285.341 158.646 285.341 158.748Z" fill="#5A1D20"/>
<path d="M279.407 157.403C279.405 157.555 279.364 157.702 279.289 157.827C279.214 157.952 279.108 158.049 278.984 158.105C278.861 158.162 278.725 158.176 278.595 158.145C278.465 158.114 278.345 158.04 278.252 157.933C278.158 157.825 278.095 157.688 278.069 157.54C278.044 157.391 278.058 157.237 278.109 157.097C278.161 156.958 278.247 156.839 278.358 156.755C278.469 156.671 278.599 156.626 278.732 156.626C278.821 156.626 278.91 156.646 278.992 156.685C279.075 156.725 279.15 156.782 279.212 156.854C279.275 156.927 279.325 157.012 279.358 157.107C279.392 157.201 279.408 157.302 279.407 157.403Z" fill="#5A1D20"/>
<path d="M278.732 164.748C279.94 165.013 281.161 165.203 282.387 165.316C282.504 165.325 282.616 165.367 282.714 165.438C282.813 165.509 282.894 165.607 282.949 165.724C283.005 165.84 283.035 165.971 283.034 166.103C283.034 166.236 283.005 166.366 282.948 166.482C282.588 167.03 282.084 167.434 281.509 167.636C280.935 167.839 280.318 167.829 279.749 167.608C279.308 167.509 278.902 167.269 278.577 166.915C278.252 166.562 278.023 166.111 277.917 165.615C277.904 165.492 277.917 165.368 277.954 165.252C277.991 165.136 278.052 165.031 278.131 164.947C278.211 164.862 278.306 164.8 278.411 164.766C278.515 164.731 278.625 164.725 278.732 164.748Z" fill="#5A1D20"/>
<path d="M282.387 165.316C281.161 165.204 279.94 165.014 278.732 164.748H278.671C278.671 165.077 278.75 165.535 279.468 165.874C280.538 166.373 281.861 166.193 282.387 165.316Z" fill="white"/>
<path d="M284.14 156.675C284.478 156.543 284.844 156.535 285.185 156.653C285.527 156.771 285.827 157.009 286.043 157.333C286.043 157.333 286.358 157.333 286.358 156.894C286.358 156.456 285.815 155.788 284.999 155.659C284.795 155.599 284.579 155.614 284.382 155.702C284.186 155.79 284.018 155.945 283.904 156.147C283.877 156.198 283.861 156.256 283.86 156.315C283.858 156.374 283.869 156.433 283.893 156.486C283.917 156.539 283.952 156.584 283.995 156.617C284.038 156.65 284.088 156.67 284.14 156.675Z" fill="#5A1D20"/>
<path d="M278.215 155.519C278.552 155.387 278.918 155.379 279.26 155.497C279.602 155.615 279.902 155.853 280.117 156.177C280.117 156.177 280.424 156.177 280.424 155.738C280.424 155.3 279.88 154.632 279.065 154.503C278.862 154.444 278.647 154.46 278.452 154.547C278.257 154.635 278.091 154.79 277.978 154.991C277.951 155.042 277.936 155.1 277.934 155.159C277.932 155.218 277.944 155.277 277.967 155.33C277.991 155.383 278.026 155.428 278.069 155.461C278.113 155.494 278.163 155.514 278.215 155.519Z" fill="#5A1D20"/>
<path d="M280.424 159.456C280.424 159.456 278.793 162.855 279.012 163.114C279.232 163.373 280.371 162.665 280.371 162.665C280.371 162.665 280.205 163.503 280.371 163.503C280.683 162.987 280.876 162.391 280.932 161.768C280.88 161.569 279.749 162.476 279.749 162.476L280.424 159.456Z" fill="#924843"/>
<path d="M290.145 153.546C290.145 153.546 291.548 154.921 291.022 155.948C290.729 156.392 290.571 156.933 290.571 157.488C290.571 158.043 290.729 158.583 291.022 159.028C291.723 159.945 290.522 160.742 290.82 162.117C291.118 163.493 291.828 163.712 291.828 163.712L292.284 164.639C292.284 164.639 294.037 161.43 295.545 162.645C295.545 162.645 296.553 163.104 295.746 165.047C295.204 165.743 294.557 166.324 293.835 166.762L293.231 167.22L293.739 169.044C293.739 169.044 296.649 171.556 298.455 169.383C300.261 167.21 298.657 165.954 298.657 165.954C299.158 165.797 299.607 165.475 299.947 165.028C300.287 164.581 300.503 164.029 300.567 163.443C300.6 162.889 300.505 162.336 300.293 161.836C300.081 161.337 299.759 160.908 299.358 160.592C299.358 160.592 299.665 160.014 298.963 158.878C298.262 157.742 296.491 158.081 296.491 158.081C294.633 156.147 292.483 154.611 290.145 153.546Z" fill="#5A1D20"/>
<path d="M290.127 149.121C289.382 148.124 288.681 147.237 288.094 146.35C285.841 142.971 287.954 140.798 288.05 140.709C288.258 140.557 288.486 140.443 288.725 140.37C288.577 140.217 288.394 140.115 288.197 140.074C288 140.034 287.798 140.057 287.612 140.141C287.612 140.141 284.921 142.862 287.559 146.828C288.164 147.735 288.874 148.652 289.619 149.629C291.846 152.539 294.37 155.828 294.046 158.878L294.721 158.968C295.071 155.599 292.442 152.17 290.127 149.121Z" fill="url(#paint32_linear_586_762)"/>
<path d="M293.528 160.881C293.528 160.881 292.555 157.004 294.16 156.227C295.588 155.808 295.983 160.652 295.825 160.642C295.667 160.632 295.22 162.077 293.528 160.881Z" fill="url(#paint33_linear_586_762)"/>
</g>
<path d="M306.528 125.201C306.733 123.799 307.296 122.496 308.147 121.454C308.998 120.412 310.099 119.677 311.314 119.341C320.436 116.72 329.988 116.72 339.11 119.341C340.325 119.677 341.426 120.412 342.277 121.454C343.128 122.496 343.691 123.799 343.896 125.201C344.738 130.785 344.738 136.491 343.896 142.075C343.692 143.477 343.129 144.779 342.278 145.819C341.427 146.86 340.325 147.592 339.11 147.925C331.889 149.982 324.381 150.388 317.02 149.121C316.582 150.686 315.18 154.045 310.884 155.899L312.226 148.095L311.349 147.856C310.134 147.522 309.033 146.79 308.181 145.75C307.33 144.709 306.767 143.407 306.563 142.005C305.717 136.446 305.705 130.765 306.528 125.201Z" fill="url(#paint34_linear_586_762)"/>
<path d="M326.452 124.673L327.487 128.281C327.573 128.573 327.738 128.826 327.959 129.005C328.179 129.184 328.443 129.28 328.714 129.278H332.045C332.318 129.277 332.584 129.374 332.805 129.555C333.026 129.736 333.191 129.993 333.276 130.288C333.361 130.582 333.361 130.9 333.277 131.195C333.193 131.49 333.028 131.747 332.808 131.929L330.108 134.172C329.888 134.355 329.724 134.613 329.639 134.907C329.554 135.202 329.552 135.52 329.634 135.816L330.669 139.424C330.751 139.718 330.75 140.034 330.666 140.327C330.581 140.62 330.418 140.875 330.198 141.056C329.979 141.237 329.714 141.335 329.443 141.335C329.172 141.336 328.908 141.239 328.688 141.059L325.962 138.826C325.74 138.647 325.475 138.55 325.203 138.55C324.931 138.55 324.666 138.647 324.445 138.826L321.745 141.059C321.525 141.243 321.26 141.343 320.987 141.345C320.713 141.347 320.447 141.249 320.225 141.067C320.004 140.886 319.839 140.628 319.755 140.333C319.67 140.038 319.67 139.719 319.755 139.424L320.79 135.816C320.874 135.521 320.875 135.204 320.791 134.909C320.708 134.613 320.545 134.356 320.325 134.172L317.625 131.939C317.405 131.758 317.241 131.502 317.157 131.208C317.072 130.914 317.072 130.597 317.156 130.302C317.239 130.008 317.403 129.752 317.623 129.569C317.842 129.387 318.107 129.289 318.379 129.288H321.719C321.99 129.29 322.254 129.194 322.474 129.015C322.694 128.836 322.86 128.583 322.946 128.291L323.972 124.683C324.047 124.376 324.208 124.104 324.432 123.911C324.655 123.717 324.928 123.611 325.209 123.61C325.49 123.609 325.763 123.712 325.988 123.904C326.212 124.096 326.375 124.366 326.452 124.673Z" fill="url(#paint35_linear_586_762)"/>
<path d="M330.432 194.53C330.432 195.131 330.275 195.719 329.981 196.219C329.688 196.719 329.27 197.108 328.782 197.339C328.293 197.569 327.756 197.629 327.237 197.511C326.718 197.394 326.242 197.105 325.868 196.68C325.494 196.254 325.239 195.713 325.136 195.123C325.033 194.533 325.086 193.922 325.288 193.367C325.491 192.811 325.833 192.337 326.273 192.003C326.713 191.669 327.23 191.49 327.758 191.49C328.467 191.493 329.146 191.814 329.646 192.383C330.147 192.953 330.43 193.725 330.432 194.53Z" fill="#FF8895"/>
<path d="M249.533 101.829H179.863C177.022 101.829 174.718 104.448 174.718 107.68V153.586C174.718 156.817 177.022 159.436 179.863 159.436H249.533C252.375 159.436 254.679 156.817 254.679 153.586V107.68C254.679 104.448 252.375 101.829 249.533 101.829Z" fill="#A4E3C2"/>
<mask id="mask2_586_762" style="mask-type:luminance" maskUnits="userSpaceOnUse" x="174" y="101" width="81" height="59">
<path d="M249.533 101.819H179.863C177.022 101.819 174.718 104.439 174.718 107.67V153.576C174.718 156.807 177.022 159.427 179.863 159.427H249.533C252.375 159.427 254.679 156.807 254.679 153.576V107.67C254.679 104.439 252.375 101.819 249.533 101.819Z" fill="white"/>
</mask>
<g mask="url(#mask2_586_762)">
<path d="M218.853 117.587C218.853 117.587 227.084 124.843 225.287 133.952C223.49 143.062 219.616 140.56 217.547 144.646C215.479 148.733 212.84 152.969 207.028 152.819C201.217 152.67 198.044 146.53 200.121 135.686C201.38 129.194 204.669 123.443 209.378 119.501C210.676 118.276 212.232 117.455 213.893 117.12C215.554 116.784 217.263 116.945 218.853 117.587Z" fill="url(#paint36_linear_586_762)"/>
<path d="M213.532 139.853C213.274 140.566 213.15 141.332 213.168 142.103C213.186 142.874 213.346 143.632 213.638 144.328C212.035 144.743 210.362 144.643 208.806 144.039C207.251 143.436 205.873 142.352 204.828 140.909C205.31 138.226 205.31 135.46 204.828 132.776L213.532 139.853Z" fill="url(#paint37_linear_586_762)"/>
<path d="M217.626 115.803L226.19 108.049L203.995 106.265L190.365 125.54L201.9 122.949L217.626 115.803Z" fill="url(#paint38_linear_586_762)"/>
<path d="M220.852 123.418C220.852 123.418 223.955 133.384 220.957 137.371C216.285 143.63 209.009 140.211 206.099 136.424C203.189 132.637 203.294 116.929 208.177 114.448C213.059 111.966 218.774 113.73 220.852 123.418Z" fill="url(#paint39_linear_586_762)"/>
<path d="M207.23 131.899C207.228 132.352 207.345 132.797 207.566 133.175C207.786 133.553 208.1 133.848 208.469 134.024C208.837 134.199 209.242 134.245 209.634 134.158C210.026 134.071 210.386 133.853 210.669 133.533C210.951 133.213 211.144 132.804 211.223 132.359C211.301 131.915 211.262 131.453 211.11 131.034C210.957 130.614 210.699 130.256 210.367 130.003C210.035 129.751 209.645 129.616 209.246 129.616C208.713 129.616 208.201 129.856 207.824 130.284C207.446 130.712 207.232 131.292 207.23 131.899Z" fill="#FE746A"/>
<path d="M204.495 131.609C204.495 131.609 202.102 127.732 200.708 129.875C199.315 132.018 205.021 135.855 205.179 134.081C205.214 133.638 205.171 133.192 205.054 132.768C204.936 132.344 204.747 131.95 204.495 131.609Z" fill="url(#paint40_linear_586_762)"/>
<path d="M203.925 133.015C203.925 133.015 202.733 130.523 201.208 130.523C200.778 130.095 202.023 130.254 202.68 130.852C203.338 131.45 204.399 132.527 203.925 133.015Z" fill="#FF7D5A"/>
<path d="M203.969 132.587C203.969 132.587 202.54 130.992 201.813 131.59C201.488 132.178 204.285 133.773 203.969 132.587Z" fill="#FF7D5A"/>
<path d="M184.579 180.636C185.237 168.527 185.877 155.191 188.541 151.484C192.731 145.663 201.69 141.019 201.69 141.019C201.69 141.019 206.266 149.69 213.182 148.832C215.066 147.258 214.821 145.543 214.821 145.543C215.489 146.367 216.25 147.087 217.083 147.686C218.468 148.683 222.745 151.264 224.095 153.985C225.822 157.419 226.692 161.323 226.611 165.277C226.611 167.271 226.69 173.251 226.813 180.636H184.579Z" fill="url(#paint41_linear_586_762)"/>
<path d="M224.428 153.476C224.428 153.476 220.817 166.064 214.874 172.154C214.874 172.154 193.783 161.191 187.84 149.769C191.346 146.191 201.935 140.36 201.935 140.36C204.624 143.918 208.268 146.37 212.305 147.337C213.343 146.897 214.209 146.053 214.751 144.955C218.309 147.271 221.566 150.139 224.428 153.476Z" fill="url(#paint42_linear_586_762)"/>
<path d="M196.01 143.839C199.77 148.623 206.266 155.899 213.883 160.164C215.937 156.358 217.697 152.356 219.143 148.204C220.159 149.051 221.255 150.038 222.36 151.194C221.264 154.493 218.704 161.3 214.751 166.513C214.751 166.513 204.074 161.101 192.293 146.241C193.503 145.424 194.783 144.596 196.01 143.839Z" fill="url(#paint43_linear_586_762)"/>
<path d="M212.384 126.338C212.771 126.338 213.085 125.981 213.085 125.54C213.085 125.1 212.771 124.743 212.384 124.743C211.997 124.743 211.683 125.1 211.683 125.54C211.683 125.981 211.997 126.338 212.384 126.338Z" fill="url(#paint44_linear_586_762)"/>
<path d="M217.801 124.145C217.801 124.356 217.875 124.559 218.007 124.709C218.138 124.858 218.317 124.942 218.503 124.942C218.689 124.942 218.867 124.858 218.998 124.709C219.13 124.559 219.204 124.356 219.204 124.145C219.204 123.934 219.13 123.731 218.998 123.581C218.867 123.432 218.689 123.348 218.503 123.348C218.317 123.348 218.138 123.432 218.007 123.581C217.875 123.731 217.801 123.934 217.801 124.145Z" fill="url(#paint45_linear_586_762)"/>
<path d="M218.503 131.72C217.254 131.999 215.993 132.195 214.725 132.308C214.604 132.317 214.488 132.36 214.387 132.434C214.286 132.508 214.203 132.611 214.146 132.731C214.089 132.852 214.06 132.987 214.061 133.124C214.063 133.261 214.095 133.395 214.155 133.514C214.526 134.078 215.045 134.494 215.637 134.702C216.229 134.91 216.864 134.899 217.451 134.67C217.9 134.576 218.316 134.338 218.652 133.985C218.987 133.632 219.227 133.179 219.344 132.676C219.369 132.545 219.364 132.409 219.33 132.28C219.296 132.151 219.235 132.034 219.151 131.939C219.068 131.844 218.965 131.774 218.851 131.736C218.738 131.697 218.618 131.692 218.503 131.72Z" fill="url(#paint46_linear_586_762)"/>
<path d="M214.733 132.308C215.999 132.195 217.257 131.999 218.503 131.72H218.573C218.573 132.059 218.485 132.537 217.749 132.886C216.636 133.404 215.277 133.175 214.733 132.308Z" fill="white"/>
<path d="M212.884 123.388C212.535 123.253 212.157 123.247 211.804 123.37C211.452 123.494 211.142 123.74 210.92 124.075C210.92 124.075 210.605 124.075 210.605 123.617C210.605 123.158 211.166 122.481 212.007 122.341C212.218 122.28 212.439 122.296 212.641 122.388C212.843 122.479 213.014 122.641 213.129 122.849C213.129 122.849 213.366 123.258 212.884 123.388Z" fill="url(#paint47_linear_586_762)"/>
<path d="M219.02 122.211C218.671 122.075 218.294 122.068 217.942 122.189C217.589 122.311 217.279 122.556 217.056 122.889C217.056 122.889 216.741 122.939 216.741 122.44C216.741 121.942 217.302 121.294 218.143 121.165C218.353 121.103 218.574 121.117 218.775 121.207C218.977 121.296 219.148 121.456 219.265 121.663C219.265 121.663 219.484 122.062 219.02 122.211Z" fill="url(#paint48_linear_586_762)"/>
<path d="M216.758 126.258C216.758 126.258 218.441 129.766 218.213 130.035C217.985 130.304 216.811 129.577 216.811 129.577C216.811 129.577 216.986 130.434 216.811 130.434C216.636 130.434 216.171 128.839 216.232 128.64C216.294 128.441 217.451 129.377 217.451 129.377L216.758 126.258Z" fill="#FE746A"/>
<path d="M213.226 142.564C213.226 142.564 208.045 143.78 205.039 138.826L201.532 140.202C201.138 140.6 202.321 150.497 206.406 150.926C207.482 151.117 208.583 150.943 209.573 150.428C210.563 149.912 211.397 149.076 211.972 148.025C211.972 148.025 215.426 151.404 216.565 149.52C217.705 147.637 216.153 145.534 216.153 145.534L213.226 142.564Z" fill="white"/>
<path d="M212.884 117.577C211.848 118.034 210.923 118.763 210.184 119.706C209.444 120.648 208.913 121.777 208.632 122.999C207.493 127.354 210.815 129.836 208.22 133.484C205.626 137.132 204.591 137.261 204.285 141.617C203.978 145.972 201.655 149.59 197.132 149.401C192.609 149.211 187.796 142.793 189.874 137.022C191.951 131.251 195.475 130.893 197.763 128.421C199.043 127.192 199.96 125.547 200.393 123.707C200.393 123.707 202.549 118.634 212.884 117.577Z" fill="url(#paint49_linear_586_762)"/>
<path d="M218.853 117.587C212.065 117.497 205.458 120.074 200.147 124.883L198.578 118.574C198.578 118.574 201.55 112.594 212.559 110.83C216.758 110.431 216.758 110.83 216.758 110.83L218.853 117.587Z" fill="url(#paint50_linear_586_762)"/>
<path d="M206.748 115.623C207.511 114.627 208.238 113.69 208.843 112.773C211.166 109.284 208.992 107.042 208.896 106.952C208.679 106.796 208.442 106.679 208.194 106.603C208.346 106.443 208.534 106.336 208.738 106.294C208.941 106.251 209.151 106.276 209.343 106.364C209.343 106.364 212.121 109.175 209.395 113.261C208.773 114.198 208.036 115.145 207.265 116.161C204.968 119.151 202.365 122.55 202.707 125.69L202.006 125.789C201.646 122.281 204.355 118.743 206.748 115.623Z" fill="url(#paint51_linear_586_762)"/>
<path d="M203.241 127.732C203.241 127.732 204.25 123.746 202.593 122.928C201.12 122.5 200.708 127.493 200.84 127.483C200.971 127.473 201.488 128.918 203.241 127.732Z" fill="url(#paint52_linear_586_762)"/>
</g>
<path d="M231.783 106.056C231.988 104.653 232.551 103.35 233.402 102.308C234.252 101.266 235.354 100.532 236.569 100.195C245.691 97.5742 255.243 97.5742 264.365 100.195C265.579 100.534 266.679 101.269 267.53 102.311C268.38 103.352 268.944 104.654 269.151 106.056C269.992 111.64 269.992 117.345 269.151 122.929C268.945 124.331 268.382 125.632 267.531 126.672C266.68 127.713 265.579 128.445 264.365 128.78C257.146 130.866 249.634 131.296 242.267 130.046C241.837 131.61 240.435 134.969 236.131 136.823L237.48 129.019L236.56 128.78C235.345 128.447 234.244 127.714 233.392 126.674C232.541 125.633 231.978 124.331 231.774 122.929C230.935 117.345 230.938 111.639 231.783 106.056Z" fill="url(#paint53_linear_586_762)"/>
<path d="M254.223 107.312C253.37 107.306 252.541 107.633 251.874 108.238C251.308 108.754 250.84 109.395 250.498 110.122C250.155 109.395 249.687 108.754 249.121 108.238C248.454 107.635 247.625 107.308 246.772 107.312C246.19 107.325 245.616 107.472 245.085 107.744C244.554 108.016 244.077 108.407 243.683 108.894C243.288 109.381 242.984 109.954 242.789 110.577C242.594 111.201 242.512 111.863 242.547 112.524C242.547 115.733 244.809 117.926 248.245 121.245L250.173 123.129C250.263 123.218 250.378 123.268 250.498 123.268C250.617 123.268 250.732 123.218 250.822 123.129L252.75 121.245C256.178 117.926 258.448 115.733 258.448 112.524C258.484 111.863 258.401 111.201 258.206 110.577C258.011 109.954 257.707 109.381 257.312 108.894C256.918 108.407 256.441 108.016 255.91 107.744C255.379 107.472 254.805 107.325 254.223 107.312Z" fill="white"/>
<path d="M181.827 92.4412C181.827 93.0325 181.673 93.6106 181.384 94.1023C181.095 94.594 180.684 94.9773 180.204 95.2036C179.723 95.4299 179.194 95.4891 178.684 95.3737C178.174 95.2583 177.706 94.9736 177.338 94.5554C176.97 94.1373 176.72 93.6045 176.618 93.0245C176.517 92.4445 176.569 91.8433 176.768 91.2969C176.967 90.7506 177.304 90.2836 177.736 89.9551C178.169 89.6265 178.677 89.4512 179.197 89.4512C179.895 89.4512 180.564 89.7662 181.057 90.3269C181.55 90.8877 181.827 91.6482 181.827 92.4412Z" fill="#A4E3C2"/>
</g>
<defs>
<linearGradient id="paint0_linear_586_762" x1="56.6965" y1="128.032" x2="289.303" y2="128.032" gradientUnits="userSpaceOnUse">
<stop stop-color="#6060E7"/>
<stop offset="1" stop-color="#8182EE"/>
</linearGradient>
<linearGradient id="paint1_linear_586_762" x1="-23.3256" y1="453.932" x2="332.612" y2="203.499" gradientUnits="userSpaceOnUse">
<stop stop-color="#003096"/>
<stop offset="1" stop-color="#6164A1"/>
</linearGradient>
<linearGradient id="paint2_linear_586_762" x1="-31.5565" y1="442.231" x2="324.382" y2="191.788" gradientUnits="userSpaceOnUse">
<stop stop-color="#434A5B"/>
<stop offset="1" stop-color="#6164A1"/>
</linearGradient>
<linearGradient id="paint3_linear_586_762" x1="104.679" y1="28.7407" x2="132.953" y2="89.435" gradientUnits="userSpaceOnUse">
<stop stop-color="#FF8D02"/>
<stop offset="1" stop-color="#FFC757"/>
</linearGradient>
<linearGradient id="paint4_linear_586_762" x1="134.781" y1="134.988" x2="144.698" y2="187.278" gradientUnits="userSpaceOnUse">
<stop stop-color="#FF8D02"/>
<stop offset="1" stop-color="#FFC757"/>
</linearGradient>
<linearGradient id="paint5_linear_586_762" x1="121.607" y1="99.8659" x2="169.095" y2="201.79" gradientUnits="userSpaceOnUse">
<stop stop-color="#FF3843"/>
<stop offset="1" stop-color="#FF8457"/>
</linearGradient>
<linearGradient id="paint6_linear_586_762" x1="141.487" y1="156.786" x2="132.756" y2="133.739" gradientUnits="userSpaceOnUse">
<stop stop-color="#FF8D02"/>
<stop offset="1" stop-color="#FFC757"/>
</linearGradient>
<linearGradient id="paint7_linear_586_762" x1="262.121" y1="52.4255" x2="285.143" y2="26.6922" gradientUnits="userSpaceOnUse">
<stop stop-color="#434A5B"/>
<stop offset="1" stop-color="#6164A1"/>
</linearGradient>
<linearGradient id="paint8_linear_586_762" x1="280.783" y1="76.3357" x2="271.07" y2="60.5592" gradientUnits="userSpaceOnUse">
<stop stop-color="#FFB58E"/>
<stop offset="0.33" stop-color="#FEB38B"/>
<stop offset="0.59" stop-color="#FCAD81"/>
<stop offset="0.83" stop-color="#F9A370"/>
<stop offset="1" stop-color="#F5985F"/>
</linearGradient>
<linearGradient id="paint9_linear_586_762" x1="266.477" y1="33.1099" x2="273.452" y2="64.687" gradientUnits="userSpaceOnUse">
<stop stop-color="#FFB58E"/>
<stop offset="0.33" stop-color="#FEB38B"/>
<stop offset="0.59" stop-color="#FCAD81"/>
<stop offset="0.83" stop-color="#F9A370"/>
<stop offset="1" stop-color="#F5985F"/>
</linearGradient>
<linearGradient id="paint10_linear_586_762" x1="280.38" y1="34.5251" x2="285.796" y2="59.0311" gradientUnits="userSpaceOnUse">
<stop stop-color="#FFB58E"/>
<stop offset="0.33" stop-color="#FEB38B"/>
<stop offset="0.59" stop-color="#FCAD81"/>
<stop offset="0.83" stop-color="#F9A370"/>
<stop offset="1" stop-color="#F5985F"/>
</linearGradient>
<linearGradient id="paint11_linear_586_762" x1="326.4" y1="173.541" x2="259.933" y2="99.2448" gradientUnits="userSpaceOnUse">
<stop stop-color="#434A5B"/>
<stop offset="1" stop-color="#6164A1"/>
</linearGradient>
<linearGradient id="paint12_linear_586_762" x1="254.381" y1="89.5419" x2="305.502" y2="89.5419" gradientUnits="userSpaceOnUse">
<stop stop-color="#FF8D02"/>
<stop offset="1" stop-color="#FFC757"/>
</linearGradient>
<linearGradient id="paint13_linear_586_762" x1="257.273" y1="88.0365" x2="299.287" y2="88.0365" gradientUnits="userSpaceOnUse">
<stop stop-color="#9A2802"/>
<stop offset="1" stop-color="#FF5057"/>
</linearGradient>
<linearGradient id="paint14_linear_586_762" x1="280.748" y1="34.0665" x2="288.212" y2="61.6802" gradientUnits="userSpaceOnUse">
<stop stop-color="#B62C01"/>
<stop offset="1" stop-color="#7C0C0A"/>
</linearGradient>
<linearGradient id="paint15_linear_586_762" x1="275.699" y1="32.273" x2="271.938" y2="54.6275" gradientUnits="userSpaceOnUse">
<stop stop-color="#434A5B"/>
<stop offset="1" stop-color="#6164A1"/>
</linearGradient>
<linearGradient id="paint16_linear_586_762" x1="280.766" y1="18.4591" x2="276.554" y2="43.4477" gradientUnits="userSpaceOnUse">
<stop stop-color="#434A5B"/>
<stop offset="1" stop-color="#6164A1"/>
</linearGradient>
<linearGradient id="paint17_linear_586_762" x1="282.688" y1="44.3634" x2="286.586" y2="44.5269" gradientUnits="userSpaceOnUse">
<stop stop-color="#FF8D02"/>
<stop offset="1" stop-color="#FFC757"/>
</linearGradient>
<linearGradient id="paint18_linear_586_762" x1="273.455" y1="31.7451" x2="267.684" y2="49.9687" gradientUnits="userSpaceOnUse">
<stop stop-color="#434A5B"/>
<stop offset="1" stop-color="#6164A1"/>
</linearGradient>
<linearGradient id="paint19_linear_586_762" x1="265.084" y1="29.0931" x2="259.313" y2="47.3168" gradientUnits="userSpaceOnUse">
<stop stop-color="#434A5B"/>
<stop offset="1" stop-color="#6164A1"/>
</linearGradient>
<linearGradient id="paint20_linear_586_762" x1="266.285" y1="61.6352" x2="261.213" y2="47.8553" gradientUnits="userSpaceOnUse">
<stop stop-color="#9A2802"/>
<stop offset="1" stop-color="#FF5057"/>
</linearGradient>
<linearGradient id="paint21_linear_586_762" x1="270.904" y1="37.1862" x2="271.119" y2="45.4672" gradientUnits="userSpaceOnUse">
<stop stop-color="#434A5B"/>
<stop offset="1" stop-color="#6164A1"/>
</linearGradient>
<linearGradient id="paint22_linear_586_762" x1="262.349" y1="35.5216" x2="262.575" y2="43.8025" gradientUnits="userSpaceOnUse">
<stop stop-color="#434A5B"/>
<stop offset="1" stop-color="#6164A1"/>
</linearGradient>
<linearGradient id="paint23_linear_586_762" x1="227.566" y1="70.9826" x2="197.496" y2="-2.31196" gradientUnits="userSpaceOnUse">
<stop stop-color="#FF8D02"/>
<stop offset="1" stop-color="#FFC757"/>
</linearGradient>
<linearGradient id="paint24_linear_586_762" x1="278.96" y1="164.27" x2="294.929" y2="146.425" gradientUnits="userSpaceOnUse">
<stop stop-color="#434A5B"/>
<stop offset="1" stop-color="#6164A1"/>
</linearGradient>
<linearGradient id="paint25_linear_586_762" x1="291.907" y1="180.854" x2="285.169" y2="169.91" gradientUnits="userSpaceOnUse">
<stop stop-color="#B6614A"/>
<stop offset="0.32" stop-color="#B35F47"/>
<stop offset="0.57" stop-color="#A9593D"/>
<stop offset="0.8" stop-color="#984E2D"/>
<stop offset="1" stop-color="#834119"/>
</linearGradient>
<linearGradient id="paint26_linear_586_762" x1="281.984" y1="150.875" x2="286.817" y2="172.768" gradientUnits="userSpaceOnUse">
<stop stop-color="#B6614A"/>
<stop offset="0.32" stop-color="#B35F47"/>
<stop offset="0.57" stop-color="#A9593D"/>
<stop offset="0.8" stop-color="#984E2D"/>
<stop offset="1" stop-color="#834119"/>
</linearGradient>
<linearGradient id="paint27_linear_586_762" x1="291.626" y1="151.851" x2="295.383" y2="168.853" gradientUnits="userSpaceOnUse">
<stop stop-color="#B6614A"/>
<stop offset="0.32" stop-color="#B35F47"/>
<stop offset="0.57" stop-color="#A9593D"/>
<stop offset="0.8" stop-color="#984E2D"/>
<stop offset="1" stop-color="#834119"/>
</linearGradient>
<linearGradient id="paint28_linear_586_762" x1="323.542" y1="248.279" x2="277.437" y2="196.74" gradientUnits="userSpaceOnUse">
<stop stop-color="#434A5B"/>
<stop offset="1" stop-color="#6164A1"/>
</linearGradient>
<linearGradient id="paint29_linear_586_762" x1="273.595" y1="190.014" x2="309.052" y2="190.014" gradientUnits="userSpaceOnUse">
<stop stop-color="#FF8D02"/>
<stop offset="1" stop-color="#FFC757"/>
</linearGradient>
<linearGradient id="paint30_linear_586_762" x1="275.603" y1="188.968" x2="304.74" y2="188.968" gradientUnits="userSpaceOnUse">
<stop stop-color="#9A2802"/>
<stop offset="1" stop-color="#FF5057"/>
</linearGradient>
<linearGradient id="paint31_linear_586_762" x1="288.383" y1="150.297" x2="285.77" y2="165.797" gradientUnits="userSpaceOnUse">
<stop stop-color="#434A5B"/>
<stop offset="1" stop-color="#6164A1"/>
</linearGradient>
<linearGradient id="paint32_linear_586_762" x1="291.889" y1="140.709" x2="288.973" y2="158.042" gradientUnits="userSpaceOnUse">
<stop stop-color="#434A5B"/>
<stop offset="1" stop-color="#6164A1"/>
</linearGradient>
<linearGradient id="paint33_linear_586_762" x1="293.234" y1="158.663" x2="295.932" y2="158.776" gradientUnits="userSpaceOnUse">
<stop stop-color="#FF8D02"/>
<stop offset="1" stop-color="#FFC757"/>
</linearGradient>
<linearGradient id="paint34_linear_586_762" x1="315.048" y1="165.626" x2="335.504" y2="115.77" gradientUnits="userSpaceOnUse">
<stop stop-color="#6060E7"/>
<stop offset="1" stop-color="#8182EE"/>
</linearGradient>
<linearGradient id="paint35_linear_586_762" x1="317.117" y1="132.497" x2="333.342" y2="132.497" gradientUnits="userSpaceOnUse">
<stop stop-color="#FF8D02"/>
<stop offset="1" stop-color="#FFC757"/>
</linearGradient>
<linearGradient id="paint36_linear_586_762" x1="217.486" y1="111.936" x2="201.731" y2="170.235" gradientUnits="userSpaceOnUse">
<stop stop-color="#C56B01"/>
<stop offset="1" stop-color="#B32C0A"/>
</linearGradient>
<linearGradient id="paint37_linear_586_762" x1="213.638" y1="138.687" x2="204.828" y2="138.687" gradientUnits="userSpaceOnUse">
<stop stop-color="#FFB58E"/>
<stop offset="0.33" stop-color="#FEB38B"/>
<stop offset="0.59" stop-color="#FCAD81"/>
<stop offset="0.83" stop-color="#F9A370"/>
<stop offset="1" stop-color="#F5985F"/>
</linearGradient>
<linearGradient id="paint38_linear_586_762" x1="218.266" y1="131.221" x2="201.797" y2="112.811" gradientUnits="userSpaceOnUse">
<stop stop-color="#434A5B"/>
<stop offset="1" stop-color="#6164A1"/>
</linearGradient>
<linearGradient id="paint39_linear_586_762" x1="215.154" y1="117.408" x2="210.153" y2="140" gradientUnits="userSpaceOnUse">
<stop stop-color="#FFB58E"/>
<stop offset="0.33" stop-color="#FEB38B"/>
<stop offset="0.59" stop-color="#FCAD81"/>
<stop offset="0.83" stop-color="#F9A370"/>
<stop offset="1" stop-color="#F5985F"/>
</linearGradient>
<linearGradient id="paint40_linear_586_762" x1="205.196" y1="118.414" x2="201.328" y2="135.958" gradientUnits="userSpaceOnUse">
<stop stop-color="#FFB58E"/>
<stop offset="0.33" stop-color="#FEB38B"/>
<stop offset="0.59" stop-color="#FCAD81"/>
<stop offset="0.83" stop-color="#F9A370"/>
<stop offset="1" stop-color="#F5985F"/>
</linearGradient>
<linearGradient id="paint41_linear_586_762" x1="172.886" y1="216.377" x2="220.458" y2="163.208" gradientUnits="userSpaceOnUse">
<stop stop-color="#434A5B"/>
<stop offset="1" stop-color="#6164A1"/>
</linearGradient>
<linearGradient id="paint42_linear_586_762" x1="224.428" y1="156.257" x2="187.84" y2="156.257" gradientUnits="userSpaceOnUse">
<stop stop-color="#FF8D02"/>
<stop offset="1" stop-color="#FFC757"/>
</linearGradient>
<linearGradient id="paint43_linear_586_762" x1="222.36" y1="155.181" x2="192.293" y2="155.181" gradientUnits="userSpaceOnUse">
<stop stop-color="#9A2802"/>
<stop offset="1" stop-color="#FF5057"/>
</linearGradient>
<linearGradient id="paint44_linear_586_762" x1="210.158" y1="116.431" x2="214.286" y2="129.462" gradientUnits="userSpaceOnUse">
<stop stop-color="#434A5B"/>
<stop offset="1" stop-color="#6164A1"/>
</linearGradient>
<linearGradient id="paint45_linear_586_762" x1="216.145" y1="114.527" x2="220.273" y2="127.568" gradientUnits="userSpaceOnUse">
<stop stop-color="#434A5B"/>
<stop offset="1" stop-color="#6164A1"/>
</linearGradient>
<linearGradient id="paint46_linear_586_762" x1="215.286" y1="137.819" x2="218.913" y2="127.957" gradientUnits="userSpaceOnUse">
<stop stop-color="#9A2802"/>
<stop offset="1" stop-color="#FF5057"/>
</linearGradient>
<linearGradient id="paint47_linear_586_762" x1="211.981" y1="120.328" x2="211.834" y2="126.247" gradientUnits="userSpaceOnUse">
<stop stop-color="#434A5B"/>
<stop offset="1" stop-color="#6164A1"/>
</linearGradient>
<linearGradient id="paint48_linear_586_762" x1="218.099" y1="119.132" x2="217.941" y2="125.051" gradientUnits="userSpaceOnUse">
<stop stop-color="#434A5B"/>
<stop offset="1" stop-color="#6164A1"/>
</linearGradient>
<linearGradient id="paint49_linear_586_762" x1="204.863" y1="110.541" x2="190.146" y2="165.044" gradientUnits="userSpaceOnUse">
<stop stop-color="#C56B01"/>
<stop offset="1" stop-color="#B32C0A"/>
</linearGradient>
<linearGradient id="paint50_linear_586_762" x1="208.545" y1="116.81" x2="211.247" y2="132.805" gradientUnits="userSpaceOnUse">
<stop stop-color="#434A5B"/>
<stop offset="1" stop-color="#6164A1"/>
</linearGradient>
<linearGradient id="paint51_linear_586_762" x1="204.925" y1="106.922" x2="207.943" y2="124.799" gradientUnits="userSpaceOnUse">
<stop stop-color="#434A5B"/>
<stop offset="1" stop-color="#6164A1"/>
</linearGradient>
<linearGradient id="paint52_linear_586_762" x1="203.713" y1="126.397" x2="200.924" y2="126.52" gradientUnits="userSpaceOnUse">
<stop stop-color="#FF8D02"/>
<stop offset="1" stop-color="#FFC757"/>
</linearGradient>
<linearGradient id="paint53_linear_586_762" x1="240.303" y1="146.52" x2="260.759" y2="96.6646" gradientUnits="userSpaceOnUse">
<stop stop-color="#FF3843"/>
<stop offset="1" stop-color="#FF8457"/>
</linearGradient>
<clipPath id="clip0_586_762">
<rect width="346" height="314" fill="white"/>
</clipPath>
</defs>
</svg>
