<svg width="346" height="314" viewBox="0 0 346 314" fill="none" xmlns="http://www.w3.org/2000/svg">
<g clip-path="url(#clip0_586_1133)">
<path d="M123.881 52.7907L120.152 53.8558L117.649 48.4588L111.989 49.3901L109.409 45.6377L107.367 46.8563L110.822 51.8743L116.184 50.9926L118.787 56.6075L124.397 55.0025L123.881 52.7907Z" fill="#50BFA5"/>
<path d="M332.462 213.568L328.733 214.633L326.23 209.236L320.573 210.167L317.991 206.415L315.948 207.631L319.403 212.652L324.765 211.767L327.369 217.382L332.978 215.78L332.462 213.568Z" fill="#50BFA5"/>
<path d="M100.909 310.795C100.909 310.795 81.0144 248.002 79.4186 234.152C77.8228 220.302 88.9483 224.592 88.9483 224.592C88.9483 224.592 79.5888 198.199 86.3551 191.935C93.1213 185.671 99.228 197.347 99.228 197.347C99.228 197.347 101.276 165.307 108.492 165.297C121.929 165.275 121.665 200.237 121.665 200.237C121.665 200.237 125.094 186.55 132.304 190.303C143.156 195.962 127.594 223.393 127.594 223.393C127.594 223.393 141.424 223.393 146.278 229.897C154.981 241.545 100.909 310.795 100.909 310.795Z" fill="#50BFA5"/>
<path d="M107.412 302.485C107.412 302.485 50.0609 293.554 37.5869 284.09C25.1129 274.626 37.4592 270.361 37.4592 270.361C37.4592 270.361 8.64938 256.607 8.98184 247.255C9.3143 237.902 23.6288 242.658 23.6288 242.658C23.6288 242.658 -0.646253 216.879 5.10135 211.983C15.804 202.866 43.8691 229.662 43.8691 229.662C43.8691 229.662 35.5363 216.919 44.3133 214.9C57.5479 211.861 67.3143 243.282 67.3143 243.282C67.3143 243.282 64.8328 230.873 73.9636 232.528C90.334 235.493 107.412 302.485 107.412 302.485Z" fill="#50BFA5"/>
<path d="M73.9583 232.528C64.8116 230.987 67.309 243.282 67.309 243.282C67.309 243.282 57.5426 211.862 44.308 214.901C35.531 216.919 43.8638 229.662 43.8638 229.662C43.8638 229.662 15.804 202.868 5.10669 211.983L107.239 302.5C105.401 293.854 89.2967 235.109 73.9583 232.528Z" fill="#3C8F7C"/>
<path d="M123.729 309.852C123.729 309.852 93.5256 281.249 78.3174 278.27C63.1093 275.29 65.8434 285.368 65.8434 285.368C65.8434 285.368 35.6665 260.793 28.6715 266.748C21.6765 272.702 29.2433 278.451 29.2433 278.451C29.2433 278.451 4.10653 274.304 0.518596 281.985C-5.01091 293.787 36.3288 300.212 36.3288 300.212C36.3288 300.212 19.0035 301.331 23.0303 308.732C29.0731 319.893 123.729 309.852 123.729 309.852Z" fill="#355389"/>
<path d="M0.510742 281.985C4.10665 274.307 29.2355 278.451 29.2355 278.451C29.2355 278.451 21.6713 272.702 28.6636 266.748C35.656 260.793 64.8967 282.027 64.8967 282.027C64.8967 282.027 58.0028 269.754 73.2136 272.734C88.4244 275.714 123.729 309.851 123.729 309.851L0.510742 281.985Z" fill="#003096"/>
<path d="M171.814 14.856C161.646 16.4115 158.627 28.8376 167.08 34.3956C168.591 35.4067 169.662 36.8908 170.096 38.5764L171.633 44.3548C171.838 45.123 172.345 45.7913 173.055 46.2268C173.764 46.6623 174.624 46.8331 175.463 46.7053L179.314 46.1134C180.153 45.9858 180.909 45.5684 181.432 44.9445C181.954 44.3205 182.205 43.5359 182.133 42.7474C181.601 36.7783 180.939 34.616 183.022 31.9535C189.115 24.1688 181.976 13.2956 171.814 14.856Z" fill="#F7CC7F"/>
<path d="M172.851 40.1173C172.189 35.0052 171.255 29.6057 170.944 28.0751C165.117 28.3748 167.332 22.6558 170.021 24.9815C170.787 25.6428 171.149 26.5419 171.388 27.5277C173.326 27.3649 175.211 26.8535 176.939 26.0218C176.846 24.7611 176.713 23.7927 177.091 22.9976C177.662 21.779 179.319 21.4471 179.995 22.636C180.121 22.8637 180.196 23.1128 180.215 23.3682C180.235 23.6235 180.199 23.88 180.109 24.1221C179.718 25.1301 178.543 25.7964 177.519 26.3165C177.825 30.381 178.248 34.4776 178.782 38.5099L178.234 38.5743C177.702 34.6114 177.287 30.5766 176.982 26.5791C175.266 27.3732 173.408 27.8661 171.5 28.033C171.899 29.9921 172.779 35.2529 173.402 40.0529L172.851 40.1173ZM168.175 26.8713C168.707 27.389 169.561 27.6144 170.835 27.5648C170.617 26.6955 170.303 25.9153 169.651 25.3605C168.197 24.1072 167.308 25.9995 168.175 26.8713ZM177.599 23.2057C177.282 23.8818 177.402 24.7512 177.476 25.7493C178.309 25.3085 179.274 24.7586 179.588 23.9487C179.809 23.3815 179.561 22.5815 178.942 22.4329C178.873 22.418 177.822 22.7301 177.599 23.2057Z" fill="#FAE0B2"/>
<path d="M170.05 38.4325C170.05 38.4796 170.082 38.5266 170.095 38.5762L171.633 44.3546C171.837 45.1227 172.345 45.791 173.055 46.2265C173.764 46.662 174.624 46.8329 175.463 46.705L179.314 46.1131C180.153 45.9856 180.909 45.5681 181.431 44.9442C181.954 44.3202 182.205 43.5356 182.133 42.7471C181.897 40.092 181.633 38.1898 181.601 36.6641L170.05 38.4325Z" fill="#96D9C9"/>
<path d="M164.276 10.5391L161.231 5.37247C161.104 5.13357 161.081 4.85825 161.167 4.60408C161.253 4.3499 161.442 4.13655 161.693 4.00861C161.944 3.88068 162.238 3.84808 162.514 3.91762C162.791 3.98716 163.027 4.15345 163.175 4.38175L166.215 9.54837C166.356 9.7888 166.389 10.0716 166.306 10.3345C166.223 10.5974 166.032 10.8189 165.774 10.9502C165.515 11.0816 165.212 11.1121 164.93 11.035C164.647 10.9579 164.409 10.7795 164.268 10.5391H164.276Z" fill="#FAE0B2"/>
<path d="M157.632 23.0512L151.007 22.5113C150.714 22.4877 150.443 22.3565 150.254 22.1468C150.064 21.9371 149.972 21.666 149.998 21.393C150.023 21.1201 150.164 20.8677 150.389 20.6914C150.614 20.5152 150.905 20.4294 151.198 20.4531L157.826 20.993C158.119 21.017 158.39 21.1484 158.579 21.3584C158.768 21.5683 158.86 21.8396 158.834 22.1125C158.809 22.3855 158.668 22.6377 158.442 22.8138C158.217 22.9898 157.925 23.0752 157.632 23.0512Z" fill="#FAE0B2"/>
<path d="M151.063 41.9568C150.96 41.8611 150.878 41.7474 150.822 41.6223C150.767 41.4971 150.738 41.3629 150.738 41.2274C150.738 41.0919 150.767 40.9577 150.822 40.8325C150.878 40.7074 150.96 40.5937 151.063 40.498C152.695 38.9961 154.476 37.6419 156.382 36.4533C156.627 36.3131 156.92 36.2666 157.2 36.3235C157.481 36.3805 157.727 36.5366 157.886 36.7589C158.046 36.9812 158.106 37.2524 158.056 37.5155C158.005 37.7787 157.846 38.0132 157.614 38.1698C155.822 39.2853 154.149 40.5566 152.616 41.9667C152.408 42.1554 152.128 42.2601 151.837 42.2583C151.547 42.2564 151.268 42.1481 151.063 41.9568Z" fill="#FAE0B2"/>
<path d="M180.647 10.2591C180.505 10.2254 180.372 10.1659 180.255 10.084C180.138 10.0022 180.04 9.89958 179.965 9.78218C179.891 9.66477 179.843 9.53486 179.823 9.39993C179.803 9.265 179.811 9.12771 179.849 8.99597C180.6 6.37447 181.058 3.68773 181.216 0.978543C181.231 0.704948 181.363 0.448296 181.582 0.265054C181.8 0.081812 182.088 -0.0130121 182.382 0.00143949C182.676 0.0158911 182.951 0.138435 183.148 0.342114C183.345 0.545794 183.447 0.813928 183.431 1.08752C183.266 3.93987 182.783 6.76858 181.992 9.52849C181.916 9.79055 181.732 10.0142 181.48 10.1509C181.229 10.2876 180.929 10.3265 180.647 10.2591Z" fill="#FAE0B2"/>
<path d="M187.474 18.1925C187.432 18.0626 187.418 17.9262 187.432 17.7911C187.446 17.656 187.489 17.5249 187.558 17.4053C187.627 17.2857 187.721 17.1799 187.834 17.094C187.946 17.0081 188.076 16.9437 188.216 16.9046L195.105 14.9727C195.244 14.9335 195.391 14.9203 195.536 14.9339C195.681 14.9475 195.822 14.9876 195.951 15.0518C196.079 15.1161 196.193 15.2033 196.285 15.3085C196.378 15.4137 196.447 15.5349 196.489 15.665C196.531 15.7951 196.545 15.9316 196.531 16.0668C196.516 16.202 196.473 16.3332 196.404 16.4529C196.335 16.5726 196.241 16.6785 196.128 16.7645C196.015 16.8505 195.885 16.9149 195.746 16.9541L188.857 18.8885C188.575 18.967 188.27 18.9377 188.011 18.8072C187.751 18.6767 187.558 18.4556 187.474 18.1925Z" fill="#FAE0B2"/>
<path d="M198.791 35.2627C198.69 35.2624 198.589 35.2499 198.491 35.2256C196.099 34.5969 193.787 33.7335 191.591 32.6497C191.46 32.5873 191.344 32.5012 191.249 32.3965C191.154 32.2917 191.082 32.1704 191.038 32.0397C190.994 31.9089 190.978 31.7712 190.992 31.6347C191.005 31.4982 191.048 31.3656 191.117 31.2446C191.186 31.1236 191.281 31.0166 191.395 30.9299C191.509 30.8432 191.64 30.7786 191.782 30.7397C191.923 30.7008 192.071 30.6885 192.217 30.7034C192.363 30.7184 192.505 30.7603 192.634 30.8268C194.688 31.8419 196.853 32.6498 199.092 33.2367C199.349 33.305 199.57 33.4573 199.716 33.6658C199.862 33.8742 199.923 34.1248 199.886 34.3713C199.849 34.6178 199.719 34.8437 199.517 35.0075C199.316 35.1713 199.058 35.2619 198.791 35.2627Z" fill="#FAE0B2"/>
<path d="M317.344 65.7568L315.916 71.1142L306.405 69.9253L303.277 77.5192L296.003 77.7149L296.109 81.1428L305.838 80.8827L308.801 73.6876L318.695 74.9235L320.847 66.859L317.344 65.7568Z" fill="#F48C7F"/>
<path d="M270.278 311.498H103.079C96.696 311.498 91.5176 306.498 91.5176 300.33V293.687C91.5176 287.52 96.6933 282.52 103.079 282.52H270.278C262.632 290.594 262.499 302.933 269.973 311.161L270.278 311.498Z" fill="#B75742"/>
<path d="M267.701 285.841H174.96C168.577 285.841 163.398 290.841 163.398 297.009C163.398 303.178 168.574 308.177 174.96 308.177H267.709C265.583 304.788 264.462 300.934 264.461 297.01C264.459 293.085 265.577 289.231 267.701 285.841Z" fill="#FAE0B2"/>
<path d="M211.542 262.393C211.593 262.291 211.614 262.177 211.604 262.064C211.593 261.951 211.551 261.843 211.481 261.75C211.411 261.658 211.316 261.583 211.206 261.535C211.096 261.487 210.974 261.467 210.853 261.477H122.381C115.444 261.477 109.824 266.183 109.824 272.001C109.824 277.812 115.444 282.525 122.381 282.525H210.877C210.998 282.534 211.121 282.514 211.231 282.465C211.342 282.417 211.436 282.342 211.506 282.249C211.576 282.156 211.618 282.047 211.629 281.934C211.639 281.82 211.617 281.707 211.566 281.604C209.846 278.656 208.944 275.356 208.94 272.001C208.935 268.647 209.83 265.345 211.542 262.393Z" fill="#86B1F2"/>
<path d="M210.983 263.436H167.135C158.997 263.436 152.401 267.384 152.401 272.253C152.401 277.122 158.997 281.073 167.135 281.073H211.27C209.788 278.346 208.992 275.341 208.942 272.285C208.892 269.229 209.59 266.203 210.983 263.436Z" fill="#F7CC7F"/>
<path d="M199.658 267.617H193.945C192.719 267.617 191.722 268.001 191.722 268.474V268.551H199.656L199.658 267.617Z" fill="#B75742"/>
<path d="M204.531 269.767C204.531 268.578 203.039 267.617 201.198 267.617H193.871C195.267 267.617 196.397 268.348 196.397 269.247L196.363 292.304L200.411 289.331L204.539 292.304L204.531 269.767Z" fill="#F47458"/>
<path d="M195.275 260.719H143.797C139.233 260.719 135.533 256.627 135.533 251.582C135.533 246.536 139.233 242.447 143.797 242.447H195.275C191.341 247.512 191.187 254.94 194.908 260.199L195.275 260.719Z" fill="#FAE0B2"/>
<path d="M135.538 251.582C135.538 246.536 139.326 242.447 143.999 242.447H196.256C196.382 242.438 196.499 242.382 196.582 242.292C196.664 242.203 196.705 242.087 196.695 241.969C196.703 241.853 196.661 241.739 196.579 241.651C196.496 241.564 196.381 241.51 196.256 241.501H113.356C108.199 241.501 104.018 246.014 104.018 251.582C104.018 257.152 108.199 261.665 113.356 261.665H196.256C196.381 261.655 196.496 261.601 196.578 261.514C196.66 261.426 196.702 261.312 196.695 261.197C196.7 261.138 196.693 261.08 196.674 261.024C196.654 260.968 196.623 260.917 196.583 260.873C196.542 260.828 196.492 260.792 196.436 260.765C196.38 260.739 196.319 260.723 196.256 260.719H143.999C139.326 260.719 135.538 256.627 135.538 251.582Z" fill="#003096"/>
<path d="M186.288 246.936H180.577C179.349 246.936 178.351 247.314 178.351 247.778V247.854H186.288V246.936Z" fill="#184655"/>
<path d="M191.158 249.046C191.158 247.882 189.666 246.936 187.828 246.936H180.498C181.894 246.936 183.024 247.654 183.024 248.536L182.99 271.146L187.04 268.239L191.166 271.146L191.158 249.046Z" fill="#3C8F7C"/>
<path d="M277.295 107.276L284.896 105.413L279.744 169.389L270.627 169.671L275.226 109.599C275.267 109.059 275.489 108.545 275.86 108.128C276.231 107.711 276.733 107.413 277.295 107.276Z" fill="#184655"/>
<path d="M280.425 171.212C280.248 171.23 280.07 171.23 279.893 171.212C278.385 171.046 277.268 169.649 277.399 168.091L282.452 107.934C282.582 106.376 283.912 105.247 285.423 105.413C286.934 105.579 288.048 106.978 287.918 108.536L282.864 168.693C282.758 170.06 281.715 171.103 280.425 171.212Z" fill="#F7CC7F"/>
<path d="M210.483 174.417C210.483 174.462 210.483 174.504 210.483 174.549C210.72 176.996 212.757 178.829 215.031 178.638L279.21 173.288C281.484 173.1 283.133 170.962 282.896 168.515C282.896 168.411 282.872 168.31 282.854 168.208L210.483 174.417Z" fill="#F7CC7F"/>
<path d="M255.174 239.029C250.972 241.199 238.125 237.395 238.125 237.048C237.942 240.317 223.742 272.318 223.742 272.318V282.163C223.742 282.163 252.998 283.461 252.581 281.053C252.163 278.646 250.586 280.211 244.751 275.664C244.219 275.26 236.037 273.489 238.253 268.976C242.732 259.879 252.216 244.711 255.174 239.029Z" fill="#F7A491"/>
<path d="M222.792 282.52H254.82C255.974 282.411 256.246 281.529 255.836 281.001C254.996 279.907 248.857 277.321 244.732 275.607C237.551 276.387 224.912 273.814 223.755 272.288C220.712 276.09 222.138 282.396 222.792 282.52Z" fill="#3C8F7C"/>
<path d="M215.755 216.057C215.321 214.846 243.33 203.777 244.583 205.042C246.801 207.272 229.423 249.271 229.423 249.271L249.371 254.95C249.371 254.95 270.116 206.437 269.252 197.562C268.387 188.688 257.993 178.607 235.474 185.059C212.954 191.512 215.755 216.057 215.755 216.057Z" fill="#355389"/>
<path d="M273.757 244.551C269.028 243.751 262.9 243.523 257.996 243.443C258.573 247.51 261.379 268.368 260.868 269.65C259.576 272.795 257.229 275.468 254.177 277.272C254.177 277.272 275.925 295.546 277.239 293.435C278.553 291.325 276.268 291.607 274.845 284.645C274.72 284.026 271.574 274.307 271.387 269.066C271.01 259.07 273.595 250.104 273.757 244.551Z" fill="#F7A491"/>
<path d="M266.778 176.315C263.744 174.809 255.873 174.754 247.208 175.277C230.322 176.32 213.648 179.368 197.592 184.347L186.844 187.661L186.878 177.399C186.878 177.399 152.685 172.072 151.504 179.963C149.714 191.852 151.938 215.976 163.329 221.36C198.717 238.089 248.307 194.712 248.488 200.387C248.727 208.008 255.629 236.37 257.392 248.786C262.297 248.865 270.725 248.863 274.382 248.08C275.082 223.755 275.417 180.607 266.778 176.315Z" fill="#003096"/>
<path d="M253.522 277.7L277.973 295.884C278.941 296.484 279.744 295.966 279.792 295.312C279.888 293.967 276.898 288.345 274.874 284.585C268.784 280.947 260.749 271.458 260.895 269.601C258.31 271.627 253.099 277.222 253.522 277.7Z" fill="#3C8F7C"/>
<path d="M198.174 77.1206C197.355 70.1285 196.49 63.1117 190.267 57.9872C185.229 53.841 178.83 53.1376 172.495 55.3568C154.555 61.643 163.797 76.4791 140.924 91.439C133.815 96.088 125.982 99.2682 120.63 105.527C113.141 114.29 115.968 124.826 122.793 131.863C155.459 165.528 191.926 120.063 194.546 109.148C196.493 101.029 198.703 81.6209 198.174 77.1206Z" fill="#13375B"/>
<path d="M191.551 116.427C189.9 113.603 188.092 110.861 186.136 108.211C183.367 103.629 176.218 101.313 176.218 101.313C176.218 101.313 173.824 101.358 171.08 101.484C170.98 101.803 170.798 102.094 170.548 102.331C169.516 103.052 163.601 102.123 159.781 104.538C146.975 114.76 150.518 164.309 151.536 179.957L190.535 180.301C190.535 180.301 185.618 146.617 193.541 137.978C199.052 131.959 195.501 123.228 191.551 116.427Z" fill="#50BFA5"/>
<path d="M173.963 84.5562C173.963 84.5562 171.819 98.8128 170.322 102.278C168.824 105.743 178.567 113.153 186.649 115.405C194.732 117.656 184.176 107.752 184.522 104.046C184.867 100.341 186.33 82.8076 186.33 82.8076L173.963 84.5562Z" fill="#F7A491"/>
<path d="M185.91 87.8326C186.147 84.9323 186.32 82.8047 186.32 82.8047L173.963 84.5558C173.963 84.5558 173.652 86.2301 173.306 88.5979C178.317 91.3051 182.82 90.4506 185.91 87.8326Z" fill="#F47458"/>
<path d="M177.838 58.515C174.619 59.35 171.825 61.2278 169.96 63.8104C166.955 68.0829 164.891 80.6651 174.795 86.5376C184.7 92.4101 192.4 84.1029 192.528 76.0013C192.655 67.8996 190.791 57.0859 177.838 58.515Z" fill="#F7A491"/>
<path d="M194.796 73.4648C193.95 75.419 192.275 76.6327 191.051 76.1745C189.828 75.7163 189.522 73.7596 190.368 71.8054C191.214 69.8512 192.889 68.6375 194.11 69.0958C195.331 69.554 195.639 71.5106 194.796 73.4648Z" fill="#F7A491"/>
<path d="M179.298 58.2498C179.298 58.2498 173.09 71.2184 167.635 72.3676C162.18 73.5169 162.26 80.0457 162.26 80.0457C162.26 80.0457 162.382 64.9743 167.494 61.5192C172.606 58.064 179.298 58.2498 179.298 58.2498Z" fill="#13375B"/>
<path d="M169.803 75.0651C170.521 77.1704 169.864 79.2434 168.335 79.6967C166.806 80.15 164.984 78.8075 164.266 76.7022C163.547 74.5969 164.204 72.5214 165.734 72.0681C167.263 71.6149 169.085 72.9647 169.803 75.0651Z" fill="#F7A491"/>
<path d="M239.559 168.7C237.221 167.913 233.737 167.814 233.795 167.526C234.029 166.362 244.368 170.097 242.971 168.398C242.195 167.452 234.46 164.101 232.577 164.653C230.75 165.191 218.771 168.321 218.771 168.321L186.027 161.176C186.027 161.176 177.764 143.687 176.955 128.66C170.125 129.522 165.473 131.092 159.537 134.161C162.398 148.527 169.359 171.824 177.053 176.195C180.288 178.033 218.933 173.993 218.933 173.993C218.933 173.993 227.444 173.433 228.84 172.936C229.904 172.557 232.614 171.132 234.091 170.741C237.452 169.857 243.437 172.081 243.455 171.467C243.469 171.021 241.95 169.505 239.559 168.7Z" fill="#F7A491"/>
<path d="M177.157 112.605C176.843 107.984 174.96 103.518 169.678 102.081C166.404 101.19 162.731 102.042 160.103 104.033C156.991 106.401 156.113 110.198 156.137 113.792C156.169 121.965 156.768 130.416 158.369 138.453C164.305 135.384 171.237 133.539 178.069 132.68C178.077 132.63 177.575 118.716 177.157 112.605Z" fill="#96D9C9"/>
<path d="M258.773 45.1944L250.078 47.4038L248.206 37.5956L251.051 37.125L252.371 44.0328L258.012 42.5988L258.773 45.1944Z" fill="#50BFA5"/>
<path d="M226.098 221.907H94.3794C92.4154 221.908 90.532 222.635 89.1434 223.928C87.7549 225.222 86.9749 226.976 86.9749 228.805V234.606C86.9749 236.435 87.7549 238.189 89.1434 239.483C90.532 240.776 92.4154 241.503 94.3794 241.504H226.098L226.029 241.437C223.319 238.809 221.811 235.303 221.824 231.659C221.836 228.015 223.369 224.519 226.098 221.907Z" fill="#F47458"/>
<path d="M223.768 224.808H153.353C151.388 224.808 149.504 225.534 148.115 226.828C146.726 228.122 145.946 229.876 145.946 231.706C145.946 233.535 146.726 235.289 148.115 236.583C149.504 237.877 151.388 238.603 153.353 238.603H223.766C222.494 236.497 221.826 234.122 221.826 231.705C221.826 229.289 222.495 226.913 223.768 224.808Z" fill="#FAE0B2"/>
<path d="M30.6848 110.584L34.3818 113.868C43.1287 121.637 50.2617 130.841 55.4227 141.019L55.9892 142.136C55.9892 142.136 65.6731 142.934 67.0269 134.783C58.6193 125.986 51.4725 116.211 45.7653 105.702L44.0152 101.891L30.6848 110.584Z" fill="#003096"/>
<path d="M44.0073 101.881C44.4807 102.515 41.8795 104.967 38.2038 107.355C34.5281 109.743 31.1423 111.197 30.6663 110.575C30.1902 109.953 32.794 107.459 36.483 105.071C40.172 102.684 43.5312 101.247 44.0073 101.881Z" fill="#86B1F2"/>
<path d="M44.0207 101.903V101.891C44.0207 101.891 36.648 107.701 33.6106 108.293L34.5494 109.482C35.8135 108.838 37.0372 108.128 38.2145 107.354C41.8423 104.994 44.4223 102.572 44.0207 101.903Z" fill="#355389"/>
<path d="M53.8695 118.772C53.8828 119.763 53.4706 124.098 45.7468 125.901C46.2557 126.545 46.7549 127.195 47.2442 127.852C52.1354 126.505 54.3323 124.169 55.3217 122.389C55.476 122.109 55.6648 121.73 55.7925 121.438C55.1382 120.556 54.4972 119.667 53.8695 118.772Z" fill="#B75742"/>
<path d="M46.4384 124.623L35.0735 124.244L37.7678 126.374L36.156 129.094L46.9171 126.54L46.4384 124.623Z" fill="#B75742"/>
<path d="M47.4757 127.085L43.4382 133.636L46.2788 132.631L47.3719 134.709L49.2709 127.821L47.4757 127.085Z" fill="#B75742"/>
<path d="M49.0182 128.861C48.2819 128.928 47.5409 128.789 46.8898 128.462C46.2386 128.135 45.7067 127.635 45.362 127.026C45.0173 126.416 44.8754 125.725 44.9544 125.04C45.0334 124.355 45.3297 123.707 45.8055 123.18C46.2813 122.652 46.9151 122.269 47.626 122.078C48.3369 121.887 49.0927 121.898 49.7969 122.109C50.5012 122.32 51.122 122.721 51.5801 123.262C52.0383 123.803 52.3131 124.459 52.3694 125.146C52.4118 125.595 52.3587 126.047 52.2131 126.477C52.0675 126.907 51.8324 127.306 51.5211 127.651C51.2099 127.996 50.8286 128.28 50.3991 128.488C49.9696 128.696 49.5004 128.822 49.0182 128.861Z" fill="#F47458"/>
<path d="M37.1692 34.3184L39.6428 38.8782L45.2335 38.7097L47.6165 44.0002L53.5131 42.1129L56.4946 47.9854L62.1518 46.8684L66.011 52.0845L63.8912 53.4443L61.0054 49.5458L55.0344 50.7247L52.1699 45.0776L46.1776 46.9971L43.5445 41.1593L38.0842 41.3228L35.7915 37.0973L32.2329 37.9048L31.6238 35.5741L37.1692 34.3184Z" fill="#F7CC7F"/>
<path d="M311.719 147.98L316.802 149.904L320.898 146.357L326.43 148.889L329.539 143.858L335.93 146.461L339.409 142.159L346 143.729L345.362 146.053L340.433 144.879L336.763 149.419L330.619 146.915L327.457 152.029L321.353 149.235L317.352 152.7L312.642 150.917L310.528 153.704L308.427 152.319L311.719 147.98Z" fill="#50BFA5"/>
</g>
<defs>
<clipPath id="clip0_586_1133">
<rect width="346" height="314" fill="white"/>
</clipPath>
</defs>
</svg>
