<svg width="318" height="310" viewBox="0 0 318 310" fill="none" xmlns="http://www.w3.org/2000/svg">
<g clip-path="url(#clip0_586_1133)">
<path d="M113.856 52.1185L110.429 53.17L108.128 47.8418L102.926 48.7612L100.555 45.0566L98.678 46.2597L101.853 51.2138L106.781 50.3433L109.174 55.8867L114.33 54.3022L113.856 52.1185Z" fill="#50BFA5"/>
<path d="M305.558 210.847L302.131 211.899L299.83 206.57L294.631 207.49L292.257 203.785L290.38 204.986L293.555 209.942L298.484 209.069L300.877 214.613L306.032 213.031L305.558 210.847Z" fill="#50BFA5"/>
<path d="M92.7428 306.836C92.7428 306.836 74.4583 244.843 72.9916 231.17C71.5249 217.496 81.7501 221.731 81.7501 221.731C81.7501 221.731 73.148 195.674 79.3667 189.49C85.5855 183.306 91.1979 194.833 91.1979 194.833C91.1979 194.833 93.0802 163.201 99.712 163.191C112.061 163.169 111.819 197.687 111.819 197.687C111.819 197.687 114.97 184.174 121.597 187.879C131.571 193.466 117.268 220.547 117.268 220.547C117.268 220.547 129.979 220.547 134.44 226.969C142.439 238.469 92.7428 306.836 92.7428 306.836Z" fill="#50BFA5"/>
<path d="M98.7197 298.632C98.7197 298.632 46.0097 289.814 34.5452 280.471C23.0807 271.127 34.4279 266.917 34.4279 266.917C34.4279 266.917 7.94946 253.338 8.25501 244.105C8.56057 234.871 21.7167 239.566 21.7167 239.566C21.7167 239.566 -0.593928 214.116 4.68855 209.282C14.5251 200.281 40.319 226.736 40.319 226.736C40.319 226.736 32.6605 214.155 40.7273 212.162C52.8909 209.162 61.867 240.183 61.867 240.183C61.867 240.183 59.5863 227.932 67.9781 229.565C83.0238 232.492 98.7197 298.632 98.7197 298.632Z" fill="#50BFA5"/>
<path d="M67.9731 229.565C59.5666 228.044 61.862 240.183 61.862 240.183C61.862 240.183 52.8859 209.162 40.7223 212.163C32.6556 214.155 40.314 226.736 40.314 226.736C40.314 226.736 14.525 200.283 4.69336 209.282L98.5607 298.646C96.8716 290.11 82.0704 232.113 67.9731 229.565Z" fill="#3C8F7C"/>
<path d="M113.716 305.904C113.716 305.904 85.957 277.666 71.9796 274.724C58.0022 271.783 60.5151 281.733 60.5151 281.733C60.5151 281.733 32.7802 257.471 26.3513 263.349C19.9224 269.228 26.8769 274.903 26.8769 274.903C26.8769 274.903 3.77425 270.81 0.476667 278.392C-4.60537 290.044 33.3889 296.387 33.3889 296.387C33.3889 296.387 17.4657 297.492 21.1666 304.799C26.7204 315.817 113.716 305.904 113.716 305.904Z" fill="#355389"/>
<path d="M0.469238 278.393C3.77415 270.812 26.8694 274.903 26.8694 274.903C26.8694 274.903 19.9174 269.228 26.3439 263.349C32.7703 257.471 59.6448 278.434 59.6448 278.434C59.6448 278.434 53.3087 266.318 67.2886 269.26C81.2685 272.201 113.716 305.904 113.716 305.904L0.469238 278.393Z" fill="#003096"/>
<path d="M157.91 14.6666C148.565 16.2022 145.79 28.4701 153.559 33.9572C154.948 34.9555 155.932 36.4206 156.331 38.0848L157.744 43.7896C157.932 44.548 158.398 45.2078 159.05 45.6377C159.703 46.0677 160.493 46.2364 161.264 46.1102L164.803 45.5258C165.574 45.3999 166.269 44.9878 166.749 44.3717C167.229 43.7557 167.46 42.9811 167.394 42.2027C166.905 36.3096 166.297 34.1749 168.211 31.5462C173.811 23.8608 167.25 13.1261 157.91 14.6666Z" fill="#F7CC7F"/>
<path d="M158.863 39.6059C158.254 34.5589 157.396 29.2282 157.11 27.7171C151.755 28.0129 153.791 22.3668 156.262 24.6629C156.966 25.3158 157.299 26.2034 157.519 27.1766C159.299 27.0159 161.032 26.511 162.62 25.6899C162.535 24.4453 162.412 23.4892 162.76 22.7043C163.285 21.5012 164.808 21.1735 165.429 22.3473C165.544 22.5721 165.613 22.818 165.631 23.0701C165.649 23.3222 165.616 23.5754 165.534 23.8144C165.175 24.8096 164.094 25.4674 163.153 25.9809C163.434 29.9936 163.823 34.038 164.314 38.0189L163.811 38.0825C163.322 34.1701 162.94 30.1868 162.659 26.2401C161.082 27.0241 159.375 27.5107 157.621 27.6755C157.988 29.6097 158.797 34.8034 159.369 39.5423L158.863 39.6059ZM154.566 26.5286C155.055 27.0397 155.839 27.2622 157.01 27.2133C156.81 26.355 156.521 25.5848 155.922 25.037C154.585 23.7997 153.769 25.6679 154.566 26.5286ZM163.227 22.9097C162.936 23.5772 163.046 24.4355 163.114 25.421C163.879 24.9857 164.767 24.4428 165.055 23.6432C165.258 23.0833 165.031 22.2935 164.461 22.1468C164.397 22.1321 163.432 22.4402 163.227 22.9097Z" fill="#FAE0B2"/>
<path d="M156.289 37.9432C156.289 37.9896 156.318 38.0361 156.331 38.085L157.744 43.7898C157.932 44.5482 158.398 45.2079 159.05 45.6379C159.703 46.0679 160.493 46.2365 161.264 46.1103L164.803 45.5259C165.574 45.4 166.269 44.9879 166.749 44.3719C167.229 43.7559 167.46 42.9813 167.394 42.2028C167.177 39.5815 166.935 37.7035 166.905 36.1973L156.289 37.9432Z" fill="#96D9C9"/>
<path d="M150.982 10.4045L148.183 5.30368C148.067 5.06782 148.046 4.79601 148.125 4.54507C148.204 4.29413 148.377 4.0835 148.608 3.95719C148.838 3.83089 149.109 3.7987 149.363 3.86736C149.617 3.93601 149.834 4.10019 149.97 4.32557L152.764 9.42638C152.894 9.66374 152.924 9.94291 152.848 10.2025C152.772 10.462 152.596 10.6807 152.358 10.8104C152.121 10.9401 151.842 10.9702 151.583 10.8941C151.323 10.818 151.104 10.6418 150.975 10.4045H150.982Z" fill="#FAE0B2"/>
<path d="M144.876 22.7583L138.787 22.2253C138.517 22.2019 138.268 22.0725 138.094 21.8654C137.92 21.6584 137.836 21.3907 137.859 21.1212C137.882 20.8518 138.012 20.6026 138.219 20.4286C138.426 20.2546 138.693 20.1699 138.963 20.1933L145.054 20.7263C145.324 20.75 145.573 20.8797 145.746 21.087C145.92 21.2943 146.004 21.5621 145.981 21.8316C145.957 22.101 145.827 22.3501 145.62 22.5239C145.413 22.6977 145.145 22.782 144.876 22.7583Z" fill="#FAE0B2"/>
<path d="M138.838 41.4228C138.743 41.3284 138.668 41.2161 138.617 41.0925C138.566 40.969 138.539 40.8365 138.539 40.7027C138.539 40.5689 138.566 40.4365 138.617 40.3129C138.668 40.1893 138.743 40.0771 138.838 39.9826C140.338 38.4999 141.975 37.1628 143.727 35.9895C143.952 35.851 144.221 35.8051 144.479 35.8613C144.737 35.9176 144.963 36.0716 145.109 36.2911C145.256 36.5106 145.312 36.7784 145.265 37.0381C145.218 37.2979 145.073 37.5294 144.859 37.684C143.213 38.7853 141.675 40.0405 140.266 41.4326C140.074 41.6189 139.817 41.7223 139.55 41.7204C139.283 41.7186 139.027 41.6117 138.838 41.4228Z" fill="#FAE0B2"/>
<path d="M166.028 10.1285C165.898 10.0951 165.775 10.0364 165.668 9.95557C165.56 9.87475 165.47 9.77347 165.402 9.65756C165.334 9.54165 165.289 9.4134 165.271 9.28019C165.252 9.14697 165.26 9.01144 165.294 8.88138C165.985 6.29326 166.406 3.64075 166.551 0.966077C166.565 0.695967 166.686 0.442585 166.887 0.261678C167.088 0.0807698 167.353 -0.0128463 167.623 0.00142116C167.893 0.0156887 168.146 0.136671 168.327 0.337756C168.508 0.538841 168.601 0.803559 168.587 1.07367C168.435 3.88968 167.992 6.68236 167.265 9.4071C167.195 9.66583 167.026 9.88658 166.794 10.0216C166.563 10.1566 166.287 10.195 166.028 10.1285Z" fill="#FAE0B2"/>
<path d="M172.303 17.9605C172.264 17.8323 172.251 17.6976 172.264 17.5642C172.277 17.4309 172.317 17.3014 172.38 17.1833C172.444 17.0652 172.529 16.9608 172.633 16.876C172.737 16.7912 172.856 16.7276 172.985 16.689L179.316 14.7817C179.444 14.743 179.579 14.73 179.712 14.7434C179.846 14.7568 179.975 14.7964 180.094 14.8598C180.212 14.9233 180.316 15.0094 180.401 15.1133C180.486 15.2171 180.549 15.3367 180.588 15.4652C180.627 15.5936 180.64 15.7284 180.626 15.8619C180.613 15.9954 180.574 16.1249 180.51 16.2431C180.447 16.3613 180.361 16.4658 180.257 16.5507C180.153 16.6356 180.033 16.6992 179.905 16.7379L173.574 18.6477C173.314 18.7251 173.034 18.6962 172.796 18.5674C172.558 18.4385 172.38 18.2203 172.303 17.9605Z" fill="#FAE0B2"/>
<path d="M182.704 34.813C182.611 34.8127 182.518 34.8003 182.428 34.7763C180.23 34.1557 178.104 33.3032 176.087 32.2332C175.966 32.1716 175.859 32.0866 175.772 31.9832C175.685 31.8798 175.619 31.7601 175.578 31.631C175.538 31.5018 175.523 31.3659 175.536 31.2312C175.548 31.0964 175.588 30.9655 175.651 30.846C175.715 30.7265 175.802 30.6209 175.906 30.5354C176.011 30.4498 176.132 30.3859 176.262 30.3476C176.391 30.3092 176.528 30.297 176.662 30.3117C176.797 30.3265 176.927 30.3679 177.045 30.4335C178.933 31.4357 180.923 32.2333 182.98 32.8128C183.216 32.8802 183.42 33.0306 183.554 33.2364C183.689 33.4422 183.744 33.6895 183.71 33.9329C183.677 34.1762 183.556 34.3993 183.372 34.561C183.187 34.7227 182.95 34.8122 182.704 34.813Z" fill="#FAE0B2"/>
<path d="M291.663 64.9189L290.351 70.208L281.609 69.0343L278.735 76.5315L272.049 76.7246L272.147 80.1089L281.089 79.8521L283.812 72.7487L292.905 73.9688L294.883 66.0071L291.663 64.9189Z" fill="#F48C7F"/>
<path d="M248.406 307.53H94.7376C88.8709 307.53 84.1116 302.593 84.1116 296.505V289.947C84.1116 283.858 88.8685 278.921 94.7376 278.921H248.406C241.378 286.892 241.256 299.075 248.125 307.198L248.406 307.53Z" fill="#B75742"/>
<path d="M246.038 282.2H160.802C154.935 282.2 150.176 287.137 150.176 293.226C150.176 299.317 154.932 304.252 160.802 304.252H246.045C244.091 300.906 243.06 297.101 243.059 293.227C243.058 289.352 244.086 285.547 246.038 282.2Z" fill="#FAE0B2"/>
<path d="M194.423 259.051C194.47 258.949 194.489 258.837 194.48 258.726C194.47 258.614 194.431 258.507 194.367 258.416C194.303 258.324 194.216 258.251 194.114 258.204C194.013 258.156 193.901 258.136 193.79 258.146H112.477C106.102 258.146 100.937 262.792 100.937 268.536C100.937 274.272 106.102 278.926 112.477 278.926H193.812C193.923 278.935 194.036 278.915 194.137 278.867C194.239 278.819 194.326 278.745 194.39 278.653C194.454 278.561 194.493 278.454 194.503 278.342C194.512 278.23 194.492 278.118 194.445 278.016C192.865 275.106 192.035 271.848 192.031 268.536C192.027 265.225 192.849 261.964 194.423 259.051Z" fill="#86B1F2"/>
<path d="M193.909 260.08H153.61C146.13 260.08 140.068 263.978 140.068 268.785C140.068 273.593 146.13 277.493 153.61 277.493H194.173C192.811 274.801 192.079 271.834 192.033 268.817C191.988 265.8 192.629 262.812 193.909 260.08Z" fill="#F7CC7F"/>
<path d="M183.501 264.208H178.25C177.123 264.208 176.207 264.587 176.207 265.054V265.13H183.498L183.501 264.208Z" fill="#B75742"/>
<path d="M187.979 266.33C187.979 265.157 186.608 264.208 184.916 264.208H178.182C179.465 264.208 180.504 264.929 180.504 265.817L180.472 288.58L184.193 285.646L187.986 288.58L187.979 266.33Z" fill="#F47458"/>
<path d="M179.472 257.398H132.16C127.965 257.398 124.565 253.358 124.565 248.377C124.565 243.396 127.965 239.359 132.16 239.359H179.472C175.857 244.36 175.715 251.693 179.135 256.885L179.472 257.398Z" fill="#FAE0B2"/>
<path d="M124.57 248.377C124.57 243.396 128.051 239.359 132.345 239.359H180.374C180.49 239.35 180.598 239.295 180.673 239.206C180.749 239.118 180.786 239.003 180.778 238.887C180.784 238.772 180.746 238.66 180.67 238.573C180.595 238.487 180.489 238.434 180.374 238.425H104.183C99.443 238.425 95.6003 242.88 95.6003 248.377C95.6003 253.876 99.443 258.332 104.183 258.332H180.374C180.488 258.322 180.594 258.269 180.67 258.182C180.745 258.096 180.784 257.984 180.778 257.87C180.782 257.812 180.776 257.754 180.758 257.699C180.74 257.644 180.712 257.593 180.674 257.55C180.637 257.506 180.591 257.47 180.539 257.444C180.488 257.418 180.432 257.402 180.374 257.398H132.345C128.051 257.398 124.57 253.358 124.57 248.377Z" fill="#003096"/>
<path d="M171.212 243.79H165.964C164.835 243.79 163.918 244.164 163.918 244.621V244.697H171.212V243.79Z" fill="#184655"/>
<path d="M175.688 245.873C175.688 244.724 174.317 243.79 172.628 243.79H165.891C167.174 243.79 168.213 244.499 168.213 245.37L168.181 267.692L171.904 264.822L175.696 267.692L175.688 245.873Z" fill="#3C8F7C"/>
<path d="M254.855 105.909L261.841 104.07L257.106 167.231L248.726 167.51L252.953 108.203C252.991 107.67 253.195 107.162 253.536 106.751C253.877 106.339 254.338 106.045 254.855 105.909Z" fill="#184655"/>
<path d="M257.732 169.031C257.569 169.049 257.405 169.049 257.243 169.031C255.857 168.868 254.83 167.488 254.95 165.95L259.594 106.56C259.714 105.022 260.936 103.907 262.325 104.071C263.713 104.234 264.738 105.616 264.618 107.154L259.973 166.545C259.876 167.894 258.917 168.924 257.732 169.031Z" fill="#F7CC7F"/>
<path d="M193.45 172.195C193.45 172.239 193.45 172.28 193.45 172.324C193.667 174.74 195.54 176.55 197.63 176.361L256.615 171.08C258.705 170.894 260.22 168.784 260.003 166.368C260.003 166.265 259.981 166.165 259.964 166.064L193.45 172.195Z" fill="#F7CC7F"/>
<path d="M234.524 235.985C230.662 238.127 218.855 234.371 218.855 234.028C218.686 237.256 205.635 268.849 205.635 268.849V278.569C205.635 278.569 232.525 279.85 232.141 277.473C231.757 275.096 230.307 276.642 224.944 272.152C224.455 271.754 216.936 270.005 218.972 265.55C223.089 256.569 231.806 241.594 234.524 235.985Z" fill="#F7A491"/>
<path d="M204.763 278.921H234.199C235.26 278.813 235.509 277.943 235.133 277.422C234.36 276.341 228.719 273.788 224.927 272.096C218.327 272.866 206.711 270.326 205.648 268.819C202.851 272.573 204.162 278.798 204.763 278.921Z" fill="#3C8F7C"/>
<path d="M198.295 213.305C197.896 212.109 223.639 201.181 224.79 202.431C226.829 204.631 210.857 246.096 210.857 246.096L229.19 251.703C229.19 251.703 248.257 203.807 247.463 195.046C246.668 186.285 237.115 176.332 216.418 182.702C195.721 189.072 198.295 213.305 198.295 213.305Z" fill="#355389"/>
<path d="M251.604 241.435C247.257 240.645 241.625 240.42 237.118 240.342C237.648 244.357 240.227 264.948 239.758 266.215C238.57 269.319 236.413 271.958 233.607 273.739C233.607 273.739 253.596 291.78 254.803 289.697C256.011 287.614 253.911 287.892 252.603 281.019C252.488 280.407 249.597 270.812 249.426 265.638C249.078 255.769 251.454 246.917 251.604 241.435Z" fill="#F7A491"/>
<path d="M245.189 174.068C242.4 172.581 235.167 172.528 227.203 173.044C211.683 174.074 196.359 177.083 181.602 181.998L171.723 185.27L171.755 175.139C171.755 175.139 140.329 169.879 139.244 177.67C137.599 189.407 139.642 213.224 150.112 218.54C182.636 235.055 228.213 192.231 228.379 197.834C228.599 205.358 234.942 233.358 236.563 245.616C241.07 245.695 248.817 245.692 252.178 244.919C252.821 220.905 253.129 178.306 245.189 174.068Z" fill="#003096"/>
<path d="M233.006 274.162L255.478 292.115C256.368 292.707 257.106 292.196 257.15 291.55C257.238 290.222 254.49 284.672 252.63 280.96C247.032 277.368 239.648 268 239.782 266.166C237.406 268.166 232.617 273.69 233.006 274.162Z" fill="#3C8F7C"/>
<path d="M182.137 76.1381C181.384 69.2351 180.59 62.3077 174.869 57.2485C170.24 53.1551 164.358 52.4607 158.536 54.6516C142.048 60.8577 150.542 75.5048 129.52 90.2741C122.986 94.8639 115.787 98.0036 110.869 104.183C103.985 112.834 106.583 123.236 112.856 130.183C142.879 163.419 176.395 118.534 178.803 107.758C180.592 99.7422 182.623 80.5811 182.137 76.1381Z" fill="#13375B"/>
<path d="M176.05 114.944C174.532 112.157 172.871 109.449 171.073 106.833C168.528 102.31 161.958 100.023 161.958 100.023C161.958 100.023 159.758 100.067 157.235 100.192C157.144 100.507 156.976 100.794 156.746 101.028C155.798 101.74 150.361 100.823 146.851 103.207C135.081 113.299 138.337 162.216 139.273 177.665L175.116 178.005C175.116 178.005 170.596 144.75 177.878 136.221C182.943 130.279 179.68 121.659 176.05 114.944Z" fill="#50BFA5"/>
<path d="M159.885 83.4783C159.885 83.4783 157.915 97.5532 156.538 100.974C155.162 104.395 164.116 111.711 171.545 113.934C178.974 116.157 169.272 106.378 169.589 102.72C169.907 99.0619 171.252 81.752 171.252 81.752L159.885 83.4783Z" fill="#F7A491"/>
<path d="M170.865 86.7139C171.083 83.8505 171.242 81.75 171.242 81.75L159.885 83.4788C159.885 83.4788 159.599 85.1318 159.281 87.4695C163.886 90.1421 168.025 89.2985 170.865 86.7139Z" fill="#F47458"/>
<path d="M163.446 57.7692C160.488 58.5936 157.92 60.4475 156.206 62.9972C153.444 67.2152 151.547 79.6371 160.65 85.4349C169.753 91.2326 176.83 83.0312 176.947 75.0327C177.065 67.0343 175.351 56.3583 163.446 57.7692Z" fill="#F7A491"/>
<path d="M179.032 72.529C178.255 74.4583 176.715 75.6565 175.591 75.2042C174.466 74.7518 174.185 72.82 174.962 70.8907C175.74 68.9614 177.28 67.7632 178.402 68.2156C179.524 68.668 179.807 70.5997 179.032 72.529Z" fill="#F7A491"/>
<path d="M164.788 57.5076C164.788 57.5076 159.083 70.311 154.069 71.4456C149.056 72.5802 149.129 79.0259 149.129 79.0259C149.129 79.0259 149.242 64.1465 153.94 60.7353C158.638 57.3242 164.788 57.5076 164.788 57.5076Z" fill="#13375B"/>
<path d="M156.062 74.1088C156.722 76.1873 156.118 78.2339 154.712 78.6814C153.307 79.1289 151.632 77.8036 150.972 75.7251C150.312 73.6466 150.916 71.5975 152.322 71.15C153.727 70.7025 155.402 72.0352 156.062 74.1088Z" fill="#F7A491"/>
<path d="M220.173 166.552C218.024 165.774 214.822 165.676 214.876 165.392C215.091 164.243 224.592 167.931 223.309 166.253C222.595 165.319 215.487 162.011 213.756 162.556C212.077 163.087 201.067 166.177 201.067 166.177L170.973 159.123C170.973 159.123 163.378 141.857 162.635 127.021C156.358 127.872 152.082 129.423 146.626 132.452C149.256 146.635 155.654 169.635 162.725 173.951C165.698 175.765 201.216 171.777 201.216 171.777C201.216 171.777 209.038 171.224 210.322 170.733C211.299 170.359 213.79 168.953 215.147 168.566C218.237 167.693 223.737 169.889 223.754 169.283C223.766 168.843 222.37 167.346 220.173 166.552Z" fill="#F7A491"/>
<path d="M162.821 111.171C162.532 106.608 160.802 102.199 155.947 100.781C152.938 99.9006 149.562 100.742 147.147 102.708C144.287 105.045 143.48 108.794 143.502 112.342C143.531 120.411 144.081 128.755 145.553 136.69C151.009 133.66 157.379 131.838 163.659 130.99C163.667 130.941 163.205 117.203 162.821 111.171Z" fill="#96D9C9"/>
<path d="M237.831 44.619L229.841 46.8002L228.12 37.1169L230.735 36.6523L231.948 43.4722L237.132 42.0564L237.831 44.619Z" fill="#50BFA5"/>
<path d="M207.801 219.08H86.7417C84.9365 219.081 83.2055 219.799 81.9294 221.076C80.6532 222.353 79.9363 224.084 79.9363 225.89V231.617C79.9363 233.423 80.6532 235.154 81.9294 236.431C83.2055 237.709 84.9365 238.426 86.7417 238.427H207.801L207.738 238.361C205.246 235.766 203.86 232.305 203.872 228.708C203.884 225.11 205.293 221.658 207.801 219.08Z" fill="#F47458"/>
<path d="M205.66 221.943H140.943C139.137 221.943 137.406 222.661 136.129 223.938C134.852 225.215 134.135 226.947 134.135 228.753C134.135 230.56 134.852 232.292 136.129 233.569C137.406 234.846 139.137 235.563 140.943 235.563H205.658C204.488 233.484 203.874 231.139 203.875 228.753C203.875 226.367 204.49 224.022 205.66 221.943Z" fill="#FAE0B2"/>
<path d="M28.2017 109.176L31.5994 112.418C39.6385 120.087 46.1943 129.174 50.9376 139.223L51.4583 140.326C51.4583 140.326 60.3586 141.113 61.6028 133.066C53.8756 124.381 47.3071 114.731 42.0617 104.356L40.4533 100.593L28.2017 109.176Z" fill="#003096"/>
<path d="M40.4461 100.584C40.8812 101.21 38.4905 103.63 35.1123 105.988C31.734 108.345 28.6222 109.78 28.1847 109.166C27.7471 108.553 30.1402 106.09 33.5307 103.733C36.9212 101.376 40.0085 99.9576 40.4461 100.584Z" fill="#86B1F2"/>
<path d="M40.4583 100.605V100.593C40.4583 100.593 33.6822 106.329 30.8906 106.914L31.7535 108.087C32.9152 107.452 34.0399 106.751 35.122 105.987C38.4562 103.657 40.8274 101.265 40.4583 100.605Z" fill="#355389"/>
<path d="M49.51 117.26C49.5223 118.238 49.1434 122.517 42.0447 124.297C42.5124 124.933 42.9711 125.575 43.4209 126.224C47.9163 124.894 49.9354 122.588 50.8447 120.83C50.9865 120.554 51.1601 120.179 51.2774 119.891C50.676 119.02 50.0869 118.143 49.51 117.26Z" fill="#B75742"/>
<path d="M42.6803 123.035L32.2351 122.661L34.7113 124.764L33.23 127.449L43.1203 124.928L42.6803 123.035Z" fill="#B75742"/>
<path d="M43.6335 125.466L39.9229 131.934L42.5335 130.941L43.5382 132.992L45.2836 126.192L43.6335 125.466Z" fill="#B75742"/>
<path d="M45.0514 127.219C44.3747 127.285 43.6937 127.148 43.0952 126.825C42.4967 126.503 42.0079 126.009 41.6911 125.407C41.3743 124.805 41.2438 124.123 41.3164 123.446C41.389 122.77 41.6614 122.131 42.0987 121.61C42.536 121.089 43.1185 120.711 43.7719 120.522C44.4252 120.334 45.1198 120.345 45.7671 120.553C46.4143 120.761 46.9849 121.158 47.406 121.692C47.8271 122.226 48.0796 122.873 48.1314 123.551C48.1703 123.995 48.1215 124.441 47.9877 124.865C47.854 125.29 47.6379 125.683 47.3518 126.024C47.0657 126.365 46.7153 126.646 46.3205 126.851C45.9258 127.056 45.4945 127.181 45.0514 127.219Z" fill="#F47458"/>
<path d="M34.1614 33.8818L36.4347 38.3836L41.573 38.2173L43.7632 43.4403L49.1826 41.5771L51.9229 47.3748L57.1222 46.272L60.6691 51.4217L58.7209 52.7641L56.0687 48.9153L50.5808 50.0792L47.9482 44.504L42.4408 46.3991L40.0208 40.6356L35.0023 40.797L32.8952 36.6254L29.6245 37.4226L29.0647 35.1216L34.1614 33.8818Z" fill="#F7CC7F"/>
<path d="M286.493 146.094L291.165 147.994L294.929 144.492L300.014 146.991L302.871 142.025L308.745 144.595L311.943 140.348L318 141.898L317.413 144.192L312.884 143.033L309.51 147.515L303.864 145.043L300.957 150.092L295.347 147.334L291.671 150.755L287.342 148.994L285.398 151.745L283.467 150.378L286.493 146.094Z" fill="#50BFA5"/>
</g>
<defs>
<clipPath id="clip0_586_1133">
<rect width="318" height="310" fill="white"/>
</clipPath>
</defs>
</svg>
