<svg width="346" height="314" viewBox="0 0 346 314" fill="none" xmlns="http://www.w3.org/2000/svg">
<g clip-path="url(#clip0_586_1208)">
<path d="M250.159 309.461H151.264C150.258 309.462 149.261 309.298 148.331 308.979C147.401 308.66 146.556 308.191 145.844 307.599C145.132 307.008 144.567 306.305 144.182 305.532C143.797 304.759 143.598 303.93 143.598 303.093V287.022C143.598 286.184 143.797 285.355 144.182 284.582C144.567 283.809 145.132 283.106 145.844 282.515C146.556 281.923 147.401 281.455 148.331 281.135C149.261 280.816 150.258 280.652 151.264 280.653H250.111L249.218 282.662C245.331 291.357 245.669 300.97 250.159 309.461Z" fill="#DDF1FA"/>
<path d="M19.8104 276.374C16.1298 276.318 12.5571 277.41 9.79405 279.434C7.03099 281.457 5.2772 284.268 4.87716 287.313C4.55121 290.416 4.3822 293.801 4.3822 297.357C4.3822 299.105 4.3822 300.812 4.50292 302.47C4.73255 305.631 6.41988 308.597 9.21318 310.749C12.0065 312.901 15.6902 314.073 19.4965 314.021H260.855V309.471H151.687C149.556 309.471 147.513 308.767 146.006 307.515C144.498 306.262 143.65 304.564 143.647 302.791V287.343C143.65 285.57 144.498 283.871 146.006 282.619C147.513 281.367 149.556 280.663 151.687 280.663H260.855V276.374H19.8104Z" fill="#003096"/>
<path d="M179.851 294.614H167.332V295.759H179.851V294.614Z" fill="#008EF8"/>
<path d="M190.269 300.882H177.75V302.027H190.269V300.882Z" fill="#008EF8"/>
<path d="M218.566 300.882H206.047V302.027H218.566V300.882Z" fill="#008EF8"/>
<path d="M219.508 295.448H200.362V296.593H219.508V295.448Z" fill="#008EF8"/>
<path d="M189.436 285.815H170.29V286.961H189.436V285.815Z" fill="#008EF8"/>
<path d="M122.194 286.389H14.3176V301.455H122.194V286.389Z" fill="#008EF8"/>
<path d="M234.067 272.075H153.437C151.282 272.075 149.216 271.363 147.692 270.095C146.168 268.827 145.312 267.108 145.312 265.315V254.819C145.312 253.931 145.523 253.052 145.931 252.232C146.339 251.411 146.938 250.666 147.692 250.039C148.447 249.411 149.342 248.913 150.328 248.573C151.314 248.233 152.37 248.059 153.437 248.059H234.067L233.669 248.902C230.199 256.379 230.342 264.683 234.067 272.075Z" fill="#DDF1FA"/>
<path d="M10.3217 243.388C4.61157 243.388 0 248.661 0 255.16V264.953C0 271.452 4.61157 276.715 10.3217 276.715H244.377V272.065H153.582C151.389 272.065 149.285 271.34 147.735 270.049C146.184 268.759 145.313 267.009 145.313 265.184V254.939C145.313 254.035 145.526 253.141 145.942 252.306C146.358 251.471 146.967 250.713 147.735 250.074C148.502 249.435 149.414 248.928 150.417 248.582C151.421 248.236 152.496 248.058 153.582 248.058H244.377V243.388H10.3217Z" fill="#FFCD52"/>
<path d="M34.1642 276.736C28.4662 276.736 23.8425 271.472 23.8425 264.974V255.17C23.8425 248.672 28.4662 243.408 34.1642 243.408H43.0614C37.3633 243.408 32.7397 248.672 32.7397 255.17V264.974C32.7397 271.472 37.3633 276.736 43.0614 276.736H34.1642Z" fill="#FF9A78"/>
<path d="M116.255 276.736C110.557 276.736 105.933 271.472 105.933 264.974V255.17C105.933 248.672 110.557 243.408 116.255 243.408H125.152C119.442 243.408 114.83 248.672 114.83 255.17V264.974C114.83 271.472 119.442 276.736 125.152 276.736H116.255Z" fill="#FF9A78"/>
<path d="M199.408 259.981H158.701V261.127H199.408V259.981Z" fill="#008EF8"/>
<path d="M186.648 255.13H169.252V256.275H186.648V255.13Z" fill="#008EF8"/>
<path d="M213.013 255.854H200.362V256.999H213.013V255.854Z" fill="#008EF8"/>
<path d="M127.373 238.727H11.9756C15.3011 233.75 17.0464 228.149 17.0464 222.455C17.0464 216.76 15.3011 211.16 11.9756 206.183H127.373C129.528 206.183 131.595 206.895 133.118 208.163C134.642 209.43 135.498 211.15 135.498 212.943V231.967C135.498 233.76 134.642 235.479 133.118 236.747C131.595 238.014 129.528 238.727 127.373 238.727Z" fill="#DDF1FA"/>
<path d="M94.6457 219.532H53.045V220.677H94.6457V219.532Z" fill="#008EF8"/>
<path d="M108.082 232.219H66.4814V233.364H108.082V232.219Z" fill="#008EF8"/>
<path d="M44.4255 223.962H32.788V225.107H44.4255V223.962Z" fill="#008EF8"/>
<path d="M108.082 209.99H96.4445V211.135H108.082V209.99Z" fill="#008EF8"/>
<path d="M26.426 217.322H21.5609V218.467H26.426V217.322Z" fill="#008EF8"/>
<path d="M117.317 223.962H112.452V225.107H117.317V223.962Z" fill="#008EF8"/>
<path d="M243.012 201.522H3.79065V206.223H127.12C129.351 206.237 131.484 206.983 133.056 208.3C134.628 209.617 135.51 211.398 135.51 213.254V231.837C135.494 233.684 134.605 235.452 133.035 236.758C131.465 238.065 129.34 238.804 127.12 238.818H3.79065V243.388H243.012C248.843 243.388 253.564 236.768 253.564 228.612V216.268C253.515 208.142 248.795 201.522 243.012 201.522Z" fill="#912039"/>
<path d="M85.4949 220.104C82.2837 220.104 79.6882 226.342 79.6882 234.026V253.482L69.282 248.46L59.902 253.482V234.026C59.902 226.342 62.4975 220.104 65.6966 220.104H85.4949Z" fill="#912039"/>
<path d="M248.735 100.756L243.556 98.9782L286.086 12.6862C286.207 12.3878 286.399 12.1128 286.652 11.878C286.904 11.6431 287.211 11.4533 287.554 11.3199C287.897 11.1865 288.268 11.1123 288.647 11.1019C289.025 11.0914 289.402 11.1449 289.755 11.259C290.108 11.3732 290.429 11.5457 290.7 11.7661C290.97 11.9865 291.184 12.2502 291.328 12.5413C291.473 12.8324 291.545 13.1449 291.54 13.4598C291.536 13.7748 291.454 14.0857 291.301 14.3737L248.735 100.756Z" fill="#912039"/>
<path d="M297.676 83.7561C315.176 69.1954 315.176 45.5878 297.676 31.0271C280.176 16.4664 251.802 16.4664 234.302 31.0271C216.802 45.5878 216.802 69.1954 234.302 83.7561C251.802 98.3168 280.176 98.3168 297.676 83.7561Z" fill="#008EF8"/>
<path d="M265.95 103.94C258.788 103.951 251.692 102.808 245.053 100.575C244.393 100.317 243.878 99.8577 243.614 99.2923C243.35 98.7269 243.358 98.0987 243.636 97.538C243.914 96.9772 244.44 96.5271 245.107 96.2808C245.773 96.0346 246.527 96.0111 247.214 96.2154C253.167 98.2171 259.529 99.2404 265.95 99.2287C277.481 99.248 288.67 95.969 297.641 89.9412C306.612 83.9133 312.82 75.503 315.226 66.1197C317.631 56.7363 316.087 46.9503 310.852 38.4016C305.617 29.8528 297.01 23.061 286.472 19.1643L288.778 14.8652C300.497 19.2026 310.069 26.759 315.891 36.2686C321.712 45.7782 323.429 56.6634 320.754 67.1007C318.079 77.5381 311.175 86.8936 301.197 93.6002C291.22 100.307 278.776 103.957 265.95 103.94Z" fill="#912039"/>
<path d="M250.063 29.2994L241.105 36.7524C240.58 37.1887 240.223 37.7445 240.077 38.3498C239.932 38.9551 240.005 39.5826 240.288 40.1532C240.571 40.7239 241.051 41.212 241.667 41.556C242.282 41.8999 243.007 42.0844 243.749 42.086H244.22C244.668 42.0833 245.112 42.1548 245.526 42.2962C245.941 42.4376 246.317 42.6461 246.634 42.9097C247.274 43.4427 247.634 44.1652 247.634 44.9186C247.634 45.6719 247.274 46.3945 246.634 46.9274L245.886 47.5402C245.361 47.9768 244.945 48.4952 244.661 49.0656C244.378 49.6361 244.232 50.2475 244.232 50.8649V51.3771C244.226 52.2981 244.661 53.1832 245.439 53.838C245.721 54.0689 245.945 54.3441 246.097 54.6476C246.25 54.9511 246.329 55.2768 246.329 55.6059C246.329 55.9349 246.25 56.2606 246.097 56.5641C245.945 56.8676 245.721 57.1428 245.439 57.3737L244.449 58.1973C242.85 59.53 241.951 61.3362 241.95 63.2196V75.6446C241.949 75.9259 242.014 76.2047 242.143 76.4649C242.271 76.7252 242.46 76.9618 242.699 77.1613L243.266 77.6334C243.751 78.026 244.4 78.2458 245.077 78.2458C245.753 78.2458 246.403 78.026 246.888 77.6334L254.433 71.3556C255.338 70.5996 256.415 70.0002 257.6 69.5916C258.785 69.1831 260.055 68.9735 261.338 68.975H262.111C264.085 68.9735 265.979 68.3196 267.374 67.157L269.789 65.1481C271.109 64.0515 272.897 63.434 274.762 63.4305H285.265C286.061 63.4317 286.85 63.3018 287.585 63.0484C288.321 62.795 288.989 62.4231 289.551 61.954L291.567 60.2765C291.857 60.027 292.052 59.7122 292.13 59.3711C292.207 59.03 292.163 58.6775 292.003 58.3571C291.842 58.0367 291.573 57.7624 291.227 57.568C290.881 57.3736 290.475 57.2676 290.058 57.2632H285.784C285.187 57.2632 284.596 57.1652 284.044 56.9748C283.493 56.7843 282.992 56.5052 282.57 56.1535C282.149 55.8017 281.815 55.3842 281.587 54.9248C281.36 54.4654 281.243 53.9732 281.245 53.4764V45.3002C281.242 44.5321 280.873 43.7963 280.219 43.2541C279.565 42.7119 278.679 42.4074 277.756 42.4074H276.428C275.404 42.4074 274.421 42.0688 273.697 41.466C272.972 40.8632 272.565 40.0457 272.565 39.1932V38.0381C272.565 37.2389 272.184 36.4725 271.504 35.9073C270.825 35.3422 269.904 35.0248 268.944 35.0248H268.026C265.535 35.0241 263.147 34.2003 261.386 32.7346L258.972 30.7257L256.678 29.1588C255.753 28.4924 254.561 28.1374 253.338 28.1634C252.114 28.1895 250.946 28.5945 250.063 29.2994Z" fill="#F46534"/>
<path d="M275.124 20.8818C274.731 21.3165 274.448 21.813 274.293 22.3413C274.137 22.8697 274.112 23.4188 274.219 23.9554L276.211 34.3716C276.329 34.9815 276.661 35.5486 277.166 36.0013C277.671 36.454 278.327 36.772 279.049 36.915C279.771 37.0579 280.528 37.0195 281.224 36.8046C281.92 36.5897 282.524 36.2079 282.959 35.7075L283.225 35.4061C283.484 35.1039 283.812 34.8479 284.192 34.6529C284.571 34.458 284.994 34.3282 285.434 34.2711C286.322 34.1552 287.229 34.3362 287.957 34.7746C288.686 35.2131 289.176 35.8734 289.321 36.6115L289.478 37.4753C289.72 38.7082 290.535 39.8125 291.748 40.5489L292.243 40.8502C293.146 41.3834 294.263 41.6032 295.357 41.4629C295.747 41.4114 296.146 41.4243 296.53 41.5009C296.914 41.5775 297.276 41.7163 297.595 41.9094C297.915 42.1025 298.186 42.3461 298.392 42.6262C298.598 42.9064 298.736 43.2176 298.798 43.5421L299.015 44.6973C299.377 46.5574 300.61 48.2224 302.444 49.3278L310.653 54.2797C309.843 46.2719 305.947 38.6958 299.546 32.6783C293.144 26.6608 284.579 22.5235 275.124 20.8818Z" fill="#FFCD52"/>
<path d="M285.386 126.078H271.225C271.244 125.814 271.244 125.549 271.225 125.285V113.422C271.225 110.118 268.992 107.396 266.227 107.396H265.66C262.895 107.396 260.65 110.077 260.65 113.422V125.285C260.652 125.55 260.672 125.815 260.71 126.078H246.634C244.401 126.078 242.578 128.258 242.578 130.94C242.578 133.622 244.401 135.811 246.634 135.811H285.386C287.631 135.811 289.454 133.632 289.454 130.94C289.454 128.248 287.68 126.078 285.386 126.078Z" fill="#912039"/>
<path d="M267.519 102.282H263.909V110.187H267.519V102.282Z" fill="#912039"/>
<path d="M319.659 5.70527C324.821 5.71058 329.77 7.41925 333.421 10.4565C337.071 13.4938 339.125 17.6117 339.131 21.907V132.326C339.125 136.621 337.071 140.739 333.421 143.776C329.77 146.814 324.821 148.522 319.659 148.528H223.444C218.281 148.522 213.332 146.814 209.682 143.776C206.031 140.739 203.978 136.621 203.971 132.326V21.907C203.978 17.6117 206.031 13.4938 209.682 10.4565C213.332 7.41925 218.281 5.71058 223.444 5.70527H319.659ZM319.659 9.21175e-06H223.444C216.465 0.00533394 209.774 2.31573 204.841 6.42351C199.909 10.5313 197.138 16.1004 197.138 21.907V132.326C197.137 135.203 197.817 138.052 199.139 140.711C200.462 143.369 202.401 145.785 204.846 147.819C207.292 149.854 210.195 151.467 213.39 152.568C216.585 153.668 220.01 154.234 223.468 154.233H319.683C323.141 154.234 326.565 153.668 329.76 152.568C332.956 151.467 335.859 149.854 338.304 147.819C340.749 145.785 342.689 143.369 344.011 140.711C345.334 138.052 346.014 135.203 346.012 132.326V21.907C346.012 19.0284 345.33 16.1781 344.006 13.5189C342.681 10.8597 340.739 8.44382 338.292 6.4093C335.844 4.37479 332.939 2.76155 329.742 1.66181C326.545 0.562061 323.118 -0.00263045 319.659 9.21175e-06Z" fill="#B16DE2"/>
<path d="M254.891 71.9482L255.097 82.0529L263.801 88.7426L276.984 79.0496L266.372 70.6123L254.891 71.9482Z" fill="#FFA187"/>
<path d="M265.515 66.9968L276.585 59.3228C277.101 58.9873 277.751 58.8275 278.404 58.8756C279.056 58.9237 279.662 59.1763 280.099 59.5821C280.536 59.9879 280.772 60.5168 280.758 61.0616C280.745 61.6064 280.483 62.1266 280.026 62.5169L269.644 70.8337C269.355 71.087 269.008 71.289 268.623 71.4275C268.238 71.5659 267.823 71.638 267.403 71.6393C266.984 71.6406 266.569 71.5712 266.182 71.4351C265.796 71.299 265.447 71.0992 265.156 70.8477C264.865 70.5962 264.639 70.2983 264.49 69.9719C264.342 69.6455 264.274 69.2974 264.292 68.9487C264.31 68.6 264.412 68.258 264.593 67.9432C264.775 67.6284 265.031 67.3474 265.346 67.1173L265.515 66.9968Z" fill="#FFA187"/>
<path d="M257.499 74.6403C256.972 74.608 256.466 74.4516 256.042 74.1893C255.617 73.9271 255.291 73.5699 255.101 73.1592C254.911 72.7486 254.866 72.3016 254.97 71.8702C255.074 71.4389 255.323 71.041 255.688 70.723L260.771 66.3235C261.074 66.0521 261.453 65.847 261.874 65.7261C262.295 65.6052 262.745 65.5724 263.185 65.6304C263.619 65.6768 264.034 65.8073 264.397 66.0114C264.76 66.2155 265.06 66.4875 265.273 66.8056C265.755 67.5565 266.383 68.2354 267.133 68.8145C267.795 69.0626 268.313 69.5187 268.573 70.0832C268.833 70.6477 268.814 71.2748 268.521 71.8279C268.213 72.3896 267.65 72.8268 266.955 73.0433C266.26 73.2599 265.49 73.2382 264.815 72.983C263.929 72.6238 263.14 72.118 262.497 71.4964L259.769 73.8669C259.487 74.1318 259.136 74.3393 258.742 74.4734C258.349 74.6075 257.923 74.6646 257.499 74.6403Z" fill="#FFA187"/>
<path d="M259.684 74.5506C259.509 74.5471 259.341 74.4899 259.213 74.3899C259.149 74.3375 259.098 74.275 259.063 74.206C259.028 74.137 259.01 74.0629 259.01 73.9881C259.01 73.9133 259.028 73.8392 259.063 73.7702C259.098 73.7012 259.149 73.6387 259.213 73.5863L261.942 71.2058C262.085 71.1062 262.262 71.0464 262.449 71.035C262.543 71.0345 262.636 71.0514 262.722 71.0844C262.807 71.1174 262.883 71.1657 262.944 71.2259C263.525 71.7888 264.235 72.2498 265.032 72.5819C265.555 72.7578 266.139 72.7578 266.662 72.5819C267.05 72.4601 267.386 72.2455 267.627 71.9652C267.869 71.6848 268.005 71.3513 268.019 71.0065C268.034 70.6618 267.925 70.3213 267.707 70.0278C267.489 69.7344 267.172 69.5012 266.795 69.3576C265.899 68.7234 265.158 67.9529 264.61 67.0875C264.523 66.9555 264.502 66.8002 264.552 66.6555C264.601 66.5107 264.718 66.3881 264.875 66.3141C264.953 66.2756 265.039 66.2507 265.129 66.2409C265.219 66.2312 265.31 66.2369 265.397 66.2576C265.484 66.2783 265.565 66.3136 265.635 66.3613C265.705 66.409 265.763 66.4682 265.805 66.5351C266.245 67.2006 266.793 67.8124 267.434 68.3532C268.267 68.6795 268.909 69.2676 269.221 69.9881C269.532 70.7086 269.487 71.5025 269.094 72.1952C268.702 72.8878 267.995 73.4224 267.129 73.6814C266.263 73.9404 265.309 73.9026 264.477 73.5763C263.722 73.2834 263.036 72.8822 262.449 72.391L260.203 74.3296C260.143 74.3969 260.064 74.4518 259.974 74.49C259.884 74.5283 259.785 74.549 259.684 74.5506Z" fill="#912336"/>
<path d="M274.798 71.065L268.943 75.8462C268.545 76.1968 267.999 76.405 267.42 76.4266C266.841 76.4483 266.274 76.2817 265.84 75.9622C265.406 75.6426 265.138 75.1951 265.093 74.7142C265.048 74.2334 265.23 73.7568 265.599 73.3853L270.634 67.9813C270.858 67.74 271.137 67.5377 271.455 67.3861C271.774 67.2345 272.125 67.1366 272.489 67.0979C272.852 67.0592 273.222 67.0805 273.576 67.1605C273.929 67.2406 274.261 67.3779 274.551 67.5645C274.841 67.7512 275.084 67.9835 275.266 68.2483C275.449 68.5131 275.566 68.8052 275.613 69.1079C275.659 69.4105 275.634 69.7179 275.538 70.0123C275.441 70.3068 275.276 70.5825 275.052 70.8239C274.974 70.9089 274.889 70.9894 274.798 71.065Z" fill="#FFA187"/>
<path d="M280.436 77.6535L273.953 80.6668C273.699 80.7885 273.419 80.8671 273.128 80.8982C272.837 80.9292 272.542 80.912 272.259 80.8475C271.976 80.7831 271.711 80.6727 271.48 80.5228C271.249 80.3728 271.055 80.1862 270.911 79.9737C270.645 79.5858 270.555 79.1314 270.657 78.6928C270.758 78.2543 271.046 77.8606 271.467 77.5832L277.346 73.7361C277.93 73.3539 278.673 73.1804 279.411 73.2538C280.149 73.3273 280.822 73.6417 281.281 74.1279C281.741 74.614 281.949 75.2322 281.861 75.8462C281.773 76.4603 281.395 77.0201 280.81 77.4024C280.693 77.4931 280.568 77.577 280.436 77.6535Z" fill="#FFA187"/>
<path d="M278.529 73.6359L271.551 78.7988C271.129 79.1299 270.568 79.3114 269.988 79.3047C269.408 79.298 268.854 79.1038 268.443 78.7631C268.032 78.4224 267.796 77.962 267.786 77.4794C267.776 76.9967 267.992 76.5297 268.388 76.1772L274.581 70.3615C275.084 69.9372 275.764 69.6895 276.48 69.6693C277.196 69.6491 277.894 69.858 278.43 70.253C278.967 70.648 279.301 71.199 279.364 71.7927C279.428 72.3865 279.215 72.9778 278.77 73.4451C278.699 73.5163 278.618 73.5803 278.529 73.6359Z" fill="#FFA187"/>
<path d="M267.374 76.9512C266.99 76.9506 266.609 76.8864 266.255 76.7622C265.9 76.6381 265.579 76.4565 265.31 76.2279C264.817 75.8065 264.524 75.2514 264.484 74.6646C264.445 74.0778 264.66 73.4988 265.092 73.0338L270.114 67.6299C270.231 67.5268 270.39 67.4634 270.56 67.452C270.73 67.4407 270.899 67.4821 271.034 67.5684C271.169 67.6546 271.261 67.7795 271.292 67.9189C271.323 68.0583 271.29 68.2023 271.201 68.323L266.167 73.7269C265.94 73.9752 265.827 74.2829 265.85 74.5942C265.872 74.9056 266.027 75.2001 266.288 75.4244C266.43 75.5467 266.601 75.6436 266.79 75.7092C266.979 75.7748 267.182 75.8078 267.386 75.8061C267.59 75.8189 267.795 75.793 267.985 75.7304C268.176 75.6678 268.346 75.57 268.485 75.4445L274.34 70.6533C274.413 70.6002 274.478 70.5395 274.533 70.4725C274.647 70.3548 274.811 70.2785 274.991 70.2598C275.172 70.2411 275.353 70.2813 275.499 70.372C275.57 70.4182 275.63 70.4756 275.674 70.541C275.719 70.6063 275.748 70.6784 275.759 70.753C275.77 70.8276 275.764 70.9033 275.74 70.9758C275.716 71.0484 275.675 71.1162 275.619 71.1756C275.521 71.2773 275.416 71.3746 275.305 71.4669L269.45 76.2581C269.176 76.4819 268.852 76.6584 268.496 76.7773C268.139 76.8963 267.758 76.9554 267.374 76.9512Z" fill="#912336"/>
<path d="M272.855 81.5218C272.594 81.5248 272.334 81.4978 272.082 81.4414C271.71 81.3579 271.361 81.2137 271.057 81.0171C270.752 80.8205 270.498 80.5755 270.308 80.2964C270.218 80.1632 270.196 80.0058 270.245 79.8589C270.295 79.7119 270.413 79.5875 270.573 79.5129C270.733 79.4383 270.922 79.4197 271.099 79.4611C271.276 79.5026 271.425 79.6007 271.515 79.7339C271.72 80.0295 272.057 80.246 272.452 80.3363C272.848 80.4265 273.27 80.3833 273.628 80.216L280.134 77.1424C280.213 77.1046 280.299 77.0801 280.389 77.0703C280.479 77.0605 280.57 77.0655 280.658 77.0851C280.745 77.1047 280.827 77.1385 280.899 77.1845C280.971 77.2306 281.031 77.2879 281.076 77.3533C281.121 77.4184 281.149 77.4903 281.16 77.5647C281.171 77.6391 281.164 77.7145 281.139 77.7865C281.114 77.8586 281.072 77.9258 281.016 77.9842C280.96 78.0426 280.89 78.0911 280.81 78.1267L274.304 81.2104C273.862 81.4188 273.362 81.5263 272.855 81.5218Z" fill="#912336"/>
<path d="M270.066 79.8436C269.509 79.8392 268.965 79.7024 268.499 79.4492C268.032 79.1961 267.662 78.8373 267.432 78.415C267.203 77.9927 267.123 77.5246 267.202 77.0659C267.282 76.6071 267.517 76.1768 267.881 75.8258C268.01 75.7203 268.183 75.6611 268.364 75.6611C268.545 75.6611 268.718 75.7203 268.847 75.8258C268.915 75.8747 268.971 75.9346 269.011 76.0017C269.051 76.0689 269.075 76.1421 269.08 76.217C269.086 76.2918 269.074 76.3669 269.044 76.4377C269.014 76.5085 268.968 76.5737 268.907 76.6293C268.663 76.8775 268.537 77.1924 268.556 77.5131C268.574 77.8337 268.735 78.1372 269.007 78.3648C269.279 78.5924 269.643 78.7279 270.028 78.745C270.413 78.7621 270.793 78.6596 271.092 78.4574C271.223 78.3513 271.399 78.2919 271.581 78.2919C271.764 78.2919 271.939 78.3513 272.07 78.4574C272.187 78.5737 272.246 78.7229 272.235 78.8742C272.224 79.0256 272.143 79.1676 272.01 79.271C271.465 79.6489 270.775 79.852 270.066 79.8436Z" fill="#912336"/>
<path d="M271.551 79.3818C271.41 79.383 271.272 79.3482 271.156 79.2822C271.04 79.2162 270.951 79.1221 270.901 79.0126C270.851 78.9031 270.842 78.7835 270.877 78.6699C270.911 78.5563 270.986 78.4542 271.092 78.3773L277.853 73.3551C277.921 73.3045 278 73.2656 278.086 73.2407C278.172 73.2158 278.263 73.2054 278.354 73.2101C278.445 73.2147 278.534 73.2344 278.616 73.2679C278.698 73.3014 278.771 73.3481 278.831 73.4053C278.947 73.52 279.005 73.6675 278.994 73.8171C278.983 73.9668 278.903 74.1071 278.77 74.2089L272.01 79.2311C271.883 79.3252 271.721 79.3786 271.551 79.3818Z" fill="#912336"/>
<path d="M167.863 102.554C167.863 108.581 158.93 113.402 147.932 113.402C136.935 113.402 128.001 108.551 128.001 102.554C128.001 96.5575 136.922 91.7061 147.932 91.7061C158.942 91.7061 167.863 96.5676 167.863 102.554Z" fill="#EDBCB0"/>
<path d="M173.984 124.008C173.984 124.008 157.819 141.164 158.363 168.837L97.9172 167.692L107.321 109.846L173.984 124.008Z" fill="#0071A8"/>
<path d="M170.398 101.589C170.398 111.433 160.741 119.107 148.669 119.107C136.596 119.107 126.939 111.252 126.939 101.589C126.939 98.2244 127.253 96.326 129.269 93.6742C131.575 93.0894 133.938 92.6727 136.331 92.4287C135.386 93.2348 134.607 94.1646 134.025 95.1809C133.207 96.3178 132.824 97.6351 132.926 98.9576C132.926 102.421 134.58 105.742 137.523 108.191C140.466 110.64 144.458 112.015 148.62 112.015C152.783 112.015 156.774 110.64 159.717 108.191C162.661 105.742 164.314 102.421 164.314 98.9576C164.314 97.3907 163.216 95.7333 162.576 94.3372C164.932 95.0047 167.214 95.8416 169.396 96.8382L169.505 96.8985C169.678 97.0541 169.798 97.2446 169.855 97.4509C170.248 98.8054 170.43 100.196 170.398 101.589Z" fill="#6CBDE6"/>
<path d="M172.813 125.957C172.67 125.955 172.531 125.916 172.415 125.847C172.324 125.795 172.251 125.726 172.2 125.646C172.15 125.565 172.124 125.476 172.125 125.385C172.124 125.267 172.166 125.151 172.246 125.053L178.608 117.48C178.712 117.356 178.871 117.272 179.05 117.246C179.228 117.22 179.412 117.253 179.561 117.339C179.653 117.39 179.728 117.458 179.781 117.539C179.834 117.619 179.862 117.709 179.863 117.801C179.861 117.92 179.815 118.036 179.73 118.133L173.368 125.706C173.307 125.782 173.225 125.845 173.128 125.889C173.031 125.933 172.923 125.956 172.813 125.957Z" fill="#006192"/>
<path d="M102.734 138.623C102.639 138.621 102.544 138.604 102.457 138.571C102.37 138.538 102.292 138.491 102.227 138.432C102.163 138.38 102.112 138.318 102.077 138.249C102.042 138.18 102.024 138.106 102.024 138.031C102.024 137.956 102.042 137.882 102.077 137.813C102.112 137.744 102.163 137.681 102.227 137.629L120.577 123.858C120.708 123.752 120.883 123.692 121.066 123.692C121.248 123.692 121.424 123.752 121.555 123.858C121.663 123.969 121.723 124.107 121.724 124.25C121.724 124.33 121.704 124.409 121.665 124.482C121.625 124.554 121.567 124.619 121.494 124.672L103.193 138.392C103.14 138.455 103.072 138.508 102.993 138.548C102.914 138.588 102.826 138.613 102.734 138.623Z" fill="#006192"/>
<path d="M251.149 81.2695L214.401 110.137L180.998 101.318C177.522 100.43 174.193 99.1849 171.087 97.6119C170.616 97.3708 170.121 97.1297 169.626 96.8987L169.517 96.8385C167.335 95.8418 165.053 95.0049 162.696 94.3374C156.904 92.7211 150.831 91.91 144.721 91.9367C142.239 91.9383 139.759 92.0692 137.297 92.3285C134.603 92.6073 131.94 93.0573 129.329 93.6744C121.603 95.4925 116.859 98.4456 111.39 102.584L72.6382 127.695L71.8777 128.197C70.3549 129.185 69.136 130.459 68.3216 131.916C67.5072 133.372 67.1206 134.969 67.1937 136.574L69.7167 189.609L88.5614 190.152L94.7061 143.234L100.742 139.306L115.301 129.865L120.323 126.6C127.866 129.809 136.238 131.433 144.709 131.331C156.443 131.331 166.91 128.509 173.803 124.089L213.725 134.636L214.727 134.897C217.187 135.545 219.826 135.549 222.287 134.908C224.749 134.266 226.914 133.011 228.49 131.311L265.117 91.766L251.149 81.2695Z" fill="#008EF8"/>
<path d="M158.628 93.4131L165.207 76.1166L149.272 71.918L141.522 92.2882C133.663 93.7446 128.001 97.7825 128.001 102.554C128.001 108.58 136.922 113.402 147.932 113.402C158.942 113.402 167.863 108.55 167.863 102.554C167.863 98.7467 164.169 95.3417 158.628 93.4131Z" fill="#FFA187"/>
<path d="M173.984 124.008C173.984 124.008 157.819 141.164 158.363 168.837L97.9172 167.692L107.321 109.846L173.984 124.008Z" fill="#008EF8"/>
<path d="M170.398 101.589C170.398 111.433 160.741 119.107 148.669 119.107C136.596 119.107 126.939 111.252 126.939 101.589C126.939 98.2244 127.253 96.326 129.269 93.6742C131.575 93.0894 133.938 92.6727 136.331 92.4287C135.386 93.2348 134.607 94.1646 134.025 95.1809C133.207 96.3178 132.824 97.6351 132.926 98.9576C132.926 102.421 134.58 105.742 137.523 108.191C140.466 110.64 144.458 112.015 148.62 112.015C152.783 112.015 156.774 110.64 159.717 108.191C162.661 105.742 164.314 102.421 164.314 98.9576C164.314 97.3907 163.216 95.7333 162.576 94.3372C164.932 95.0047 167.214 95.8416 169.396 96.8382L169.505 96.8985C169.678 97.0541 169.798 97.2446 169.855 97.4509C170.248 98.8054 170.43 100.196 170.398 101.589Z" fill="#003096"/>
<path d="M172.813 125.957C172.67 125.954 172.531 125.915 172.415 125.846C172.266 125.759 172.166 125.627 172.134 125.478C172.102 125.33 172.142 125.177 172.246 125.053L178.608 117.479C178.655 117.409 178.719 117.349 178.796 117.301C178.873 117.253 178.961 117.22 179.054 117.202C179.148 117.184 179.245 117.183 179.339 117.198C179.433 117.213 179.523 117.245 179.601 117.291C179.68 117.337 179.746 117.395 179.796 117.464C179.846 117.532 179.878 117.608 179.89 117.688C179.902 117.767 179.894 117.847 179.866 117.924C179.839 118 179.793 118.071 179.73 118.132L173.368 125.705C173.307 125.782 173.225 125.845 173.128 125.888C173.031 125.932 172.923 125.956 172.813 125.957Z" fill="#003096"/>
<path d="M102.734 138.623C102.639 138.621 102.544 138.604 102.457 138.571C102.37 138.538 102.292 138.491 102.227 138.432C102.163 138.38 102.112 138.318 102.077 138.249C102.042 138.18 102.024 138.106 102.024 138.031C102.024 137.956 102.042 137.882 102.077 137.813C102.112 137.744 102.163 137.681 102.227 137.629L120.577 123.858C120.708 123.752 120.883 123.692 121.066 123.692C121.248 123.692 121.424 123.752 121.555 123.858C121.661 123.966 121.72 124.1 121.724 124.24C121.724 124.321 121.704 124.402 121.665 124.476C121.625 124.551 121.567 124.617 121.494 124.672L103.193 138.392C103.14 138.455 103.072 138.508 102.993 138.548C102.914 138.588 102.826 138.613 102.734 138.623Z" fill="#003096"/>
<path d="M212.832 116.244H212.687C212.599 116.229 212.514 116.199 212.44 116.156C212.366 116.113 212.302 116.058 212.254 115.994C212.205 115.93 212.173 115.859 212.158 115.785C212.143 115.71 212.147 115.634 212.168 115.561L213.689 110.037C213.708 109.963 213.744 109.893 213.795 109.831C213.847 109.769 213.913 109.716 213.99 109.676C214.066 109.636 214.152 109.609 214.241 109.596C214.331 109.584 214.422 109.587 214.51 109.605C214.686 109.641 214.838 109.732 214.935 109.859C215.032 109.986 215.066 110.14 215.029 110.288L213.556 115.822C213.512 115.951 213.416 116.063 213.284 116.14C213.152 116.217 212.993 116.254 212.832 116.244Z" fill="#003096"/>
<path d="M265.575 91.4647C264.368 92.6901 260.095 91.4145 256.062 88.6221C252.03 85.8298 249.785 82.5954 251.016 81.3399C252.248 80.0843 256.509 81.3399 260.529 84.1825C264.549 87.0251 266.819 90.2292 265.575 91.4647Z" fill="#008EF8"/>
<path d="M88.6154 190.083C88.6339 189.373 84.4178 188.722 79.1986 188.628C73.9793 188.534 69.7333 189.033 69.7148 189.743C69.6964 190.453 73.9124 191.105 79.1317 191.199C84.3509 191.293 88.5969 190.793 88.6154 190.083Z" fill="#008EF8"/>
<path d="M204.759 272.283L202.965 273.628C199.855 275.96 199.605 279.949 202.408 282.537L230.392 308.378C233.195 310.966 237.989 311.174 241.1 308.842L242.893 307.497C246.004 305.165 246.253 301.177 243.451 298.589L215.466 272.747C212.663 270.159 207.87 269.951 204.759 272.283Z" fill="#ADCEE0"/>
<path d="M209.114 261.086L208.981 261.789C208.164 266.392 206.537 270.869 204.152 275.078C203.758 275.769 203.621 276.542 203.761 277.298C203.901 278.053 204.311 278.757 204.937 279.317L232.703 304.056C234.04 305.253 235.765 306.102 237.669 306.501C239.573 306.9 241.576 306.833 243.435 306.306C244.455 306.019 245.38 305.539 246.139 304.904C246.897 304.268 247.467 303.494 247.805 302.644C248.142 301.793 248.237 300.889 248.082 300.003C247.927 299.117 247.526 298.273 246.912 297.537C242.503 292.275 238.856 286.597 236.047 280.622C229.721 266.902 229.178 261.086 229.178 261.086H209.114Z" fill="#003096"/>
<path d="M259.159 256.134L259.47 258.127C260.01 261.581 263.814 264.018 267.966 263.568L309.423 259.082C313.575 258.633 316.503 255.468 315.963 252.013L315.651 250.021C315.111 246.567 311.308 244.13 307.156 244.58L265.699 249.066C261.547 249.515 258.619 252.68 259.159 256.134Z" fill="#ADCEE0"/>
<path d="M250.256 247.044L250.883 247.526C254.979 250.7 258.497 254.355 261.326 258.374C261.79 259.033 262.481 259.561 263.31 259.89C264.138 260.219 265.066 260.335 265.974 260.222L306.174 255.14C308.114 254.894 309.928 254.188 311.399 253.107C312.87 252.025 313.935 250.614 314.468 249.043C314.757 248.179 314.802 247.272 314.599 246.392C314.395 245.512 313.948 244.683 313.294 243.971C312.64 243.259 311.796 242.683 310.828 242.289C309.861 241.895 308.796 241.693 307.719 241.7C300.02 241.743 292.342 241.032 284.842 239.581C267.664 236.176 261.579 233.263 261.579 233.263L250.256 247.044Z" fill="#003096"/>
<path d="M237.375 197.494C237.375 197.404 237.375 197.253 237.375 197.163C237.52 189.529 230.566 183.221 221.838 183.1C213.11 182.98 205.903 189.057 205.758 196.701L204.551 258.534C204.527 259.868 204.734 261.197 205.166 262.482C204.451 262.859 203.851 263.369 203.413 263.972C202.975 264.575 202.712 265.255 202.643 265.957C202.643 269.543 209.887 272.466 218.892 272.466C227.898 272.466 235.142 269.543 235.142 265.957C235.086 264.91 234.54 263.922 233.62 263.205C234.135 261.941 234.428 260.621 234.49 259.288L237.375 197.494Z" fill="#904679"/>
<path d="M273.507 234.147C272.988 233.689 272.354 233.333 271.651 233.102C270.948 232.871 270.193 232.772 269.438 232.811C269.073 232.047 268.62 231.313 268.086 230.621L225.918 175.487C224.559 173.738 222.717 172.284 220.546 171.248C218.374 170.212 215.937 169.623 213.436 169.53H213.279C213.279 169.53 149.019 166.216 141.618 166.216C114.987 166.216 99.04 174.04 99.0159 183.703C99.0159 200.287 114.987 201.542 141.618 201.542C150.069 201.542 181.77 198.639 203.73 195.516H203.983L243.266 244.543C244.411 245.978 245.904 247.2 247.648 248.128C247.513 248.701 247.523 249.29 247.677 249.859C247.83 250.428 248.125 250.964 248.542 251.433C251.318 254.195 259.141 252.548 266.034 247.777C272.927 243.006 276.271 236.909 273.507 234.147Z" fill="#B16DE2"/>
<path d="M100.332 167.732L99.0159 183.693L158.29 171.459L157.928 168.817L100.332 167.732Z" fill="#B16DE2"/>
<path d="M112.549 172.122C112.416 172.12 112.286 172.087 112.175 172.027C112.064 171.966 111.976 171.881 111.921 171.78C111.847 171.643 111.841 171.487 111.904 171.346C111.968 171.205 112.095 171.09 112.259 171.027C121.53 167.551 133.989 165.633 147.268 165.633C148.729 165.633 152.483 165.763 158.423 166.015C158.513 166.018 158.601 166.037 158.682 166.07C158.763 166.102 158.836 166.148 158.895 166.204C158.955 166.26 159 166.325 159.029 166.396C159.058 166.467 159.069 166.542 159.063 166.617C159.06 166.692 159.039 166.765 159.001 166.832C158.963 166.899 158.909 166.96 158.843 167.01C158.776 167.059 158.698 167.097 158.614 167.121C158.529 167.145 158.44 167.155 158.35 167.15C152.435 166.898 148.693 166.778 147.268 166.778C134.17 166.778 121.917 168.656 112.851 172.071C112.756 172.106 112.653 172.123 112.549 172.122Z" fill="#904679"/>
<path d="M203.983 196.118C203.869 196.12 203.756 196.095 203.657 196.048C203.55 195.998 203.462 195.925 203.4 195.836C203.338 195.748 203.306 195.648 203.307 195.546V188.514C203.294 188.434 203.302 188.351 203.331 188.273C203.359 188.195 203.407 188.123 203.472 188.062C203.536 188 203.616 187.951 203.705 187.917C203.794 187.884 203.891 187.866 203.989 187.866C204.087 187.866 204.184 187.884 204.274 187.917C204.363 187.951 204.442 188 204.507 188.062C204.572 188.123 204.62 188.195 204.648 188.273C204.676 188.351 204.684 188.434 204.671 188.514V194.541L210.442 191.528C210.602 191.449 210.793 191.427 210.973 191.465C211.153 191.504 211.307 191.6 211.402 191.734C211.496 191.867 211.523 192.026 211.477 192.176C211.43 192.325 211.314 192.454 211.154 192.532L204.382 196.038C204.261 196.095 204.122 196.123 203.983 196.118Z" fill="#904679"/>
<path d="M181.939 64.2746C180.732 70.1104 176.024 74.319 171.461 73.6461C166.897 72.9731 164.217 67.7198 165.425 61.8739C166.632 56.0281 171.34 51.8295 175.903 52.5025C180.467 53.1754 183.159 58.4287 181.939 64.2746Z" fill="#573E28"/>
<path d="M143.779 67.7301C142.814 79.663 149.9 89.7677 159.715 90.3503C169.529 90.9329 178.342 81.7522 179.368 69.8495C180.394 57.9468 173.247 47.812 163.409 47.2294C153.57 46.6468 144.793 55.8274 143.779 67.7301Z" fill="#EDBCB0"/>
<path d="M184.813 52.8141C184.354 58.1778 176.362 62.0751 166.837 61.5126C157.312 60.9501 150.069 56.1489 150.54 50.7751C151.011 45.4013 158.99 41.5141 168.503 42.0766C178.016 42.6391 185.271 47.4403 184.813 52.8141Z" fill="#573E28"/>
<path d="M155.682 59.8654C154.475 65.7012 149.767 69.9099 145.204 69.2369C140.641 68.5639 137.961 63.3107 139.168 57.4648C140.375 51.6189 145.071 47.4203 149.646 48.0933C154.222 48.7663 156.902 54.0195 155.682 59.8654Z" fill="#573E28"/>
<path d="M137.248 67.6093C136.894 68.7642 136.96 69.9804 137.436 71.1043C137.913 72.2282 138.779 73.2093 139.926 73.9236C141.073 74.6378 142.448 75.0531 143.879 75.117C145.309 75.1808 146.73 74.8904 147.962 74.2824C149.194 73.6744 150.182 72.7761 150.8 71.701C151.419 70.626 151.64 69.4226 151.437 68.2429C151.233 67.0631 150.614 65.96 149.657 65.0731C148.7 64.1862 147.449 63.5553 146.061 63.2601C145.139 63.064 144.18 63.0209 143.238 63.1334C142.296 63.2458 141.39 63.5116 140.572 63.9155C139.753 64.3194 139.039 64.8535 138.468 65.4873C137.898 66.1211 137.483 66.8422 137.248 67.6093Z" fill="#EDBCB0"/>
<path d="M141.751 71.1349C141.581 71.1366 141.416 71.0825 141.293 70.9842C141.199 70.9153 141.131 70.8263 141.095 70.7271C141.058 70.6278 141.056 70.5221 141.087 70.4218L142.295 66.6752C142.322 66.5779 142.38 66.4885 142.463 66.4161C142.546 66.3438 142.65 66.291 142.765 66.2633C142.878 66.237 142.998 66.2352 143.112 66.2581C143.226 66.2809 143.331 66.3277 143.417 66.3939L146.761 68.905C146.848 68.9712 146.913 69.0551 146.949 69.1485C146.985 69.2419 146.991 69.3415 146.966 69.4374C146.943 69.5367 146.888 69.629 146.807 69.7049C146.727 69.7808 146.623 69.8375 146.508 69.8693L142.017 71.1048C141.932 71.1292 141.841 71.1394 141.751 71.1349ZM143.297 67.8704L142.729 69.6985L144.914 69.0959L143.297 67.8704Z" fill="#CC8068"/>
<path d="M150.576 48.8065C150.175 46.3561 150.409 43.8627 151.264 41.4941C151.112 43.8565 151.565 46.2188 152.592 48.4248L150.576 48.8065Z" fill="#572902"/>
<path d="M153.679 48.8264C151.19 47.455 148.38 46.5407 145.433 46.1445C148.062 47.0552 150.426 48.4254 152.363 50.1623L153.679 48.8264Z" fill="#573E28"/>
<path d="M146.182 80.0349C148.427 86.3227 153.208 90.9432 159.171 91.9878L165.207 76.1175L149.272 71.9189L146.182 80.0349Z" fill="#EF485D"/>
<path d="M181.939 64.2746C180.732 70.1104 176.024 74.319 171.461 73.6461C166.897 72.9731 164.217 67.7198 165.425 61.8739C166.632 56.0281 171.34 51.8295 175.903 52.5025C180.467 53.1754 183.159 58.4287 181.939 64.2746Z" fill="#572902"/>
<path d="M143.779 67.7301C142.814 79.663 149.9 89.7677 159.715 90.3503C169.529 90.9329 178.342 81.7522 179.368 69.8495C180.394 57.9468 173.247 47.812 163.409 47.2294C153.57 46.6468 144.793 55.8274 143.779 67.7301Z" fill="#FFA187"/>
<path d="M170.483 78.7495C170.077 78.7448 169.673 78.7078 169.276 78.639C167.592 78.3075 166.022 77.6579 164.688 76.7406C164.606 76.6983 164.534 76.642 164.48 76.5753C164.425 76.5085 164.388 76.4329 164.371 76.3534C164.354 76.2739 164.357 76.1922 164.38 76.1138C164.404 76.0355 164.447 75.9621 164.507 75.8986C164.567 75.8351 164.643 75.7829 164.729 75.7454C164.815 75.7079 164.909 75.686 165.006 75.6811C165.103 75.6762 165.2 75.6884 165.291 75.7169C165.382 75.7454 165.465 75.7897 165.533 75.8466C166.702 76.6517 168.077 77.2222 169.553 77.514C170.652 77.7049 171.497 77.5843 171.871 77.1825C172.246 76.7808 172.197 76.0676 171.726 75.2239C171.032 74.1003 170.042 73.1217 168.829 72.3612C168.687 72.2665 168.595 72.1287 168.575 71.9781C168.555 71.8275 168.607 71.6763 168.72 71.5576C168.836 71.4415 169.001 71.3672 169.181 71.3503C169.362 71.3335 169.542 71.3754 169.686 71.4672C171.07 72.3387 172.2 73.4578 172.994 74.7418C173.351 75.2122 173.541 75.7572 173.541 76.3137C173.541 76.8702 173.351 77.4152 172.994 77.8857C172.688 78.1855 172.301 78.4203 171.864 78.5705C171.427 78.7208 170.954 78.7821 170.483 78.7495Z" fill="#912336"/>
<path d="M184.813 52.8141C184.354 58.1778 176.362 62.0751 166.837 61.5126C157.312 60.9501 150.069 56.1489 150.54 50.7751C151.01 45.4013 158.99 41.5141 168.503 42.0766C178.016 42.6391 185.271 47.4403 184.813 52.8141Z" fill="#572902"/>
<path d="M155.682 59.8654C154.475 65.7012 149.767 69.9099 145.204 69.2369C140.641 68.5639 137.961 63.3107 139.168 57.4648C140.375 51.6189 145.071 47.4203 149.646 48.0933C154.222 48.7663 156.902 54.0195 155.682 59.8654Z" fill="#572902"/>
<path d="M150.576 48.8065C150.175 46.3561 150.409 43.8627 151.264 41.4941C151.112 43.8565 151.565 46.2188 152.592 48.4248L150.576 48.8065Z" fill="#572902"/>
<path d="M153.679 48.8264C151.19 47.455 148.38 46.5407 145.433 46.1445C148.062 47.0552 150.426 48.4254 152.363 50.1623L153.679 48.8264Z" fill="#572902"/>
<path d="M137.248 67.6093C136.894 68.7642 136.96 69.9804 137.436 71.1043C137.913 72.2282 138.779 73.2093 139.926 73.9236C141.073 74.6378 142.448 75.0531 143.879 75.117C145.309 75.1808 146.73 74.8904 147.962 74.2824C149.194 73.6744 150.182 72.7761 150.8 71.701C151.419 70.626 151.64 69.4226 151.437 68.2429C151.233 67.0631 150.614 65.96 149.657 65.0731C148.7 64.1862 147.449 63.5553 146.061 63.2601C145.139 63.064 144.18 63.0209 143.238 63.1334C142.296 63.2458 141.39 63.5116 140.572 63.9155C139.753 64.3194 139.039 64.8535 138.468 65.4873C137.898 66.1211 137.483 66.8422 137.248 67.6093Z" fill="#FFA187"/>
<path d="M141.751 71.1353C141.607 71.1351 141.466 71.0972 141.349 71.0269C141.232 70.9566 141.145 70.8575 141.099 70.7435C141.045 70.5996 141.06 70.4439 141.141 70.309C141.222 70.1741 141.363 70.0706 141.534 70.0203L144.914 69.0962L142.5 67.238C142.373 67.1309 142.302 66.9866 142.302 66.8362C142.302 66.6859 142.373 66.5416 142.5 66.4345C142.563 66.381 142.638 66.3385 142.721 66.3096C142.804 66.2806 142.893 66.2656 142.983 66.2656C143.073 66.2656 143.162 66.2806 143.244 66.3096C143.327 66.3385 143.403 66.381 143.465 66.4345L146.809 68.9456C146.896 69.0117 146.961 69.0957 146.997 69.189C147.033 69.2824 147.039 69.382 147.015 69.4779C146.991 69.5772 146.936 69.6696 146.855 69.7454C146.775 69.8213 146.672 69.878 146.556 69.9098L142.065 71.1453C141.961 71.1622 141.854 71.1587 141.751 71.1353Z" fill="#912336"/>
<path d="M56.8478 190.152H56.715C56.4113 190.102 56.0981 190.111 55.799 190.177C55.4999 190.243 55.2228 190.365 54.9887 190.533L45.669 197.012C45.2384 197.331 44.959 197.768 44.8815 198.243C44.804 198.718 44.9335 199.201 45.2465 199.604C45.368 199.78 45.5314 199.933 45.7265 200.055C45.9217 200.177 46.1447 200.265 46.3819 200.313C46.619 200.361 46.8654 200.368 47.1061 200.334C47.3467 200.3 47.5766 200.226 47.7816 200.116L56.8478 195.184L63.7893 196.389V201.412H77.962C82.0545 201.412 85.3623 198.248 85.3623 194.38V191.689L56.8478 190.152Z" fill="#FFA187"/>
<path d="M63.7894 201.281H54.8439C54.2345 201.22 53.6732 200.975 53.266 200.593C52.8588 200.211 52.6339 199.718 52.6339 199.207C52.6339 198.696 52.8588 198.203 53.266 197.821C53.6732 197.439 54.2345 197.194 54.8439 197.133H63.7894C64.3988 197.194 64.9601 197.439 65.3673 197.821C65.7745 198.203 65.9994 198.696 65.9994 199.207C65.9994 199.718 65.7745 200.211 65.3673 200.593C64.9601 200.975 64.3988 201.22 63.7894 201.281Z" fill="#FFA187"/>
<path d="M56.8478 190.152H56.715C56.4113 190.102 56.0981 190.111 55.799 190.177C55.4999 190.243 55.2228 190.365 54.9887 190.533L45.669 197.012C45.2384 197.331 44.959 197.768 44.8815 198.243C44.804 198.718 44.9335 199.201 45.2465 199.604C45.368 199.78 45.5314 199.933 45.7265 200.055C45.9217 200.177 46.1447 200.265 46.3819 200.313C46.619 200.361 46.8654 200.368 47.1061 200.334C47.3467 200.3 47.5766 200.226 47.7816 200.116L56.8478 195.184L63.7893 196.389V201.412H77.962C82.0545 201.412 85.3623 198.248 85.3623 194.38V191.689L56.8478 190.152Z" fill="#FFA187"/>
<path d="M99.3538 197.403L100.344 201.923H123.715C125.155 201.921 126.535 201.444 127.553 200.597C128.571 199.749 129.145 198.601 129.148 197.403H99.3538Z" fill="#008EF8"/>
<path d="M7.60542 153.489C7.53662 153.171 7.55237 152.845 7.65156 152.533C7.75076 152.22 7.93099 151.93 8.17957 151.682C8.42816 151.434 8.73905 151.235 9.09036 151.097C9.44168 150.96 9.82489 150.888 10.213 150.888H86.7143C87.4514 150.889 88.1649 151.105 88.7313 151.497C89.2978 151.889 89.6818 152.434 89.8168 153.037L99.4745 197.404L100.464 201.924H17.2631V197.404L7.60542 153.489Z" fill="#003096"/>
<path d="M46.0915 174.081C46.4656 175.386 47.341 176.554 48.585 177.408C49.8289 178.261 51.3736 178.754 52.9847 178.812C53.6913 178.838 54.3954 178.724 55.0385 178.479C55.6816 178.234 56.2454 177.865 56.6831 177.402C57.1208 176.94 57.4199 176.398 57.5556 175.82C57.6913 175.242 57.6597 174.646 57.4635 174.081C57.0894 172.776 56.2139 171.608 54.97 170.754C53.726 169.9 52.1813 169.407 50.5702 169.35C49.8644 169.326 49.1617 169.441 48.52 169.687C47.8783 169.933 47.3157 170.302 46.8786 170.763C46.4415 171.225 46.1422 171.767 46.0054 172.343C45.8685 172.92 45.898 173.515 46.0915 174.081Z" fill="white"/>
</g>
<defs>
<clipPath id="clip0_586_1208">
<rect width="346" height="314" fill="white"/>
</clipPath>
</defs>
</svg>
