<svg width="346" height="314" viewBox="0 0 346 314" fill="none" xmlns="http://www.w3.org/2000/svg">
<g clip-path="url(#clip0_586_1339)">
<path d="M135.078 267.488H113.356C112.443 267.488 111.703 268.228 111.703 269.14V274.978C111.703 275.89 112.443 276.63 113.356 276.63H135.078C135.991 276.63 136.731 275.89 136.731 274.978V269.14C136.731 268.228 135.991 267.488 135.078 267.488Z" fill="#E0E0FF"/>
<path d="M163.474 267.488H141.752C140.839 267.488 140.099 268.228 140.099 269.14V274.978C140.099 275.89 140.839 276.63 141.752 276.63H163.474C164.387 276.63 165.127 275.89 165.127 274.978V269.14C165.127 268.228 164.387 267.488 163.474 267.488Z" fill="#E0E0FF"/>
<path d="M149.074 254.916H127.352C126.439 254.916 125.699 255.656 125.699 256.568V262.406C125.699 263.318 126.439 264.058 127.352 264.058H149.074C149.987 264.058 150.727 263.318 150.727 262.406V256.568C150.727 255.656 149.987 254.916 149.074 254.916Z" fill="#E0E0FF"/>
<path d="M269.995 49.7309C269.996 48.9837 269.849 48.2438 269.563 47.5535C269.277 46.8631 268.858 46.2359 268.329 45.7075C267.801 45.1792 267.173 44.7602 266.483 44.4744C265.792 44.1886 265.052 44.0417 264.304 44.042H74.8729C73.3636 44.042 71.9161 44.6414 70.8488 45.7082C69.7816 46.7751 69.182 48.2221 69.182 49.7309V54.3954H269.995V49.7309Z" fill="white"/>
<path d="M270.297 54.6947H68.8826V49.7309C68.8839 48.1429 69.5153 46.6202 70.6384 45.4971C71.7614 44.374 73.2843 43.7422 74.8729 43.7402H264.304C265.893 43.7415 267.417 44.3731 268.54 45.4963C269.664 46.6195 270.296 48.1425 270.297 49.7309V54.6947ZM69.4838 54.0937H269.696V49.7309C269.694 48.302 269.125 46.9323 268.115 45.922C267.104 44.9116 265.734 44.3432 264.304 44.3412H74.8729C73.4438 44.3432 72.0738 44.9117 71.0635 45.9221C70.0532 46.9325 69.4851 48.3023 69.4838 49.7309V54.0937Z" fill="#003096"/>
<path d="M69.182 54.3955V175.199C69.1833 176.707 69.7834 178.152 70.8506 179.218C71.9177 180.284 73.3644 180.883 74.8729 180.883H264.304C265.052 180.883 265.792 180.736 266.483 180.45C267.173 180.165 267.801 179.745 268.329 179.217C268.858 178.689 269.277 178.062 269.563 177.371C269.849 176.681 269.996 175.941 269.995 175.194V54.3955H69.182Z" fill="white"/>
<path d="M264.304 181.189H74.8729C73.2843 181.187 71.7614 180.555 70.6384 179.432C69.5153 178.309 68.8839 176.787 68.8826 175.199V54.0938H270.297V175.199C270.296 176.787 269.664 178.31 268.54 179.433C267.417 180.556 265.893 181.188 264.304 181.189ZM69.4838 54.6948V175.199C69.4851 176.627 70.0532 177.997 71.0635 179.007C72.0738 180.018 73.4438 180.586 74.8729 180.588H264.304C265.734 180.586 267.104 180.018 268.115 179.008C269.125 177.997 269.694 176.627 269.696 175.199V54.6948H69.4838Z" fill="#003096"/>
<path d="M79.0944 51.2422C80.2097 51.1417 81.0323 50.1564 80.9318 49.0415C80.8313 47.9266 79.8457 47.1043 78.7304 47.2048C77.6151 47.3053 76.7924 48.2905 76.8929 49.4054C76.9935 50.5203 77.9791 51.3427 79.0944 51.2422Z" fill="white"/>
<path d="M78.9184 51.5478C78.4573 51.5473 78.0067 51.4102 77.6236 51.1538C77.2404 50.8974 76.9419 50.5331 76.7658 50.1072C76.5897 49.6812 76.5438 49.2125 76.6341 48.7605C76.7243 48.3085 76.9466 47.8934 77.2728 47.5676C77.5991 47.2419 78.0146 47.0201 78.4668 46.9304C78.9191 46.8406 79.3878 46.8869 79.8138 47.0634C80.2397 47.2399 80.6038 47.5387 80.8599 47.922C81.116 48.3053 81.2527 48.7559 81.2527 49.2168C81.2521 49.8352 81.0059 50.4281 80.5682 50.8652C80.1305 51.3023 79.5371 51.5478 78.9184 51.5478ZM78.9184 47.4941C78.5777 47.4945 78.2447 47.596 77.9616 47.7856C77.6786 47.9752 77.4581 48.2444 77.328 48.5592C77.1979 48.874 77.1642 49.2203 77.2309 49.5544C77.2977 49.8884 77.462 50.1951 77.7031 50.4358C77.9442 50.6765 78.2513 50.8403 78.5855 50.9066C78.9198 50.9729 79.2661 50.9386 79.5809 50.8082C79.8957 50.6777 80.1647 50.4569 80.3539 50.1736C80.5432 49.8904 80.6442 49.5574 80.6442 49.2168C80.6436 48.7597 80.4615 48.3215 80.1379 47.9985C79.8143 47.6755 79.3757 47.4941 78.9184 47.4941Z" fill="#003096"/>
<path d="M87.0049 51.2432C88.1202 51.1427 88.9428 50.1574 88.8423 49.0425C88.7418 47.9276 87.7562 47.1053 86.6409 47.2058C85.5256 47.3062 84.7029 48.2915 84.8035 49.4064C84.904 50.5213 85.8896 51.3436 87.0049 51.2432Z" fill="white"/>
<path d="M86.8292 51.5478C86.3681 51.5473 85.9175 51.4102 85.5343 51.1538C85.1512 50.8974 84.8527 50.5331 84.6766 50.1072C84.5004 49.6812 84.4546 49.2125 84.5449 48.7605C84.6351 48.3085 84.8574 47.8934 85.1836 47.5676C85.5098 47.2419 85.9253 47.0201 86.3776 46.9304C86.8299 46.8406 87.2986 46.8869 87.7246 47.0634C88.1505 47.2399 88.5146 47.5387 88.7707 47.922C89.0268 48.3053 89.1635 48.7559 89.1635 49.2168C89.1629 49.8352 88.9166 50.4281 88.4789 50.8652C88.0412 51.3023 87.4479 51.5478 86.8292 51.5478ZM86.8292 47.4941C86.4884 47.4945 86.1555 47.596 85.8724 47.7856C85.5893 47.9752 85.3688 48.2444 85.2388 48.5592C85.1087 48.874 85.0749 49.2203 85.1417 49.5544C85.2085 49.8884 85.3728 50.1951 85.6139 50.4358C85.855 50.6765 86.1621 50.8403 86.4963 50.9066C86.8305 50.9729 87.1769 50.9386 87.4917 50.8082C87.8064 50.6777 88.0755 50.4569 88.2647 50.1736C88.454 49.8904 88.555 49.5574 88.555 49.2168C88.5543 48.7597 88.3722 48.3215 88.0486 47.9985C87.7251 47.6755 87.2865 47.4941 86.8292 47.4941Z" fill="#003096"/>
<path d="M94.9154 51.2441C96.0307 51.1437 96.8534 50.1584 96.7528 49.0435C96.6523 47.9286 95.6667 47.1062 94.5514 47.2067C93.4361 47.3072 92.6135 48.2925 92.714 49.4074C92.8145 50.5223 93.8001 51.3446 94.9154 51.2441Z" fill="white"/>
<path d="M94.7401 51.5478C94.279 51.5473 93.8284 51.4102 93.4452 51.1538C93.0621 50.8974 92.7636 50.5331 92.5875 50.1072C92.4113 49.6812 92.3655 49.2125 92.4557 48.7605C92.546 48.3085 92.7683 47.8934 93.0945 47.5676C93.4207 47.2419 93.8362 47.0201 94.2885 46.9304C94.7408 46.8406 95.2095 46.8869 95.6354 47.0634C96.0614 47.2399 96.4254 47.5387 96.6816 47.922C96.9377 48.3053 97.0744 48.7559 97.0744 49.2168C97.0737 49.8352 96.8275 50.4281 96.3898 50.8652C95.9521 51.3023 95.3588 51.5478 94.7401 51.5478ZM94.7401 47.4941C94.3993 47.4945 94.0664 47.596 93.7833 47.7856C93.5002 47.9752 93.2797 48.2444 93.1497 48.5592C93.0196 48.874 92.9858 49.2203 93.0526 49.5544C93.1194 49.8884 93.2837 50.1951 93.5248 50.4358C93.7659 50.6765 94.073 50.8403 94.4072 50.9066C94.7414 50.9729 95.0878 50.9386 95.4026 50.8082C95.7173 50.6777 95.9863 50.4569 96.1756 50.1736C96.3649 49.8904 96.4659 49.5574 96.4659 49.2168C96.4652 48.7597 96.2831 48.3215 95.9595 47.9985C95.636 47.6755 95.1974 47.4941 94.7401 47.4941Z" fill="#003096"/>
<path opacity="0.4" d="M249.067 67.5664H90.1128V162.954H249.067V67.5664Z" fill="#E0E0FF"/>
<path d="M198.481 180.542H146.586C144.671 162.626 144.177 146.569 145.893 135.892C146.362 132.972 146.988 130.478 147.798 128.441L169.649 123.993L195.057 126.268C199.331 137.327 199.998 157.178 198.481 180.542Z" fill="#FFB147"/>
<path d="M171.568 128.964H170.959V149.646H171.568V128.964Z" fill="#1B1B43"/>
<path opacity="0.2" d="M195.057 126.268C195.057 126.268 174.598 140.624 145.888 135.892C146.358 132.972 146.983 130.478 147.794 128.441L169.645 123.993L195.057 126.268Z" fill="#1B1B43"/>
<path d="M159.348 45.2001C159.348 45.2001 149.493 57.7605 151.866 68.4376L186.489 66.9923C186.489 66.9923 186.783 46.0883 179.22 44.3096L159.348 45.2001Z" fill="#1B1B43"/>
<path d="M189.164 65.7486H188.555C188.555 52.0567 181.431 45.7644 181.36 45.7035L181.757 45.2412C181.83 45.3045 189.164 51.7793 189.164 65.7486Z" fill="#1B1B43"/>
<path d="M150.919 116.572C150.879 117.971 150.607 119.354 150.116 120.664C149.497 122.354 148.529 123.894 147.277 125.187C146.025 126.479 144.515 127.494 142.845 128.166C142.015 128.505 141.15 128.75 140.265 128.896C138.36 129.204 136.431 129.351 134.501 129.334C123.304 129.334 115.174 120.832 114.213 118.241C113.251 115.649 115.963 116.569 115.963 116.569C116.951 114.362 119.154 116.141 119.154 116.141C119.819 113.841 121.9 115.988 121.9 115.988C121.9 115.988 121.973 114.727 123.158 114.8C123.888 114.849 126.281 116.304 128.009 117.411C128.889 117.972 129.911 118.27 130.955 118.27C131.37 118.271 131.784 118.224 132.189 118.129C133.228 117.889 134.175 117.351 134.913 116.58C135.65 115.809 136.146 114.839 136.339 113.79L139.693 95.541H147.628L150.162 98.7894C151.17 102.812 151.109 111.048 150.919 116.572Z" fill="#FFBC96"/>
<path opacity="0.4" d="M150.116 120.665C149.497 122.354 148.529 123.895 147.277 125.187C146.025 126.479 144.515 127.494 142.845 128.166C142.557 127.472 142.408 126.728 142.407 125.977C142.407 125.23 142.553 124.491 142.839 123.802C143.124 123.112 143.543 122.486 144.071 121.958C144.599 121.431 145.225 121.012 145.915 120.727C146.605 120.441 147.344 120.295 148.091 120.295C148.782 120.296 149.468 120.421 150.116 120.665Z" fill="#FE5B52"/>
<path d="M168.067 60.5439L151.759 63.8702C148.823 64.4679 146.126 65.9103 144 68.02C141.874 70.1296 140.41 72.8145 139.79 75.7444L135.343 96.7165L150.174 98.7921L168.067 60.5439Z" fill="#003096"/>
<path d="M173.753 60.5439L190.062 63.8702C192.997 64.4679 195.694 65.9103 197.821 68.02C199.947 70.1296 201.41 72.8145 202.03 75.7444L204.046 90.6383L189.66 93.1591L173.753 60.5439Z" fill="#003096"/>
<path d="M150.174 98.792C150.174 98.792 149.383 122.711 147.801 128.443C147.801 128.443 169.951 136.152 195.059 126.268L193.08 82.19L173.753 60.5342H168.067L148.789 85.5406L150.174 98.792Z" fill="#003096"/>
<path d="M223.037 61.1372C223.127 62.6993 220.554 67.4319 218.575 70.8215C217.119 73.3124 216.191 76.0763 215.849 78.9412C213.3 100.354 211.613 118.27 204.165 123.287C202.437 124.448 200.404 124.922 197.982 124.589C196.395 124.389 194.907 123.71 193.715 122.642C185.865 115.661 189.675 93.1659 189.675 93.1659L199.411 91.4845C199.411 91.4845 201.602 73.1014 202.972 66.775C204.343 60.4485 206.531 63.8137 206.531 63.8137C207.322 61.8379 209.496 63.0229 209.496 63.0229C211.078 60.4558 213.054 62.4268 213.054 62.4268C214.242 60.0592 217.606 64.2079 217.606 64.2079C219.777 63.2103 222.842 57.8498 223.037 61.1372Z" fill="#FFBC96"/>
<path d="M150.814 78.7025L149.857 98.7686L150.465 98.7975L151.422 78.7315L150.814 78.7025Z" fill="#1B1B43"/>
<path d="M189.392 93.5165L188.151 77.5326L188.757 77.4863L189.947 92.8036L199.355 91.1806L199.46 91.7792L189.392 93.5165Z" fill="#1B1B43"/>
<path d="M201.42 74.4163L196.963 108.076L197.566 108.156L202.023 74.4961L201.42 74.4163Z" fill="#D28572"/>
<path opacity="0.4" d="M204.16 123.287C202.432 124.448 200.399 124.922 197.978 124.589C196.39 124.389 194.902 123.71 193.711 122.642C194.209 121.643 194.991 120.813 195.958 120.255C196.926 119.697 198.037 119.437 199.152 119.506C200.266 119.576 201.336 119.972 202.227 120.646C203.118 121.32 203.79 122.241 204.16 123.295V123.287Z" fill="#FE5B52"/>
<path d="M206.836 63.7371L206.234 63.8301L206.797 67.4707L207.399 67.3778L206.836 63.7371Z" fill="#D28572"/>
<path d="M209.863 62.9253L209.285 63.1152L210.457 66.6798L211.035 66.4899L209.863 62.9253Z" fill="#D28572"/>
<path d="M213.352 62.0578L212.779 62.2617L214.102 65.9777L214.675 65.7737L213.352 62.0578Z" fill="#D28572"/>
<path d="M183.521 76.2676H177.183C176.98 76.2676 176.815 76.4321 176.815 76.635V78.1047C176.815 78.3076 176.98 78.4721 177.183 78.4721H183.521C183.724 78.4721 183.889 78.3076 183.889 78.1047V76.635C183.889 76.4321 183.724 76.2676 183.521 76.2676Z" fill="#CBCBFF"/>
<path d="M170.414 71.6025C167.822 71.5593 165.319 70.6486 163.306 69.016L163.713 68.5658C163.956 68.7897 169.907 74.0017 177.12 68.5488L177.485 69.0355C174.934 70.9602 172.512 71.6025 170.414 71.6025Z" fill="#1B1B43"/>
<path d="M125.59 119.209C124.295 118.705 122.886 117.625 121.518 116.087L121.973 115.681C123.277 117.141 124.604 118.172 125.809 118.642L125.59 119.209Z" fill="#D28572"/>
<path d="M122.114 120.095C120.87 119.309 119.765 118.029 118.74 116.185L119.271 115.888C120.245 117.642 121.284 118.851 122.435 119.581L122.114 120.095Z" fill="#D28572"/>
<path d="M119.66 121.224C118.175 120.117 116.808 118.574 115.479 116.504L115.992 116.178C117.28 118.183 118.599 119.674 120.023 120.735L119.66 121.224Z" fill="#D28572"/>
<path d="M164.217 51.0566H176.574V61.4831C176.574 62.295 176.414 63.099 176.103 63.849C175.792 64.599 175.336 65.2804 174.762 65.8542C174.187 66.4279 173.505 66.8829 172.754 67.1929C172.004 67.5029 171.199 67.662 170.387 67.6611C168.748 67.6611 167.176 67.0102 166.017 65.8516C164.858 64.693 164.207 63.1216 164.207 61.4831V51.0566H164.217Z" fill="#FFBC96"/>
<path d="M164.214 52.1123C168.036 58.5312 172.135 59.0568 176.587 52.1634L164.214 52.1123Z" fill="#D28572"/>
<path d="M161.821 31.7393H178.965V46.1951C178.964 47.3208 178.742 48.4353 178.311 49.4751C177.88 50.5149 177.248 51.4595 176.451 52.2551C175.655 53.0507 174.709 53.6816 173.669 54.1119C172.628 54.5421 171.513 54.7632 170.387 54.7626C168.113 54.7626 165.933 53.8597 164.325 52.2525C162.717 50.6454 161.814 48.4656 161.814 46.1927V31.7393H161.821Z" fill="#FFBC96"/>
<path d="M170.231 46.4116C169.228 45.465 168.853 44.7083 169.08 44.1243C169.306 43.5404 169.993 43.3749 170.404 43.3189L170.385 41.4502H170.993L171.02 43.8981H170.72C170.423 43.8981 169.769 44.0246 169.647 44.3409C169.591 44.4917 169.574 44.9492 170.65 45.9663L170.231 46.4116Z" fill="#1B1B43"/>
<path d="M173.442 48.2703C173.664 47.9326 173.851 47.5731 173.999 47.1973C171.923 47.37 167.525 47.37 167.525 47.37C167.632 47.7537 167.797 48.1194 168.011 48.4552C169.824 48.541 171.64 48.4791 173.442 48.2703Z" fill="white"/>
<path d="M168.016 48.4603C168.291 48.919 168.678 49.3004 169.141 49.5689C169.604 49.8374 170.127 49.9842 170.662 49.9957C172.006 50.0371 172.914 49.0808 173.442 48.2754C171.641 48.4839 169.827 48.5458 168.016 48.4603Z" fill="#1B1B43"/>
<path d="M178.87 40.8343C178.87 41.1628 179.174 33.9896 167.992 32.4688C167.992 32.4688 161.678 36.0822 162.393 41.2893L158.964 40.6421C157.64 37.0311 158.097 27.3736 165.855 28.0598C165.855 28.0598 167.527 25.6703 170.268 25.6265C184.186 25.3978 181.988 40.827 181.654 41.2723L178.87 40.8343Z" fill="#1B1B43"/>
<path d="M183.275 44.1447C183.93 42.1589 183.126 40.1089 181.479 39.566C179.832 39.0232 177.966 40.1929 177.311 42.1788C176.656 44.1646 177.46 46.2145 179.107 46.7574C180.754 47.3003 182.62 46.1306 183.275 44.1447Z" fill="#FFBC96"/>
<path d="M179.858 44.2505L179.254 44.1751C179.359 43.3356 179.963 41.7248 181.491 41.6348L181.528 42.2431C180.121 42.3258 179.858 44.231 179.858 44.2505Z" fill="#1B1B43"/>
<path d="M161.612 46.7777C163.259 46.2348 164.063 44.1849 163.408 42.1991C162.753 40.2132 160.887 39.0435 159.24 39.5864C157.593 40.1292 156.789 42.1792 157.444 44.165C158.099 46.1509 159.965 47.3206 161.612 46.7777Z" fill="#FFBC96"/>
<path d="M160.872 44.2505C160.872 44.1726 160.609 42.3258 159.205 42.2431L159.239 41.6348C160.77 41.7248 161.371 43.338 161.476 44.1751L160.872 44.2505Z" fill="#1B1B43"/>
<path d="M174.815 39.6617C174.801 39.8412 174.736 40.0129 174.627 40.1558C174.517 40.2987 174.368 40.4065 174.198 40.4661C174.029 40.5257 173.845 40.5344 173.67 40.4912C173.495 40.448 173.337 40.3547 173.215 40.2229C173.092 40.091 173.011 39.9263 172.98 39.7489C172.95 39.5715 172.972 39.3891 173.044 39.2241C173.116 39.0591 173.235 38.9187 173.385 38.8201C173.536 38.7215 173.712 38.669 173.892 38.6689C174.018 38.6733 174.142 38.7025 174.256 38.7548C174.371 38.8072 174.474 38.8816 174.56 38.9738C174.645 39.0661 174.712 39.1743 174.756 39.2923C174.8 39.4104 174.82 39.5359 174.815 39.6617Z" fill="#1B1B43"/>
<path d="M175.688 36.3645L172.836 36.0216C172.566 35.9892 172.321 36.1814 172.289 36.4509L172.272 36.5886C172.24 36.8581 172.432 37.1029 172.702 37.1353L175.554 37.4782C175.823 37.5107 176.068 37.3185 176.1 37.0489L176.117 36.9112C176.15 36.6417 175.957 36.397 175.688 36.3645Z" fill="#1B1B43"/>
<path d="M165.918 39.6617C165.931 39.8412 165.997 40.0129 166.106 40.1558C166.216 40.2987 166.364 40.4065 166.534 40.4661C166.704 40.5257 166.888 40.5344 167.062 40.4912C167.237 40.448 167.396 40.3547 167.518 40.2229C167.641 40.091 167.722 39.9263 167.752 39.7489C167.782 39.5715 167.76 39.3891 167.688 39.2241C167.616 39.0591 167.498 38.9187 167.347 38.8201C167.197 38.7215 167.021 38.669 166.841 38.6689C166.587 38.6785 166.347 38.7884 166.174 38.9745C166.001 39.1606 165.909 39.4078 165.918 39.6617Z" fill="#1B1B43"/>
<path d="M165.189 37.4778L168.041 37.1349C168.31 37.1025 168.503 36.8577 168.47 36.5882L168.454 36.4505C168.421 36.181 168.176 35.9888 167.907 36.0212L165.055 36.3641C164.785 36.3966 164.593 36.6413 164.626 36.9108L164.642 37.0486C164.675 37.3181 164.919 37.5103 165.189 37.4778Z" fill="#1B1B43"/>
<path opacity="0.4" d="M175.618 45.5745C176.718 45.5745 177.609 44.6834 177.609 43.5841C177.609 42.4849 176.718 41.5938 175.618 41.5938C174.518 41.5938 173.627 42.4849 173.627 43.5841C173.627 44.6834 174.518 45.5745 175.618 45.5745Z" fill="#FE5B52"/>
<path opacity="0.4" d="M165.115 45.5745C166.214 45.5745 167.106 44.6834 167.106 43.5841C167.106 42.4849 166.214 41.5938 165.115 41.5938C164.015 41.5938 163.124 42.4849 163.124 43.5841C163.124 44.6834 164.015 45.5745 165.115 45.5745Z" fill="#FE5B52"/>
<path d="M114.179 76.5615H54.7575C53.065 76.5615 51.693 77.9331 51.693 79.625V104.05C51.693 105.742 53.065 107.113 54.7575 107.113H114.179C115.871 107.113 117.243 105.742 117.243 104.05V79.625C117.243 77.9331 115.871 76.5615 114.179 76.5615Z" fill="white"/>
<path d="M114.179 107.398H54.7575C53.8675 107.397 53.0141 107.044 52.3847 106.414C51.7554 105.785 51.4015 104.932 51.4009 104.043V79.625C51.4015 78.7352 51.7554 77.8822 52.3847 77.253C53.0141 76.6239 53.8675 76.2702 54.7575 76.2695H114.179C114.62 76.2689 115.057 76.3552 115.465 76.5235C115.874 76.6917 116.244 76.9387 116.557 77.2503C116.87 77.5619 117.118 77.932 117.287 78.3394C117.457 78.7469 117.544 79.1837 117.545 79.625V104.052C117.541 104.942 117.185 105.793 116.554 106.421C115.923 107.048 115.069 107.399 114.179 107.398ZM54.7575 76.8559C54.0226 76.8559 53.3178 77.1476 52.7979 77.6668C52.2781 78.186 51.9857 78.8904 51.9851 79.625V104.052C51.9863 104.787 52.2789 105.491 52.7987 106.01C53.3184 106.529 54.0228 106.821 54.7575 106.821H114.179C114.913 106.82 115.617 106.528 116.136 106.009C116.655 105.49 116.947 104.786 116.949 104.052V79.625C116.948 78.8908 116.656 78.1868 116.137 77.6677C115.617 77.1485 114.913 76.8566 114.179 76.8559H54.7575Z" fill="#003096"/>
<path d="M109.948 84.083H58.9856V84.6913H109.948V84.083Z" fill="#E0E0FF"/>
<path d="M109.948 91.5332H58.9856V92.1415H109.948V91.5332Z" fill="#E0E0FF"/>
<path d="M109.948 98.9863H58.9856V99.5946H109.948V98.9863Z" fill="#E0E0FF"/>
<path d="M59.8374 99.6485L59.3604 99.2713L62.992 94.692L69.2452 96.8283L74.627 90.9837L80.1013 95.3927L86.5298 88.2025L92.357 94.9255L97.5636 81.4527L102.967 89.9374L109.247 80.8857L109.746 81.2313L102.945 91.0372L97.6974 82.7934L92.559 96.0886L86.5225 89.1223L80.1695 96.2298L74.6903 91.8159L69.4229 97.5315L63.2014 95.4073L59.8374 99.6485Z" fill="#003096"/>
<path d="M224.13 24.2061L221.196 0.489258C216.628 1.05428 212.32 2.92573 208.789 5.87883C205.259 8.83193 202.657 12.7411 201.295 17.1368C199.933 21.5325 199.869 26.2277 201.112 30.6586C202.354 35.0895 204.85 39.0676 208.299 42.1151C211.748 45.1625 216.004 47.1498 220.556 47.8381C225.107 48.5264 229.761 47.8866 233.957 45.9954C238.154 44.1042 241.715 41.0421 244.213 37.1769C246.711 33.3117 248.04 28.8078 248.04 24.2061C248.04 23.5077 248.003 22.8167 247.945 22.1329L224.13 24.2061Z" fill="white"/>
<path d="M224.13 48.4113C217.965 48.4124 212.032 46.063 207.541 41.8421C203.05 37.6212 200.338 31.8468 199.959 25.6961C199.58 19.5455 201.562 13.482 205.501 8.7419C209.44 4.00182 215.04 0.942196 221.158 0.186895L221.459 0.150391L224.402 23.8769L248.23 21.8038L248.256 22.108C248.32 22.8598 248.351 23.5484 248.351 24.2054C248.344 30.6243 245.79 36.7781 241.249 41.3163C236.707 45.8545 230.551 48.4061 224.13 48.4113ZM220.931 0.821968C216.439 1.43499 212.218 3.32797 208.774 6.27471C205.329 9.22146 202.806 13.0973 201.506 17.4392C200.205 21.7811 200.183 26.4054 201.442 30.7596C202.7 35.1137 205.187 39.0135 208.603 41.9929C212.019 44.9724 216.222 46.9056 220.708 47.5615C225.194 48.2174 229.774 47.5682 233.901 45.6916C238.028 43.8149 241.527 40.7902 243.98 36.9787C246.434 33.1673 247.737 28.7304 247.735 24.1981C247.735 23.6458 247.714 23.074 247.667 22.4559L223.864 24.5266L220.931 0.821968Z" fill="#003096"/>
<path d="M236.604 19.339L260.419 17.2659C260.048 12.933 258.496 8.78481 255.931 5.27246L236.604 19.339Z" fill="#9192FF"/>
<path d="M243.456 10.1389C241.24 7.09056 238.334 4.61015 234.975 2.90067C231.615 1.1912 227.899 0.301258 224.13 0.303716C223.149 0.306139 222.169 0.367896 221.196 0.488645L224.13 24.2054L243.456 10.1389Z" fill="#E0E0FF"/>
<path d="M223.891 24.7558L220.856 0.223874L221.157 0.187377C225.446 -0.349999 229.801 0.273525 233.767 1.99285C237.732 3.71218 241.164 6.46425 243.702 9.9617L243.882 10.205L223.891 24.7558ZM221.535 0.756754L224.368 23.656L243.03 10.0688C240.827 7.13648 237.974 4.75536 234.694 3.11287C231.414 1.47039 227.798 0.611373 224.129 0.603459C223.262 0.60617 222.396 0.657349 221.535 0.756754Z" fill="#003096"/>
<path d="M284.135 92.4238H240.455C238.37 92.4238 236.68 94.1135 236.68 96.1978V144.101C236.68 146.185 238.37 147.875 240.455 147.875H284.135C286.22 147.875 287.91 146.185 287.91 144.101V96.1978C287.91 94.1135 286.22 92.4238 284.135 92.4238Z" fill="white"/>
<path d="M284.132 148.167H240.467C239.389 148.166 238.355 147.737 237.592 146.975C236.83 146.212 236.401 145.179 236.4 144.101V96.2051C236.399 95.1259 236.827 94.0905 237.59 93.3267C238.353 92.5629 239.388 92.1331 240.467 92.1318H284.145C285.222 92.1363 286.254 92.5675 287.015 93.3309C287.775 94.0943 288.202 95.1277 288.202 96.2051V144.101C288.201 145.179 287.772 146.213 287.009 146.975C286.246 147.738 285.211 148.166 284.132 148.167ZM240.467 92.7158C240.008 92.7148 239.554 92.8044 239.13 92.9794C238.705 93.1543 238.32 93.4112 237.995 93.7354C237.67 94.0595 237.413 94.4445 237.237 94.8683C237.062 95.2921 236.971 95.7464 236.972 96.2051V144.101C236.972 144.559 237.063 145.013 237.239 145.436C237.415 145.858 237.673 146.243 237.998 146.566C238.322 146.889 238.708 147.146 239.131 147.32C239.555 147.495 240.009 147.584 240.467 147.583H284.145C285.068 147.582 285.954 147.215 286.608 146.563C287.261 145.91 287.629 145.024 287.63 144.101V96.2051C287.629 95.2816 287.261 94.3963 286.608 93.7435C285.954 93.0907 285.068 92.7238 284.145 92.7231L240.467 92.7158Z" fill="#003096"/>
<path d="M282.071 100.364H242.517V101.004H282.071V100.364Z" fill="#E0E0FF"/>
<path d="M282.071 110.097H242.517V110.737H282.071V110.097Z" fill="#E0E0FF"/>
<path d="M282.071 119.83H242.517V120.47H282.071V119.83Z" fill="#E0E0FF"/>
<path d="M282.071 129.562H242.517V130.202H282.071V129.562Z" fill="#E0E0FF"/>
<path d="M282.071 139.296H242.517V139.936H282.071V139.296Z" fill="#E0E0FF"/>
<path d="M245.885 113.445H242.517V139.936H245.885V113.445Z" fill="#CBCBFF"/>
<path d="M253.21 123.29H249.841V139.938H253.21V123.29Z" fill="#E0E0FF"/>
<path d="M260.534 117.173H257.165V139.936H260.534V117.173Z" fill="#CBCBFF"/>
<path d="M267.858 113.062H264.489V139.935H267.858V113.062Z" fill="#E0E0FF"/>
<path d="M275.182 108.102H271.813V139.936H275.182V108.102Z" fill="#CBCBFF"/>
<path d="M282.506 102.819H279.138V139.936H282.506V102.819Z" fill="#E0E0FF"/>
<path d="M138.661 3.80273H108.826C107.886 3.80273 106.983 4.17625 106.318 4.84111C105.653 5.50597 105.28 6.40771 105.28 7.34797V19.4193C105.28 20.3595 105.653 21.2613 106.318 21.9261C106.983 22.591 107.886 22.9645 108.826 22.9645H129.2L137.032 29.6559V22.9645H138.661C139.127 22.9645 139.588 22.8728 140.018 22.6946C140.448 22.5164 140.839 22.2552 141.168 21.926C141.497 21.5967 141.758 21.2059 141.936 20.7758C142.114 20.3457 142.205 19.8847 142.205 19.4193V7.34797C142.205 6.88252 142.114 6.42156 141.936 5.99145C141.758 5.56134 141.497 5.17049 141.168 4.84126C140.839 4.51202 140.448 4.25084 140.018 4.07265C139.588 3.89446 139.127 3.80273 138.661 3.80273Z" fill="white"/>
<path d="M137.354 30.3498L129.078 23.2934H108.826C107.801 23.2927 106.818 22.8854 106.094 22.1609C105.369 21.4364 104.961 20.454 104.961 19.4294V7.34836C104.961 6.32377 105.369 5.34132 106.094 4.61682C106.818 3.89232 107.801 3.48502 108.826 3.48438H138.661C139.686 3.48566 140.668 3.89317 141.393 4.61753C142.117 5.34189 142.525 6.32397 142.526 7.34836V19.4197C142.525 20.4441 142.117 21.4261 141.393 22.1505C140.668 22.8749 139.686 23.2824 138.661 23.2837H137.354V30.3498ZM108.826 4.12188C107.971 4.12317 107.15 4.46352 106.545 5.06832C105.94 5.67312 105.6 6.49304 105.599 7.34836V19.4197C105.6 20.275 105.94 21.0949 106.545 21.6997C107.15 22.3045 107.971 22.6449 108.826 22.6461H129.319L136.714 28.9726V22.6461H138.661C139.516 22.6449 140.336 22.3044 140.941 21.6996C141.546 21.0947 141.885 20.2748 141.886 19.4197V7.34836C141.885 6.49327 141.546 5.67334 140.941 5.06847C140.336 4.4636 139.516 4.12317 138.661 4.12188H108.826Z" fill="#003096"/>
<path d="M133.686 8.66992H109.802V9.27823H133.686V8.66992Z" fill="#9192FF"/>
<path d="M136.882 12.7773H109.802V13.3857H136.882V12.7773Z" fill="#9192FF"/>
<path d="M128.817 16.8818H109.802V17.4901H128.817V16.8818Z" fill="#9192FF"/>
<path d="M130.701 210.505H122.182V313.918H130.701V210.505Z" fill="#B0B0D2"/>
<path d="M217.416 210.505H208.897V313.918H217.416V210.505Z" fill="#B0B0D2"/>
<path opacity="0.3" d="M130.701 210.223H122.182V228.45H130.701V210.223Z" fill="#1B1B43"/>
<path opacity="0.3" d="M217.416 210.223H208.897V228.45H217.416V210.223Z" fill="#1B1B43"/>
<path d="M265.468 206.979H74.1329V215.548H265.468V206.979Z" fill="#B0B0D2"/>
<path d="M242.964 204.052H220.807V206.989H242.964V204.052Z" fill="#1B1B43"/>
<path d="M224.086 206.989H220.809L207.748 172.546C207.66 172.314 207.63 172.064 207.66 171.818C207.69 171.572 207.779 171.337 207.92 171.133C208.061 170.929 208.25 170.762 208.469 170.646C208.689 170.531 208.934 170.471 209.182 170.471C209.493 170.471 209.797 170.566 210.053 170.743C210.309 170.919 210.505 171.17 210.615 171.461L224.086 206.989Z" fill="#1B1B43"/>
<path d="M101.685 206.988H123.842V204.051H101.685V206.988Z" fill="#1B1B43"/>
<path d="M120.563 206.989H123.842L136.901 172.546C136.989 172.314 137.02 172.065 136.99 171.818C136.961 171.572 136.872 171.337 136.731 171.133C136.59 170.928 136.402 170.761 136.182 170.646C135.962 170.531 135.718 170.471 135.47 170.471C135.159 170.471 134.855 170.566 134.599 170.743C134.342 170.919 134.146 171.17 134.036 171.461L120.563 206.989Z" fill="#1B1B43"/>
<path d="M58.1263 167.333L70.2141 169.275L70.3455 162.654L70.4745 156.063L70.5841 150.427L67.2323 148.846L61.4903 155.574L58.1263 167.333Z" fill="#D28572"/>
<path d="M65.4092 155.992C65.4092 155.992 66.8696 159.053 70.348 162.652L70.4745 156.063L65.4092 155.992Z" fill="#925D4F"/>
<path d="M78.8429 147.844C78.9841 147.924 82.6693 153.567 81.0141 154.078C79.3589 154.589 77.2656 154.392 77.2656 154.392L78.8429 147.844Z" fill="#925D4F"/>
<path d="M80.0599 143.043L78.5337 157.073C78.4702 157.656 78.2477 158.211 77.8907 158.677C77.5336 159.143 77.0556 159.502 76.5086 159.715C75.7279 160.017 74.8603 160.004 74.0891 159.679L65.4042 155.995L64.2383 148.084L71.2655 140.733L80.0599 143.043Z" fill="#D28572"/>
<path d="M59.1656 159.633L55.0082 168.86L71.1341 171.393L72.2489 164.195L59.1656 159.633Z" fill="#FED3D1"/>
<path d="M69.7589 148.068C69.7589 148.068 76.8957 146.863 80.06 143.043C80.06 143.043 81.2357 135.656 70.365 134.677C58.5693 133.617 47.5112 150.299 47.5112 150.299L61.9187 162.879L69.7589 148.068Z" fill="#1B1B43"/>
<path d="M70.7642 151.564C71.9741 150.943 72.2971 149.16 71.4857 147.582C70.6743 146.004 69.0357 145.23 67.8258 145.852C66.6159 146.473 66.2929 148.256 67.1043 149.834C67.9157 151.412 69.5543 152.186 70.7642 151.564Z" fill="#D28572"/>
<path d="M69.7954 149.841C69.7443 149.505 69.5009 148.552 68.98 148.196C68.8818 148.128 68.7699 148.083 68.6522 148.062C68.5344 148.042 68.4137 148.048 68.2984 148.08L68.1646 147.486C68.3622 147.435 68.5683 147.428 68.7691 147.464C68.9699 147.5 69.1605 147.579 69.328 147.695C70.1727 148.277 70.3869 149.693 70.3966 149.754L69.7954 149.841Z" fill="#1B1B43"/>
<path opacity="0.3" d="M74.9241 153.944C76.2267 153.944 77.2827 152.889 77.2827 151.586C77.2827 150.284 76.2267 149.229 74.9241 149.229C73.6214 149.229 72.5654 150.284 72.5654 151.586C72.5654 152.889 73.6214 153.944 74.9241 153.944Z" fill="#BE443D"/>
<path d="M76.4089 189.545C75.9465 191.308 75.0848 192.94 73.8903 194.317C72.6959 195.694 71.2007 196.778 69.5204 197.484C69.3135 197.567 69.1066 197.647 68.8923 197.728C68.6782 197.808 68.4859 197.881 68.2838 197.954C65.0589 199.205 62.1582 201.167 59.7979 203.695C57.4377 206.223 55.6789 209.251 54.6529 212.553C54.5385 212.943 54.4411 213.315 54.3632 213.661C54.3632 213.661 40.8223 215.639 27.1305 208.033C27.1305 208.033 34.6762 181.267 51.3327 168.541C53.235 167.095 55.458 166.128 57.8134 165.722C60.1688 165.317 62.5873 165.485 64.8639 166.212C68.9151 167.497 72.4488 170.044 74.9484 173.48L75.2478 173.892L76.7204 184.634C76.9454 186.276 76.8395 187.945 76.4089 189.545Z" fill="#FE5B52"/>
<path d="M76.4088 189.545C75.9465 191.308 75.0847 192.941 73.8903 194.317C72.6958 195.694 71.2006 196.778 69.5203 197.484C69.3134 197.567 69.1065 197.648 68.8923 197.728C68.6781 197.808 68.4858 197.881 68.2838 197.954C66.1807 192.788 64.4501 184.571 64.4501 184.571L74.5954 185.917L76.4088 189.545Z" fill="#BE443D"/>
<path d="M98.3157 178.084C98.3157 178.084 107.224 168.563 110.029 169.263C111.246 169.568 107.594 173.368 107.594 173.368C107.594 173.368 111.078 173.436 116.659 170.555C116.803 170.481 116.962 170.436 117.124 170.426C117.286 170.415 117.449 170.438 117.602 170.493C117.755 170.549 117.895 170.635 118.013 170.747C118.131 170.859 118.224 170.994 118.287 171.144C118.369 171.34 118.396 171.554 118.365 171.763C118.335 171.973 118.248 172.17 118.115 172.334C116.934 173.794 113.412 177.736 108.51 179.451L106.426 182.14L101.207 184.624L98.3157 178.084Z" fill="#D28572"/>
<path d="M106.426 182.14L94.7742 202.908C94.1324 204.051 93.2248 205.023 92.128 205.742C91.0312 206.46 89.7774 206.904 88.4728 207.036C87.1681 207.168 85.8508 206.984 84.6322 206.5C83.4137 206.016 82.3296 205.245 81.4718 204.254L64.4331 184.574L75.2308 173.892L87.0532 190.099L98.3158 178.084L106.426 182.14Z" fill="#FE5B52"/>
<path d="M90.3757 196.117C83.5408 185.449 74.4616 172.821 69.5934 168.658L69.9877 168.195C75.608 172.999 85.7704 187.8 90.8893 195.788L90.3757 196.117Z" fill="#1B1B43"/>
<path d="M87.9513 207.648C86.6025 207.623 85.2812 207.262 84.1079 206.597C80.3788 204.584 64.8614 185.566 64.2042 184.756L64.674 184.374C64.8347 184.571 80.7756 204.107 84.3902 206.064C88.5111 208.288 91.3079 206.266 92.6077 204.862C94.6792 202.626 106.039 182.191 106.154 181.989L106.687 182.284C106.217 183.128 95.1757 202.988 93.0556 205.28C91.6049 206.857 89.8402 207.648 87.9513 207.648Z" fill="#1B1B43"/>
<path d="M68.8022 289.911L58.3088 310.594L60.5993 310.918L64.4038 305.518L76.3309 313.935L83.3241 313.906C83.3241 313.906 84.7432 312.499 81.109 308.725C76.8396 304.287 74.3982 298.469 74.5102 292.398V291.875L71.6477 288.955L68.8022 289.911Z" fill="#1B1B43"/>
<path d="M69.2404 296.376L66.9255 313.895H69.2404L72.2513 308.016L83.363 313.669H92.1623C92.1623 313.669 93.3793 312.077 89.2414 308.849C84.3902 305.055 81.1553 299.636 80.4153 293.609L80.352 293.088L77.1123 290.621L69.2404 296.376Z" fill="#393A8F"/>
<path d="M81.5813 298.53L97.8679 241.275C98.5043 239.039 98.3302 236.651 97.3763 234.531C96.4223 232.411 94.7498 230.696 92.654 229.688L77.9861 222.632L77.1123 290.621L81.5813 298.53Z" fill="#1B1B43"/>
<path d="M27.1183 208.042L23.8322 223.659C23.3833 225.795 23.4166 228.004 23.9299 230.125C24.4432 232.247 25.4235 234.227 26.7994 235.922C28.1753 237.616 29.912 238.983 31.8831 239.922C33.8542 240.86 36.01 241.348 38.1934 241.348H68.9045C65.8326 256.352 67.8286 276.99 68.9045 298.225L81.5813 298.529L90.327 243.949C91.0361 239.52 90.1958 234.982 87.9478 231.099C85.6998 227.217 82.1815 224.228 77.9861 222.637L54.351 213.67L27.1183 208.042Z" fill="#003096"/>
<path opacity="0.4" d="M77.9277 298.568L77.3241 298.49C77.3922 297.974 83.9911 246.925 82.1923 237.552C80.3375 227.868 61.6582 225.072 51.6248 223.568C50.7315 223.437 49.9088 223.325 49.1786 223.196C46.6642 222.797 44.8751 221.712 43.8625 219.972C41.8641 216.541 43.5923 211.835 43.6678 211.636L44.2374 211.85C44.2203 211.896 42.5335 216.488 44.3907 219.668C45.3059 221.242 46.9489 222.225 49.2735 222.588C50.0037 222.705 50.824 222.831 51.7076 222.96C61.8919 224.486 80.8462 227.323 82.7838 237.431C83.5456 241.411 82.959 252.911 81.0385 271.61C79.617 285.528 77.9448 298.439 77.9277 298.568Z" fill="white"/>
<path d="M34.092 243.818L31.9913 255.948L21.9458 314H17.7227L27.7682 255.948L29.8688 243.818H34.092Z" fill="#B0B0D2"/>
<path d="M62.0842 314H57.861L47.813 255.948L45.7148 243.818H49.938L52.0362 255.948L62.0842 314Z" fill="#B0B0D2"/>
<path opacity="0.3" d="M34.092 243.818L31.9913 255.948H27.7682L29.8688 243.818H34.092Z" fill="#1B1B43"/>
<path opacity="0.3" d="M52.0362 255.948H47.813L45.7148 243.818H49.938L52.0362 255.948Z" fill="#1B1B43"/>
<path d="M58.5547 247.128H19.0371V241.349H58.5547C59.3217 241.349 60.0572 241.653 60.5995 242.195C61.1418 242.737 61.4464 243.473 61.4464 244.239C61.4458 245.006 61.1408 245.74 60.5986 246.282C60.0564 246.823 59.3212 247.128 58.5547 247.128Z" fill="#CBCBFF"/>
<path d="M24.6137 247.128H19.0371L0.194776 200.959C-0.0585029 200.34 -0.0643528 199.648 0.178441 199.025C0.421236 198.402 0.894126 197.896 1.49945 197.611C1.82049 197.46 2.16906 197.375 2.52387 197.363C2.87868 197.351 3.23227 197.411 3.56305 197.54C3.89383 197.668 4.19484 197.863 4.44771 198.113C4.70058 198.362 4.89999 198.66 5.03376 198.988L24.6137 247.128Z" fill="#CBCBFF"/>
<path d="M281.304 147.447C281.163 147.52 277.254 152.966 278.87 153.545C280.486 154.124 282.58 154.032 282.58 154.032L281.304 147.447Z" fill="#D28572"/>
<path d="M301.045 167.711L288.027 169.254L288.268 162.655L288.514 156.088L288.721 150.474L292.391 149.007L298.136 155.893L301.045 167.711Z" fill="#FFBC96"/>
<path d="M293.927 156.185C293.927 156.185 292.192 159.182 288.268 162.655L288.511 156.085L293.927 156.185Z" fill="#D28572"/>
<path d="M280.309 142.625L281.212 156.628C281.249 157.211 281.447 157.773 281.782 158.252C282.117 158.731 282.577 159.108 283.113 159.344C283.874 159.68 284.736 159.704 285.515 159.412L294.305 156.129L295.814 148.321L289.149 140.7L280.309 142.625Z" fill="#FFBC96"/>
<path d="M290.483 148.316C290.483 148.316 288.324 144.126 286.075 143.486C286.075 143.486 277.419 146.306 275.513 139.671C275.513 139.671 280.381 139.717 284.571 136.79C288.76 133.862 293.112 135.269 296.13 138.006C296.13 138.006 305.993 138.493 298.216 155.891C298.216 155.891 296.269 156.538 291.284 149.588L290.483 148.316Z" fill="#1B1B43"/>
<path d="M292.907 149.749C292.031 151.282 290.378 151.983 289.212 151.319C288.047 150.655 287.81 148.886 288.687 147.341C289.563 145.795 291.216 145.107 292.379 145.771C293.543 146.435 293.774 148.216 292.907 149.749Z" fill="#FFBC96"/>
<path opacity="0.4" d="M285.398 153.296C286.721 153.296 287.793 152.207 287.793 150.863C287.793 149.519 286.721 148.43 285.398 148.43C284.075 148.43 283.003 149.519 283.003 150.863C283.003 152.207 284.075 153.296 285.398 153.296Z" fill="#FE5B52"/>
<path d="M290.081 149.615C289.962 148.827 290.179 147.209 291.856 146.729L292.024 147.316C290.437 147.768 290.671 149.452 290.683 149.525L290.081 149.615Z" fill="#1B1B43"/>
<path d="M288.027 169.254L288.176 162.472L299.635 159.53L302.982 167.947L288.027 169.254Z" fill="#CBCBFF"/>
<path d="M289.799 166.526C284.045 172.123 279.858 180.518 274.586 189.034C274.586 189.034 256.71 193.657 251.589 198.767L260.792 203.431L292.233 194.711L289.799 166.526Z" fill="#1B1B43"/>
<path d="M243.318 293.541L236.147 313.896L213.712 308.299C213.712 308.299 217.202 303.527 227.73 304.893L233.328 289.164L243.318 293.541Z" fill="#1B1B43"/>
<path d="M288.175 213.062L255.77 223.59C252.027 224.806 248.653 226.949 245.961 229.82C243.27 232.69 241.349 236.195 240.377 240.007L227.323 293.967L244.97 298.529C251.888 282.136 258.601 262.573 263.226 243.579L288.175 213.062Z" fill="#393A8F"/>
<path d="M276.412 295.072L279.048 313.93H254.505C254.505 313.93 256.734 308.455 267.284 307.238L266.675 295.883L276.412 295.072Z" fill="#1B1B43"/>
<path d="M317.553 207.687L320.834 223.301C322.749 232.42 315.905 241.499 306.582 241.499H277.071C278.729 256.658 280.325 276.632 279.25 297.867L263.09 298.171L254.341 243.591C253.632 239.162 254.472 234.624 256.719 230.742C258.967 226.859 262.485 223.87 266.68 222.279L288.173 213.062L317.553 207.687Z" fill="#003096"/>
<path d="M318.602 212.758C315.944 187.377 312.142 163.429 293.017 164.529C291.881 164.605 290.812 165.095 290.013 165.906C288.388 167.531 287.134 169.489 286.34 171.646C285.545 173.802 285.228 176.105 285.41 178.396L288.176 213.062C288.176 213.062 303.084 215.799 318.602 212.758Z" fill="#1B1B43"/>
<path d="M251.589 198.538C251.589 198.538 240.331 200.667 238.505 207.054H254.478L257.52 204.925L251.589 198.538Z" fill="#FFBC96"/>
<path d="M293.119 170.101L278.515 192.759L251.589 198.538L254.478 207.054L277.057 206.94C283.118 206.821 288.305 203.653 291.676 198.616L304.226 180.593L293.119 170.101Z" fill="#1B1B43"/>
<path d="M251.664 198.835L251.535 198.241L278.298 192.499C279.011 190.486 279.719 188.403 280.403 186.386C283.215 178.113 285.87 170.303 289.166 166.037L289.653 166.407C286.421 170.595 283.782 178.361 280.988 186.583C280.284 188.654 279.554 190.798 278.821 192.861L278.765 193.022L278.6 193.056L251.664 198.835Z" fill="#003096"/>
<path d="M267.729 207.477C261.466 207.477 254.965 207.368 254.475 207.358V206.75C254.697 206.75 276.455 207.122 279.126 206.529L279.208 206.511C282.394 205.799 285.361 204.329 287.857 202.224C290.353 200.12 292.303 197.445 293.543 194.426L296.559 187.092L297.121 187.335L294.105 194.666C292.828 197.776 290.819 200.531 288.249 202.698C285.679 204.866 282.623 206.381 279.342 207.115L279.259 207.132C278.018 207.404 272.955 207.477 267.729 207.477Z" fill="#003096"/>
<path d="M324.054 313.997H328.28L316.134 243.815H311.908L324.054 313.997Z" fill="#B0B0D2"/>
<path d="M288.141 313.997H283.916L296.062 243.815H300.288L288.141 313.997Z" fill="#B0B0D2"/>
<path opacity="0.3" d="M300.28 243.815L298.18 255.948H293.957L296.057 243.815H300.28Z" fill="#1B1B43"/>
<path opacity="0.3" d="M318.224 255.948H314.001L311.903 243.815H316.126L318.224 255.948Z" fill="#1B1B43"/>
<path d="M287.445 247.128H326.965V241.349H287.445C287.066 241.349 286.69 241.423 286.339 241.569C285.988 241.714 285.67 241.927 285.401 242.195C285.133 242.464 284.92 242.783 284.775 243.133C284.63 243.484 284.556 243.86 284.556 244.239C284.556 245.005 284.86 245.74 285.402 246.282C285.944 246.823 286.679 247.128 287.445 247.128Z" fill="#CBCBFF"/>
<path d="M321.386 247.128H326.965L345.808 200.959C346.06 200.34 346.065 199.648 345.822 199.025C345.579 198.402 345.106 197.896 344.501 197.611C344.18 197.46 343.831 197.375 343.477 197.363C343.122 197.351 342.769 197.411 342.438 197.54C342.107 197.669 341.807 197.864 341.554 198.113C341.301 198.362 341.102 198.66 340.969 198.988L321.386 247.128Z" fill="#CBCBFF"/>
</g>
<defs>
<clipPath id="clip0_586_1339">
<rect width="346" height="314" fill="white"/>
</clipPath>
</defs>
</svg>
